<svg width="44" height="44" viewBox="0 0 44 44" fill="none" xmlns="http://www.w3.org/2000/svg">
<g clip-path="url(#clip0_779_36)">
<path d="M22 44C34.1503 44 44 34.1503 44 22C44 9.84974 34.1503 0 22 0C9.84974 0 0 9.84974 0 22C0 34.1503 9.84974 44 22 44Z" fill="#FF492C"/>
<path d="M31.5215 16.852H27.7639C27.8651 16.2624 28.2303 15.9324 28.9695 15.5584L29.6603 15.2064C30.8967 14.5728 31.5567 13.8556 31.5567 12.6852C31.5567 11.9504 31.2707 11.3696 30.7031 10.9516C30.1355 10.5336 29.4667 10.3268 28.6835 10.3268C28.0776 10.3197 27.4828 10.4894 26.9719 10.8152C26.4571 11.132 26.0743 11.5412 25.8367 12.0516L26.9235 13.1428C27.3459 12.2892 27.9575 11.8712 28.7627 11.8712C29.4447 11.8712 29.8627 12.2232 29.8627 12.7116C29.8627 13.1208 29.6603 13.4596 28.8771 13.8556L28.4327 14.0712C27.4691 14.5596 26.8003 15.1184 26.4131 15.752C26.0259 16.3856 25.8367 17.182 25.8367 18.1456V18.4096H31.5215V16.852ZM31.0199 20.2048H24.7983L21.6875 25.5904H27.9091L31.0199 30.9804L34.1307 25.5904L31.0199 20.2048Z" fill="white"/>
<path d="M22.2244 29.1852C18.2644 29.1852 15.0392 25.96 15.0392 22C15.0392 18.04 18.2644 14.8148 22.2244 14.8148L24.684 9.6712C23.874 9.51014 23.0502 9.42908 22.2244 9.4292C15.2812 9.4292 9.65356 15.0568 9.65356 22C9.65356 28.9432 15.2812 34.5708 22.2244 34.5708C24.8851 34.5758 27.478 33.731 29.6252 32.1596L26.906 27.4428C25.6051 28.5665 23.9434 29.185 22.2244 29.1852Z" fill="white"/>
</g>
<defs>
<clipPath id="clip0_779_36">
<rect width="44" height="44" fill="white"/>
</clipPath>
</defs>
</svg>
