<svg width="48" height="48" viewBox="0 0 48 48" fill="none" xmlns="http://www.w3.org/2000/svg">
<path d="M47.0592 22.6778L26.0376 2.34583L24 0.375L8.17578 15.6801L0.940747 22.6778C0.186418 23.4084 0.186418 24.5916 0.940747 25.3222L15.398 39.3051L24 47.625L39.8242 32.3199L40.0692 32.083L47.0592 25.3222C47.8137 24.5916 47.8137 23.4084 47.0592 22.6778ZM24 30.9852L16.7778 24L24 17.0148L31.2222 24L24 30.9852Z" fill="#2684FF"/>
<path fill-rule="evenodd" clip-rule="evenodd" d="M23.9999 17.0148C19.2716 12.4408 19.2485 5.03241 23.9485 0.43103L8.14355 15.7112L16.7456 24.0311L23.9999 17.0148Z" fill="url(#paint0_linear_781_30)"/>
<path fill-rule="evenodd" clip-rule="evenodd" d="M31.2414 23.9811L24 30.9849C26.2823 33.1911 27.5647 36.1841 27.5647 39.3048C27.5647 42.4256 26.2823 45.4186 24 47.6248L39.8436 32.301L31.2414 23.9811Z" fill="url(#paint1_linear_781_30)"/>
<defs>
<linearGradient id="paint0_linear_781_30" x1="22.7104" y1="9.9484" x2="10.6629" y2="15.2085" gradientUnits="userSpaceOnUse">
<stop offset="0.18" stop-color="#0052CC"/>
<stop offset="1" stop-color="#2684FF"/>
</linearGradient>
<linearGradient id="paint1_linear_781_30" x1="25.3799" y1="37.9701" x2="37.4057" y2="32.7473" gradientUnits="userSpaceOnUse">
<stop offset="0.18" stop-color="#0052CC"/>
<stop offset="1" stop-color="#2684FF"/>
</linearGradient>
</defs>
</svg>
