<svg width="40" height="40" viewBox="0 0 40 40" fill="none" xmlns="http://www.w3.org/2000/svg">
<g clip-path="url(#clip0_780_20)">
<path fill-rule="evenodd" clip-rule="evenodd" d="M14.6658 0C12.4547 0.00163099 10.6651 1.79246 10.6668 3.99918C10.6651 6.20591 12.4563 7.99674 14.6674 7.99837H18.6681V4.00082C18.6697 1.79409 16.8786 0.00326198 14.6658 0C14.6674 0 14.6674 0 14.6658 0ZM14.6658 10.6667H4.00066C1.78951 10.6683 -0.00162979 12.4591 4.46621e-06 14.6659C-0.00326404 16.8726 1.78788 18.6634 3.99902 18.6667H14.6658C16.8769 18.665 18.6681 16.8742 18.6665 14.6675C18.6681 12.4591 16.8769 10.6683 14.6658 10.6667Z" fill="#36C5F0"/>
<path fill-rule="evenodd" clip-rule="evenodd" d="M39.9999 14.6659C40.0016 12.4591 38.2104 10.6683 35.9993 10.6667C33.7881 10.6683 31.997 12.4591 31.9986 14.6659V18.6667H35.9993C38.2104 18.665 40.0016 16.8742 39.9999 14.6659ZM29.3332 14.6659V3.99918C29.3348 1.79409 27.5453 0.00326198 25.3342 0C23.123 0.00163099 21.3319 1.79246 21.3335 3.99918V14.6659C21.3302 16.8726 23.1214 18.6634 25.3325 18.6667C27.5437 18.665 29.3348 16.8742 29.3332 14.6659Z" fill="#2EB67D"/>
<path fill-rule="evenodd" clip-rule="evenodd" d="M25.3327 40C27.5438 39.9984 29.335 38.2076 29.3333 36.0008C29.335 33.7941 27.5438 32.0033 25.3327 32.0017H21.332V36.0008C21.3304 38.2059 23.1215 39.9968 25.3327 40ZM25.3327 29.3317H35.9995C38.2106 29.3301 40.0018 27.5393 40.0001 25.3325C40.0034 23.1258 38.2122 21.335 36.0011 21.3317H25.3343C23.1232 21.3334 21.332 23.1242 21.3337 25.3309C21.332 27.5393 23.1215 29.3301 25.3327 29.3317Z" fill="#ECB22E"/>
<path fill-rule="evenodd" clip-rule="evenodd" d="M1.11744e-06 25.3325C-0.00163314 27.5392 1.78951 29.3301 4.00065 29.3317C6.2118 29.3301 8.00294 27.5392 8.00131 25.3325V21.3333H4.00065C1.78951 21.3349 -0.00163314 23.1258 1.11744e-06 25.3325ZM10.6668 25.3325V35.9992C10.6635 38.2059 12.4547 39.9967 14.6658 40C16.8769 39.9983 18.6681 38.2075 18.6664 36.0008V25.3358C18.6697 23.129 16.8786 21.3382 14.6674 21.3349C12.4547 21.3349 10.6651 23.1258 10.6668 25.3325Z" fill="#E01E5A"/>
</g>
<defs>
<clipPath id="clip0_780_20">
<rect width="40" height="40" fill="white"/>
</clipPath>
</defs>
</svg>
