<?xml version="1.0" encoding="utf-8"?>
<!-- Generator: Adobe Illustrator 27.7.0, SVG Export Plug-In . SVG Version: 6.00 Build 0)  -->
<svg version="1.1" id="Layer_1" xmlns="http://www.w3.org/2000/svg" xmlns:xlink="http://www.w3.org/1999/xlink" x="0px" y="0px"
	 viewBox="0 0 650 450" style="enable-background:new 0 0 650 450;" xml:space="preserve">
<style type="text/css">
	.st0{fill:#FFFFFF;}
	.st1{fill:#F28C70;}
	.st2{fill:#F5A38D;}
	.st3{fill:#F7B4A2;}
	.st4{fill:#F8C5B7;}
	.st5{opacity:0.8;fill:url(#SVGID_1_);enable-background:new    ;}
	.st6{opacity:0.8;fill:url(#SVGID_00000095309266018422193180000009691606934413391033_);enable-background:new    ;}
	.st7{opacity:0.8;fill:url(#SVGID_00000063606807669818621590000011093445228463453584_);enable-background:new    ;}
	.st8{opacity:0.8;fill:url(#SVGID_00000023996303719409261700000004116664467067053992_);enable-background:new    ;}
	.st9{fill:none;stroke:#F28C70;stroke-width:3.32;stroke-linecap:round;stroke-miterlimit:10;}
	.st10{fill:none;stroke:#F5A38D;stroke-width:3.32;stroke-linecap:round;stroke-miterlimit:10;}
	.st11{fill:none;stroke:#F7B4A2;stroke-width:3.32;stroke-linecap:round;stroke-miterlimit:10;}
	.st12{fill:none;stroke:#F8C5B7;stroke-width:3.32;stroke-linecap:round;stroke-miterlimit:10;}
	.st13{fill:#F5775C;}
</style>
<g id="layer_1">
	<g>
		
			<image style="overflow:visible;opacity:0.25;" width="506" height="336" xlink:href="E66FF7EC5A8BF824.png"  transform="matrix(1 0 0 1 80 65)">
		</image>
		<g>
			<g>
				<path class="st0" d="M562.9,85.1v279.8c0,7-5.7,12.6-12.8,12.6H99.8c-7,0-12.8-5.7-12.8-12.6V85.1c0-7,5.7-12.6,12.8-12.6h450.4
					C557.2,72.5,563,78.1,562.9,85.1L562.9,85.1z"/>
			</g>
		</g>
	</g>
	<path class="st1" d="M132.3,170.6h32.3c3.3,0,6,2.7,6,6v7.6c0,3.3-2.7,6-6,6h-32.3c-3.3,0-6-2.7-6-6v-7.6
		C126.3,173.3,129,170.6,132.3,170.6z"/>
	<path class="st2" d="M132.3,196.9h32.3c3.3,0,6,2.7,6,6v7.6c0,3.3-2.7,6-6,6h-32.3c-3.3,0-6-2.7-6-6v-7.6
		C126.3,199.5,129,196.9,132.3,196.9z"/>
	<path class="st3" d="M132.3,223.1h32.3c3.3,0,6,2.7,6,6v7.6c0,3.3-2.7,6-6,6h-32.3c-3.3,0-6-2.7-6-6v-7.6
		C126.3,225.8,129,223.1,132.3,223.1z"/>
	<path class="st4" d="M132.3,249.4h32.3c3.3,0,6,2.7,6,6v7.6c0,3.3-2.7,6-6,6h-32.3c-3.3,0-6-2.7-6-6v-7.6
		C126.3,252.1,129,249.4,132.3,249.4z"/>
	
		<linearGradient id="SVGID_1_" gradientUnits="userSpaceOnUse" x1="317.19" y1="126.09" x2="317.19" y2="246.43" gradientTransform="matrix(1 0 0 -1 0 452)">
		<stop  offset="0" style="stop-color:#FFFFFF;stop-opacity:0"/>
		<stop  offset="9.000000e-02" style="stop-color:#FEFAF9;stop-opacity:5.000000e-02"/>
		<stop  offset="0.27" style="stop-color:#FDF0EC;stop-opacity:0.2"/>
		<stop  offset="0.5" style="stop-color:#FBDED7;stop-opacity:0.43"/>
		<stop  offset="0.78" style="stop-color:#F9C7BA;stop-opacity:0.74"/>
		<stop  offset="1" style="stop-color:#F7B4A2"/>
	</linearGradient>
	<polygon class="st5" points="137.4,330.9 208.9,299.1 280.5,268 352.1,242.1 423.5,219.1 497,199.8 497,330.9 	"/>
	
		<linearGradient id="SVGID_00000132794865838218128770000008745244759519872426_" gradientUnits="userSpaceOnUse" x1="317.19" y1="126.43" x2="317.19" y2="243.81" gradientTransform="matrix(1 0 0 -1 0 452)">
		<stop  offset="0" style="stop-color:#FFFFFF;stop-opacity:0"/>
		<stop  offset="0.21" style="stop-color:#FDEDE9;stop-opacity:0.21"/>
		<stop  offset="0.6" style="stop-color:#F9CEC3;stop-opacity:0.58"/>
		<stop  offset="0.87" style="stop-color:#F7BBAB;stop-opacity:0.81"/>
		<stop  offset="1" style="stop-color:#F7B4A2;stop-opacity:0.9"/>
	</linearGradient>
	
		<polygon style="opacity:0.8;fill:url(#SVGID_00000132794865838218128770000008745244759519872426_);enable-background:new    ;" points="
		137.4,330.9 209,307.3 280.9,284.2 352,268 423.5,251.9 497,239.9 497,330.9 	"/>
	
		<linearGradient id="SVGID_00000163763405755666665620000015529185816598154392_" gradientUnits="userSpaceOnUse" x1="317.19" y1="121.13" x2="317.19" y2="242.76" gradientTransform="matrix(1 0 0 -1 0 452)">
		<stop  offset="0" style="stop-color:#FFFFFF;stop-opacity:0"/>
		<stop  offset="0.12" style="stop-color:#FDEEEB;stop-opacity:0.17"/>
		<stop  offset="0.27" style="stop-color:#FBDDD4;stop-opacity:0.36"/>
		<stop  offset="0.43" style="stop-color:#F9CEC2;stop-opacity:0.52"/>
		<stop  offset="0.58" style="stop-color:#F8C2B4;stop-opacity:0.64"/>
		<stop  offset="0.73" style="stop-color:#F7BAAA;stop-opacity:0.73"/>
		<stop  offset="0.87" style="stop-color:#F7B5A4;stop-opacity:0.78"/>
		<stop  offset="1" style="stop-color:#F7B4A2;stop-opacity:0.8"/>
	</linearGradient>
	
		<polygon style="opacity:0.8;fill:url(#SVGID_00000163763405755666665620000015529185816598154392_);enable-background:new    ;" points="
		137.4,330.9 209,315.4 280.9,300.4 352,292.1 423.5,282.3 497,276.4 497,330.9 	"/>
	
		<linearGradient id="SVGID_00000069369104085038183580000001985344257038270877_" gradientUnits="userSpaceOnUse" x1="317.19" y1="121.13" x2="317.19" y2="246.26" gradientTransform="matrix(1 0 0 -1 0 452)">
		<stop  offset="0" style="stop-color:#FFFFFF;stop-opacity:0"/>
		<stop  offset="2.000000e-02" style="stop-color:#FEF7F5;stop-opacity:7.000000e-02"/>
		<stop  offset="7.000000e-02" style="stop-color:#FCE7E1;stop-opacity:0.22"/>
		<stop  offset="0.13" style="stop-color:#FBD9D0;stop-opacity:0.35"/>
		<stop  offset="0.19" style="stop-color:#F9CDC1;stop-opacity:0.46"/>
		<stop  offset="0.26" style="stop-color:#F8C4B6;stop-opacity:0.55"/>
		<stop  offset="0.35" style="stop-color:#F7BCAD;stop-opacity:0.62"/>
		<stop  offset="0.45" style="stop-color:#F7B7A6;stop-opacity:0.66"/>
		<stop  offset="0.6" style="stop-color:#F7B4A3;stop-opacity:0.69"/>
		<stop  offset="1" style="stop-color:#F7B4A2;stop-opacity:0.7"/>
	</linearGradient>
	
		<polygon style="opacity:0.8;fill:url(#SVGID_00000069369104085038183580000001985344257038270877_);enable-background:new    ;" points="
		137.4,330.9 209,323.2 280.9,316 352,312.6 423.5,307.8 497,306 497,330.4 	"/>
	<path d="M133.9,160.6c-0.6,0-1.1-0.1-1.6-0.4c-0.4-0.3-0.8-0.6-1-1.1s-0.4-1-0.4-1.7s0.1-1.2,0.4-1.7s0.6-0.9,1-1.1s1-0.4,1.6-0.4
		c0.7,0,1.3,0.2,1.7,0.5c0.4,0.3,0.7,0.8,0.9,1.4h-0.8c-0.1-0.4-0.3-0.7-0.6-0.9s-0.7-0.4-1.2-0.4c-0.4,0-0.8,0.1-1.2,0.3
		c-0.3,0.2-0.6,0.5-0.8,0.9c-0.2,0.4-0.3,0.8-0.3,1.4s0.1,1,0.3,1.4c0.2,0.4,0.4,0.7,0.8,0.9c0.3,0.2,0.7,0.3,1.2,0.3
		c0.5,0,0.9-0.1,1.2-0.3s0.5-0.5,0.6-0.9h0.8c-0.1,0.6-0.4,1.1-0.9,1.4C135.1,160.5,134.6,160.6,133.9,160.6L133.9,160.6z"/>
	<path d="M139.2,160.6c-0.5,0-0.9-0.2-1.2-0.5c-0.3-0.3-0.5-0.8-0.5-1.5v-2.6h0.7v2.5c0,0.9,0.4,1.4,1.1,1.4c0.4,0,0.7-0.1,0.9-0.4
		s0.4-0.7,0.4-1.2v-2.3h0.7v4.4h-0.7l-0.1-0.8c-0.1,0.3-0.3,0.5-0.6,0.7S139.5,160.6,139.2,160.6L139.2,160.6z"/>
	<path d="M144.5,160.6c-0.5,0-1-0.1-1.3-0.4c-0.4-0.3-0.6-0.6-0.6-1.1h0.8c0.1,0.2,0.2,0.4,0.4,0.6c0.2,0.2,0.5,0.2,0.8,0.2
		c0.3,0,0.5-0.1,0.7-0.2s0.2-0.3,0.2-0.5c0-0.3-0.1-0.4-0.3-0.5c-0.2-0.1-0.5-0.2-0.8-0.2c-0.2-0.1-0.5-0.1-0.7-0.2
		s-0.4-0.2-0.6-0.4c-0.2-0.2-0.2-0.4-0.2-0.6c0-0.4,0.1-0.7,0.4-0.9s0.7-0.4,1.2-0.4s0.9,0.1,1.1,0.4c0.3,0.2,0.5,0.6,0.5,1h-0.7
		c0-0.2-0.1-0.4-0.3-0.5c-0.2-0.1-0.4-0.2-0.6-0.2s-0.5,0.1-0.6,0.2s-0.2,0.3-0.2,0.4s0.1,0.3,0.3,0.4s0.4,0.2,0.8,0.3
		c0.3,0.1,0.5,0.1,0.8,0.2s0.4,0.2,0.6,0.4c0.2,0.2,0.2,0.4,0.2,0.7c0,0.4-0.1,0.7-0.4,1S145,160.7,144.5,160.6L144.5,160.6z"/>
	<path d="M149,160.5c-0.4,0-0.7-0.1-0.9-0.3c-0.2-0.2-0.4-0.6-0.4-1.1v-2.4h-0.8v-0.6h0.8l0.1-1.1h0.6v1.1h1.3v0.6h-1.3v2.4
		c0,0.3,0.1,0.5,0.2,0.6c0.1,0.1,0.3,0.1,0.6,0.1h0.5v0.6L149,160.5L149,160.5z"/>
	<path d="M152.7,160.6c-0.4,0-0.8-0.1-1.1-0.3s-0.6-0.5-0.8-0.8s-0.3-0.8-0.3-1.2s0.1-0.9,0.3-1.2c0.2-0.4,0.5-0.6,0.8-0.8
		c0.3-0.2,0.7-0.3,1.1-0.3s0.8,0.1,1.1,0.3s0.6,0.5,0.8,0.8c0.2,0.4,0.3,0.8,0.3,1.2s-0.1,0.9-0.3,1.2c-0.2,0.4-0.5,0.6-0.8,0.8
		C153.4,160.5,153.1,160.6,152.7,160.6z M152.7,160c0.2,0,0.5-0.1,0.7-0.2c0.2-0.1,0.4-0.3,0.5-0.6s0.2-0.6,0.2-0.9
		s-0.1-0.7-0.2-0.9c-0.1-0.2-0.3-0.4-0.5-0.6s-0.4-0.2-0.7-0.2s-0.5,0.1-0.7,0.2s-0.4,0.3-0.5,0.6s-0.2,0.6-0.2,0.9s0.1,0.7,0.2,0.9
		s0.3,0.4,0.5,0.6C152.2,159.9,152.4,160,152.7,160z"/>
	<path d="M156.1,160.5v-4.4h0.7l0.1,0.6c0.1-0.2,0.3-0.4,0.6-0.6s0.5-0.2,0.8-0.2c0.4,0,0.6,0.1,0.9,0.2s0.4,0.4,0.6,0.6
		c0.1-0.3,0.4-0.5,0.6-0.6s0.6-0.2,0.9-0.2c0.5,0,0.9,0.2,1.3,0.5c0.3,0.3,0.5,0.8,0.5,1.5v2.6h-0.7V158c0-0.5-0.1-0.8-0.3-1
		c-0.2-0.2-0.4-0.4-0.8-0.4s-0.6,0.1-0.9,0.4s-0.4,0.7-0.4,1.2v2.3h-0.7V158c0-0.5-0.1-0.8-0.3-1c-0.2-0.2-0.4-0.4-0.8-0.4
		s-0.6,0.1-0.9,0.4s-0.4,0.7-0.4,1.2v2.3L156.1,160.5L156.1,160.5z"/>
	<path d="M166.1,160.6c-0.4,0-0.8-0.1-1.1-0.3c-0.3-0.2-0.6-0.5-0.8-0.8s-0.3-0.8-0.3-1.2s0.1-0.9,0.3-1.2c0.2-0.4,0.4-0.6,0.8-0.8
		c0.3-0.2,0.7-0.3,1.1-0.3s0.8,0.1,1.1,0.3c0.3,0.2,0.6,0.4,0.7,0.8c0.2,0.3,0.2,0.6,0.2,1c0,0.1,0,0.1,0,0.2c0,0.1,0,0.1,0,0.2
		h-3.5c0,0.3,0.1,0.6,0.2,0.8c0.1,0.2,0.3,0.4,0.5,0.5s0.4,0.2,0.7,0.2c0.3,0,0.6-0.1,0.8-0.2s0.4-0.3,0.4-0.6h0.7
		c-0.1,0.4-0.3,0.8-0.7,1C167.1,160.5,166.6,160.6,166.1,160.6L166.1,160.6z M166.1,156.7c-0.4,0-0.7,0.1-0.9,0.3s-0.4,0.5-0.5,0.9
		h2.8c0-0.4-0.1-0.7-0.4-0.9C166.8,156.8,166.5,156.6,166.1,156.7L166.1,156.7z"/>
	<path d="M169.4,160.5v-4.4h0.7l0.1,0.8c0.1-0.3,0.3-0.5,0.6-0.7s0.6-0.3,1-0.3v0.8h-0.2c-0.3,0-0.5,0.1-0.7,0.1s-0.4,0.2-0.5,0.5
		c-0.1,0.2-0.2,0.5-0.2,0.9v2.2L169.4,160.5L169.4,160.5z"/>
	<path d="M175,160.5v-6.2h2c0.5,0,0.9,0.1,1.2,0.2s0.5,0.4,0.7,0.7s0.2,0.6,0.2,0.9c0,0.4-0.1,0.7-0.3,1.1c-0.2,0.3-0.5,0.5-1,0.7
		l1.4,2.7h-0.9L177,158h-1.3v2.6L175,160.5L175,160.5z M175.7,157.4h1.2c0.5,0,0.8-0.1,1-0.4c0.2-0.2,0.3-0.5,0.3-0.9
		s-0.1-0.7-0.3-0.9c-0.2-0.2-0.6-0.3-1.1-0.3h-1.2L175.7,157.4L175.7,157.4z"/>
	<path d="M182.1,160.6c-0.4,0-0.8-0.1-1.1-0.3c-0.3-0.2-0.6-0.5-0.8-0.8s-0.3-0.8-0.3-1.2s0.1-0.9,0.3-1.2c0.2-0.4,0.4-0.6,0.8-0.8
		c0.3-0.2,0.7-0.3,1.1-0.3s0.8,0.1,1.1,0.3c0.3,0.2,0.6,0.4,0.7,0.8c0.2,0.3,0.2,0.6,0.2,1c0,0.1,0,0.1,0,0.2c0,0.1,0,0.1,0,0.2
		h-3.5c0,0.3,0.1,0.6,0.2,0.8c0.1,0.2,0.3,0.4,0.5,0.5s0.4,0.2,0.7,0.2c0.3,0,0.6-0.1,0.8-0.2s0.4-0.3,0.4-0.6h0.7
		c-0.1,0.4-0.3,0.8-0.7,1C183.1,160.5,182.6,160.6,182.1,160.6L182.1,160.6z M182.1,156.7c-0.4,0-0.7,0.1-0.9,0.3s-0.4,0.5-0.5,0.9
		h2.8c0-0.4-0.1-0.7-0.4-0.9C182.8,156.8,182.5,156.6,182.1,156.7L182.1,156.7z"/>
	<path d="M187,160.5c-0.4,0-0.7-0.1-0.9-0.3c-0.2-0.2-0.4-0.6-0.4-1.1v-2.4h-0.8v-0.6h0.8l0.1-1.1h0.6v1.1h1.3v0.6h-1.3v2.4
		c0,0.3,0.1,0.5,0.2,0.6c0.1,0.1,0.3,0.1,0.6,0.1h0.5v0.6L187,160.5L187,160.5z"/>
	<path d="M190.6,160.6c-0.4,0-0.8-0.1-1.1-0.3c-0.3-0.2-0.6-0.5-0.8-0.8s-0.3-0.8-0.3-1.2s0.1-0.9,0.3-1.2c0.2-0.4,0.4-0.6,0.8-0.8
		c0.3-0.2,0.7-0.3,1.1-0.3s0.8,0.1,1.1,0.3c0.3,0.2,0.6,0.4,0.7,0.8c0.2,0.3,0.2,0.6,0.2,1c0,0.1,0,0.1,0,0.2c0,0.1,0,0.1,0,0.2
		h-3.5c0,0.3,0.1,0.6,0.2,0.8c0.1,0.2,0.3,0.4,0.5,0.5s0.4,0.2,0.7,0.2c0.3,0,0.6-0.1,0.8-0.2s0.4-0.3,0.4-0.6h0.7
		c-0.1,0.4-0.3,0.8-0.7,1C191.6,160.5,191.1,160.6,190.6,160.6L190.6,160.6z M190.6,156.7c-0.4,0-0.7,0.1-0.9,0.3s-0.4,0.5-0.5,0.9
		h2.8c0-0.4-0.1-0.7-0.4-0.9C191.3,156.8,191,156.6,190.6,156.7L190.6,156.7z"/>
	<path d="M193.9,160.5v-4.4h0.7l0,0.8c0.1-0.3,0.4-0.5,0.6-0.7s0.6-0.2,0.9-0.2c0.5,0,0.9,0.2,1.2,0.5c0.3,0.3,0.5,0.8,0.5,1.5v2.6
		H197V158c0-0.9-0.4-1.4-1.1-1.4c-0.4,0-0.7,0.1-0.9,0.4s-0.4,0.7-0.4,1.2v2.3H193.9L193.9,160.5z"/>
	<path d="M200.7,160.5c-0.4,0-0.7-0.1-0.9-0.3c-0.2-0.2-0.4-0.6-0.4-1.1v-2.4h-0.8v-0.6h0.8l0.1-1.1h0.6v1.1h1.3v0.6h-1.3v2.4
		c0,0.3,0.1,0.5,0.2,0.6c0.1,0.1,0.3,0.1,0.6,0.1h0.5v0.6L200.7,160.5L200.7,160.5z"/>
	<path d="M202.9,155.1c-0.1,0-0.3-0.1-0.4-0.1c-0.1-0.1-0.1-0.2-0.1-0.4s0.1-0.3,0.1-0.4c0.1-0.1,0.2-0.1,0.4-0.1s0.3,0.1,0.4,0.1
		s0.1,0.2,0.1,0.4s-0.1,0.3-0.1,0.4C203.2,155.1,203,155.1,202.9,155.1z M202.5,160.5v-4.4h0.7v4.4H202.5z"/>
	<path d="M206.7,160.6c-0.4,0-0.8-0.1-1.1-0.3s-0.6-0.5-0.8-0.8s-0.3-0.8-0.3-1.2s0.1-0.9,0.3-1.2c0.2-0.4,0.5-0.6,0.8-0.8
		c0.3-0.2,0.7-0.3,1.1-0.3s0.8,0.1,1.1,0.3s0.6,0.5,0.8,0.8c0.2,0.4,0.3,0.8,0.3,1.2s-0.1,0.9-0.3,1.2c-0.2,0.4-0.5,0.6-0.8,0.8
		C207.4,160.5,207.1,160.6,206.7,160.6z M206.7,160c0.2,0,0.5-0.1,0.7-0.2c0.2-0.1,0.4-0.3,0.5-0.6s0.2-0.6,0.2-0.9
		s-0.1-0.7-0.2-0.9c-0.1-0.2-0.3-0.4-0.5-0.6s-0.4-0.2-0.7-0.2s-0.5,0.1-0.7,0.2s-0.4,0.3-0.5,0.6s-0.2,0.6-0.2,0.9s0.1,0.7,0.2,0.9
		s0.3,0.4,0.5,0.6C206.2,159.9,206.4,160,206.7,160z"/>
	<path d="M210.1,160.5v-4.4h0.7l0,0.8c0.1-0.3,0.4-0.5,0.6-0.7s0.6-0.2,0.9-0.2c0.5,0,0.9,0.2,1.2,0.5c0.3,0.3,0.5,0.8,0.5,1.5v2.6
		h-0.7V158c0-0.9-0.4-1.4-1.1-1.4c-0.4,0-0.7,0.1-0.9,0.4s-0.4,0.7-0.4,1.2v2.3H210.1L210.1,160.5z"/>
	<path d="M217.5,160.5v-6.2h2c0.5,0,0.9,0.1,1.2,0.2s0.5,0.4,0.7,0.7s0.2,0.6,0.2,0.9c0,0.4-0.1,0.7-0.3,1.1c-0.2,0.3-0.5,0.5-1,0.7
		l1.4,2.7h-0.9l-1.3-2.6h-1.3v2.6L217.5,160.5L217.5,160.5z M218.2,157.4h1.2c0.5,0,0.8-0.1,1-0.4c0.2-0.2,0.3-0.5,0.3-0.9
		s-0.1-0.7-0.3-0.9c-0.2-0.2-0.6-0.3-1.1-0.3h-1.2L218.2,157.4L218.2,157.4z"/>
	<path d="M224.2,160.6c-0.4,0-0.7-0.1-0.9-0.2s-0.4-0.3-0.5-0.5s-0.2-0.4-0.2-0.7c0-0.4,0.2-0.8,0.5-1c0.3-0.2,0.8-0.4,1.4-0.4h1.2
		v-0.1c0-0.4-0.1-0.7-0.3-0.9s-0.5-0.3-0.8-0.3c-0.3,0-0.5,0.1-0.8,0.2c-0.2,0.1-0.3,0.4-0.4,0.6h-0.8c0-0.3,0.1-0.6,0.3-0.8
		c0.2-0.2,0.4-0.4,0.7-0.5s0.6-0.2,0.9-0.2c0.6,0,1.1,0.2,1.4,0.5s0.5,0.8,0.5,1.3v2.7h-0.7l0-0.8c-0.1,0.2-0.3,0.5-0.5,0.6
		C224.9,160.5,224.6,160.6,224.2,160.6L224.2,160.6z M224.3,160c0.3,0,0.5-0.1,0.7-0.2s0.4-0.3,0.5-0.6c0.1-0.2,0.2-0.5,0.2-0.7l0,0
		h-1.1c-0.4,0-0.8,0.1-0.9,0.2s-0.3,0.3-0.3,0.6s0.1,0.4,0.2,0.6S224,160,224.3,160L224.3,160z"/>
	<path d="M229.3,160.5c-0.4,0-0.7-0.1-0.9-0.3c-0.2-0.2-0.4-0.6-0.4-1.1v-2.4h-0.8v-0.6h0.8l0.1-1.1h0.6v1.1h1.3v0.6h-1.3v2.4
		c0,0.3,0.1,0.5,0.2,0.6c0.1,0.1,0.3,0.1,0.6,0.1h0.5v0.6L229.3,160.5L229.3,160.5z"/>
	<path d="M233,160.6c-0.4,0-0.8-0.1-1.1-0.3c-0.3-0.2-0.6-0.5-0.8-0.8s-0.3-0.8-0.3-1.2s0.1-0.9,0.3-1.2c0.2-0.4,0.4-0.6,0.8-0.8
		c0.3-0.2,0.7-0.3,1.1-0.3s0.8,0.1,1.1,0.3c0.3,0.2,0.6,0.4,0.7,0.8c0.2,0.3,0.2,0.6,0.2,1c0,0.1,0,0.1,0,0.2c0,0.1,0,0.1,0,0.2
		h-3.5c0,0.3,0.1,0.6,0.2,0.8c0.1,0.2,0.3,0.4,0.5,0.5s0.4,0.2,0.7,0.2c0.3,0,0.6-0.1,0.8-0.2s0.4-0.3,0.4-0.6h0.7
		c-0.1,0.4-0.3,0.8-0.7,1C233.9,160.5,233.5,160.6,233,160.6L233,160.6z M233,156.7c-0.4,0-0.7,0.1-0.9,0.3s-0.4,0.5-0.5,0.9h2.8
		c0-0.4-0.1-0.7-0.4-0.9C233.7,156.8,233.3,156.6,233,156.7L233,156.7z"/>
	<path d="M237.8,160.6c-0.5,0-1-0.1-1.3-0.4c-0.4-0.3-0.6-0.6-0.6-1.1h0.8c0.1,0.2,0.2,0.4,0.4,0.6c0.2,0.2,0.5,0.2,0.8,0.2
		c0.3,0,0.5-0.1,0.7-0.2s0.2-0.3,0.2-0.5c0-0.3-0.1-0.4-0.3-0.5c-0.2-0.1-0.5-0.2-0.8-0.2c-0.2-0.1-0.5-0.1-0.7-0.2
		s-0.4-0.2-0.6-0.4c-0.2-0.2-0.2-0.4-0.2-0.6c0-0.4,0.1-0.7,0.4-0.9s0.7-0.4,1.2-0.4s0.9,0.1,1.1,0.4c0.3,0.2,0.5,0.6,0.5,1h-0.7
		c0-0.2-0.1-0.4-0.3-0.5c-0.2-0.1-0.4-0.2-0.6-0.2s-0.5,0.1-0.6,0.2s-0.2,0.3-0.2,0.4s0.1,0.3,0.3,0.4s0.4,0.2,0.8,0.3
		c0.3,0.1,0.5,0.1,0.8,0.2s0.4,0.2,0.6,0.4c0.2,0.2,0.2,0.4,0.2,0.7c0,0.4-0.1,0.7-0.4,1S238.3,160.7,237.8,160.6L237.8,160.6z"/>
	<path class="st1" d="M307.2,365.9v-2.4l-2-3.8h0.8l1.5,3.1l1.5-3.1h0.8l-2,3.8v2.4H307.2L307.2,365.9z"/>
	<path class="st1" d="M312.2,366c-0.4,0-0.8-0.1-1.1-0.3c-0.3-0.2-0.6-0.5-0.8-0.8s-0.3-0.8-0.3-1.2s0.1-0.9,0.3-1.2
		s0.4-0.6,0.8-0.8c0.3-0.2,0.7-0.3,1.1-0.3s0.8,0.1,1.1,0.3s0.5,0.4,0.7,0.8c0.2,0.3,0.2,0.6,0.2,1c0,0.1,0,0.1,0,0.2
		c0,0.1,0,0.1,0,0.2h-3.5c0,0.3,0.1,0.6,0.2,0.8c0.1,0.2,0.3,0.4,0.5,0.5s0.4,0.2,0.7,0.2c0.3,0,0.6-0.1,0.8-0.2s0.4-0.3,0.5-0.6
		h0.7c-0.1,0.4-0.3,0.8-0.7,1C313.1,365.8,312.7,366,312.2,366L312.2,366z M312.2,362c-0.4,0-0.7,0.1-0.9,0.3s-0.4,0.5-0.5,0.9h2.8
		c0-0.4-0.1-0.7-0.4-0.9C312.9,362.1,312.6,362,312.2,362L312.2,362z"/>
	<path class="st1" d="M316.9,366c-0.4,0-0.7-0.1-0.9-0.2s-0.4-0.3-0.5-0.5s-0.2-0.4-0.2-0.7c0-0.5,0.2-0.8,0.5-1
		c0.3-0.2,0.8-0.4,1.4-0.4h1.2v0c0-0.4-0.1-0.7-0.3-0.9c-0.2-0.2-0.5-0.3-0.8-0.3c-0.3,0-0.5,0.1-0.8,0.2c-0.2,0.1-0.3,0.4-0.4,0.6
		h-0.8c0-0.3,0.1-0.6,0.3-0.8c0.2-0.2,0.4-0.4,0.7-0.5s0.6-0.2,0.9-0.2c0.6,0,1.1,0.2,1.4,0.5c0.3,0.3,0.5,0.8,0.5,1.3v2.7h-0.7
		l0-0.8c-0.1,0.2-0.3,0.5-0.5,0.6C317.6,365.9,317.3,366,316.9,366L316.9,366z M317,365.3c0.3,0,0.5-0.1,0.7-0.2s0.4-0.3,0.5-0.6
		c0.1-0.2,0.2-0.5,0.2-0.7l0,0h-1.1c-0.4,0-0.8,0.1-0.9,0.2s-0.3,0.3-0.3,0.6s0.1,0.4,0.2,0.5S316.7,365.4,317,365.3L317,365.3z"/>
	<path class="st1" d="M320.4,365.9v-4.4h0.7l0.1,0.8c0.1-0.3,0.3-0.5,0.6-0.7s0.6-0.3,1-0.3v0.8h-0.2c-0.3,0-0.5,0-0.7,0.1
		c-0.2,0.1-0.4,0.2-0.5,0.5c-0.1,0.2-0.2,0.5-0.2,0.9v2.2L320.4,365.9L320.4,365.9z"/>
	<path class="st1" d="M325.4,366c-0.5,0-1-0.1-1.3-0.4s-0.5-0.6-0.6-1.1h0.8c0,0.2,0.2,0.4,0.4,0.6c0.2,0.2,0.5,0.2,0.8,0.2
		c0.3,0,0.5-0.1,0.7-0.2s0.2-0.3,0.2-0.5c0-0.3-0.1-0.4-0.3-0.5s-0.5-0.2-0.8-0.2c-0.2,0-0.5-0.1-0.7-0.2s-0.4-0.2-0.6-0.4
		c-0.2-0.2-0.2-0.4-0.2-0.6c0-0.4,0.1-0.7,0.4-0.9c0.3-0.2,0.7-0.4,1.2-0.4s0.9,0.1,1.1,0.4s0.5,0.6,0.5,1h-0.7
		c0-0.2-0.1-0.4-0.3-0.5c-0.2-0.1-0.4-0.2-0.6-0.2s-0.5,0.1-0.6,0.2c-0.1,0.1-0.2,0.3-0.2,0.4s0.1,0.3,0.3,0.4s0.4,0.2,0.8,0.3
		c0.3,0.1,0.5,0.1,0.8,0.2s0.5,0.2,0.6,0.4c0.2,0.2,0.2,0.4,0.2,0.7c0,0.4-0.1,0.7-0.5,1S325.9,366,325.4,366L325.4,366z"/>
	<path class="st1" d="M544.4,297.7l-6.2-2.3v-0.8l6.2-2.3v0.8l-1.6,0.6v2.6l1.6,0.6V297.7z M542.2,296.1v-2.2l-3.1,1.1L542.2,296.1z
		"/>
	<path class="st1" d="M544.4,291.4H540v-0.7l0.8,0c-0.3-0.1-0.5-0.4-0.7-0.6s-0.2-0.6-0.2-0.9c0-0.5,0.2-0.9,0.5-1.2
		c0.3-0.3,0.8-0.5,1.5-0.5h2.6v0.7h-2.5c-0.9,0-1.4,0.4-1.4,1.1c0,0.4,0.1,0.7,0.4,0.9s0.7,0.4,1.2,0.4h2.3V291.4L544.4,291.4z"/>
	<path class="st1" d="M544.4,286.1H540v-0.7l0.8,0c-0.3-0.1-0.5-0.4-0.7-0.6s-0.2-0.6-0.2-0.9c0-0.5,0.2-0.9,0.5-1.2
		c0.3-0.3,0.8-0.5,1.5-0.5h2.6v0.7h-2.5c-0.9,0-1.4,0.4-1.4,1.1c0,0.4,0.1,0.7,0.4,0.9s0.7,0.4,1.2,0.4h2.3V286.1L544.4,286.1z"/>
	<path class="st1" d="M544.5,279.2c0,0.5-0.2,0.9-0.5,1.2c-0.3,0.3-0.8,0.5-1.5,0.5H540v-0.7h2.5c0.9,0,1.4-0.4,1.4-1.1
		c0-0.4-0.1-0.7-0.4-1s-0.7-0.4-1.2-0.4H540V277h4.4v0.7l-0.8,0c0.3,0.1,0.5,0.3,0.7,0.6S544.5,278.9,544.5,279.2L544.5,279.2z"/>
	<path class="st1" d="M544.5,274.2c0,0.4-0.1,0.7-0.2,0.9s-0.3,0.4-0.5,0.5s-0.4,0.2-0.7,0.2c-0.5,0-0.8-0.2-1-0.5
		c-0.2-0.3-0.4-0.8-0.4-1.4v-1.2h0c-0.4,0-0.7,0.1-0.9,0.3c-0.2,0.2-0.3,0.5-0.3,0.8c0,0.3,0.1,0.5,0.2,0.8c0.1,0.2,0.4,0.3,0.6,0.4
		v0.8c-0.3,0-0.6-0.1-0.8-0.3c-0.2-0.2-0.4-0.4-0.5-0.7s-0.2-0.6-0.2-0.9c0-0.6,0.2-1.1,0.5-1.4c0.3-0.3,0.8-0.5,1.3-0.5h2.7v0.7
		l-0.8,0c0.2,0.1,0.5,0.3,0.6,0.5C544.4,273.4,544.5,273.8,544.5,274.2L544.5,274.2z M543.9,274.1c0-0.3-0.1-0.5-0.2-0.7
		c-0.2-0.2-0.3-0.4-0.6-0.5c-0.2-0.1-0.5-0.2-0.7-0.2l0,0v1.1c0,0.4,0.1,0.8,0.2,0.9s0.3,0.3,0.6,0.3s0.4-0.1,0.5-0.2
		S543.9,274.4,543.9,274.1L543.9,274.1z"/>
	<path class="st1" d="M544.4,270.6H538v-0.7h6.4V270.6z"/>
	<path class="st1" d="M544.5,263.6c0,0.6-0.1,1.1-0.4,1.5s-0.6,0.8-1.1,1s-1,0.4-1.7,0.4s-1.2-0.1-1.7-0.4c-0.5-0.2-0.9-0.6-1.1-1
		s-0.4-1-0.4-1.6c0-0.7,0.2-1.3,0.5-1.7c0.3-0.5,0.8-0.8,1.4-0.9v0.9c-0.4,0.1-0.7,0.3-0.9,0.6c-0.2,0.3-0.3,0.7-0.3,1.2
		c0,0.5,0.1,0.9,0.3,1.2c0.2,0.3,0.5,0.6,0.9,0.8c0.4,0.2,0.8,0.3,1.4,0.3s1-0.1,1.3-0.3c0.4-0.2,0.7-0.4,0.9-0.8
		c0.2-0.3,0.3-0.7,0.3-1.1c0-0.7-0.2-1.2-0.6-1.5s-0.9-0.5-1.6-0.6v1.8h-0.6v-2.5h3.3v0.7l-1,0.1c0.4,0.2,0.6,0.5,0.8,0.8
		C544.4,262.6,544.5,263.1,544.5,263.6L544.5,263.6z"/>
	<path class="st1" d="M544.4,259.4H540v-0.7l0.8-0.1c-0.3-0.1-0.5-0.3-0.7-0.6s-0.3-0.6-0.3-1h0.8v0.2c0,0.3,0,0.5,0.1,0.7
		s0.2,0.4,0.5,0.5c0.2,0.1,0.5,0.2,0.9,0.2h2.2L544.4,259.4L544.4,259.4z"/>
	<path class="st1" d="M544.5,254.1c0,0.4-0.1,0.8-0.3,1.1s-0.5,0.6-0.8,0.8s-0.8,0.3-1.2,0.3s-0.9-0.1-1.2-0.3s-0.6-0.5-0.8-0.8
		c-0.2-0.3-0.3-0.7-0.3-1.1s0.1-0.8,0.3-1.1s0.5-0.6,0.8-0.8c0.3-0.2,0.8-0.3,1.2-0.3s0.9,0.1,1.2,0.3c0.3,0.2,0.6,0.5,0.8,0.8
		C544.4,253.4,544.5,253.7,544.5,254.1z M543.9,254.1c0-0.2-0.1-0.5-0.2-0.7c-0.1-0.2-0.3-0.4-0.6-0.5s-0.5-0.2-0.9-0.2
		s-0.7,0.1-0.9,0.2c-0.2,0.1-0.4,0.3-0.6,0.5s-0.2,0.4-0.2,0.7s0.1,0.5,0.2,0.7s0.3,0.4,0.6,0.5s0.5,0.2,0.9,0.2s0.7-0.1,0.9-0.2
		s0.4-0.3,0.6-0.5C543.8,254.6,543.9,254.4,543.9,254.1z"/>
	<path class="st1" d="M544.4,250l-4.4,1.3v-0.7l3.5-0.9l-3.5-1v-0.8l3.5-1l-3.5-0.9V245l4.4,1.3v0.8l-3.6,1.1l3.6,1.1V250L544.4,250
		z"/>
	<path class="st1" d="M544.4,242.2c0,0.4-0.1,0.7-0.3,0.9c-0.2,0.2-0.5,0.4-1,0.4h-2.4v0.8H540v-0.8l-1-0.1v-0.6h1v-1.3h0.6v1.3h2.4
		c0.3,0,0.5-0.1,0.6-0.2s0.2-0.3,0.2-0.6v-0.5h0.6L544.4,242.2L544.4,242.2z"/>
	<path class="st1" d="M544.4,240.4H538v-0.7h2.7c-0.3-0.1-0.5-0.4-0.6-0.6s-0.2-0.6-0.2-0.9c0-0.5,0.2-0.9,0.5-1.2
		c0.3-0.3,0.8-0.5,1.5-0.5h2.6v0.7h-2.5c-0.9,0-1.4,0.4-1.4,1.1c0,0.4,0.1,0.7,0.4,1c0.3,0.3,0.7,0.4,1.2,0.4h2.3V240.4L544.4,240.4
		z"/>
	<path class="st1" d="M544.4,233h-6.2v-2c0-0.5,0.1-0.9,0.2-1.2s0.4-0.5,0.7-0.7s0.6-0.2,0.9-0.2c0.4,0,0.7,0.1,1,0.3
		c0.3,0.2,0.5,0.5,0.7,1l2.7-1.4v0.9l-2.6,1.3v1.3h2.6L544.4,233L544.4,233z M541.3,232.2V231c0-0.5-0.1-0.8-0.3-1
		c-0.2-0.2-0.5-0.3-0.9-0.3s-0.7,0.1-0.9,0.3c-0.2,0.2-0.3,0.6-0.3,1.1v1.2L541.3,232.2L541.3,232.2z"/>
	<path class="st1" d="M544.5,226.3c0,0.4-0.1,0.7-0.2,0.9s-0.3,0.4-0.5,0.5s-0.4,0.2-0.7,0.2c-0.5,0-0.8-0.2-1-0.5
		c-0.2-0.3-0.4-0.8-0.4-1.4v-1.2h0c-0.4,0-0.7,0.1-0.9,0.3s-0.3,0.5-0.3,0.8c0,0.3,0.1,0.5,0.2,0.8c0.1,0.2,0.4,0.3,0.6,0.4v0.8
		c-0.3,0-0.6-0.1-0.8-0.3c-0.2-0.2-0.4-0.4-0.5-0.7s-0.2-0.6-0.2-0.9c0-0.6,0.2-1.1,0.5-1.4s0.8-0.5,1.3-0.5h2.7v0.7l-0.8,0
		c0.2,0.1,0.5,0.3,0.6,0.5C544.4,225.5,544.5,225.8,544.5,226.3L544.5,226.3z M543.9,226.2c0-0.3-0.1-0.5-0.2-0.7
		c-0.2-0.2-0.3-0.4-0.6-0.5c-0.2-0.1-0.5-0.2-0.7-0.2l0,0v1.1c0,0.4,0.1,0.8,0.2,0.9s0.3,0.3,0.6,0.3s0.4-0.1,0.5-0.2
		S543.9,226.5,543.9,226.2L543.9,226.2z"/>
	<path class="st1" d="M544.4,221.1c0,0.4-0.1,0.7-0.3,0.9c-0.2,0.2-0.5,0.4-1,0.4h-2.4v0.8H540v-0.8l-1-0.1v-0.6h1v-1.3h0.6v1.3h2.4
		c0.3,0,0.5-0.1,0.6-0.2s0.2-0.3,0.2-0.6v-0.5h0.6L544.4,221.1L544.4,221.1z"/>
	<path class="st1" d="M544.5,217.5c0,0.4-0.1,0.8-0.3,1.1c-0.2,0.3-0.5,0.6-0.8,0.8c-0.3,0.2-0.8,0.3-1.2,0.3s-0.9-0.1-1.2-0.3
		c-0.3-0.2-0.6-0.4-0.8-0.8c-0.2-0.3-0.3-0.7-0.3-1.1s0.1-0.8,0.3-1.1c0.2-0.3,0.4-0.6,0.8-0.7c0.3-0.2,0.7-0.2,1-0.2
		c0.1,0,0.1,0,0.2,0c0.1,0,0.1,0,0.2,0v3.5c0.3,0,0.6-0.1,0.8-0.2c0.2-0.1,0.4-0.3,0.5-0.5s0.2-0.4,0.2-0.7c0-0.3-0.1-0.6-0.2-0.8
		s-0.3-0.4-0.6-0.4v-0.7c0.4,0.1,0.8,0.3,1,0.7C544.4,216.6,544.5,217,544.5,217.5L544.5,217.5z M540.5,217.5c0,0.4,0.1,0.7,0.3,0.9
		s0.5,0.4,0.9,0.5v-2.8c-0.4,0-0.7,0.1-0.9,0.4C540.6,216.8,540.5,217.1,540.5,217.5L540.5,217.5z"/>
	<path class="st0" d="M141.7,209.5c-0.4,0-0.8-0.1-1.1-0.2s-0.6-0.4-0.8-0.6c-0.2-0.3-0.3-0.6-0.3-1s0.1-0.7,0.3-1s0.5-0.5,0.8-0.6
		c-0.3-0.1-0.5-0.3-0.7-0.5c-0.2-0.2-0.2-0.5-0.2-0.8s0.1-0.6,0.2-0.8s0.4-0.4,0.7-0.6c0.3-0.1,0.7-0.2,1.2-0.2s0.9,0.1,1.2,0.2
		s0.6,0.4,0.7,0.6s0.2,0.5,0.2,0.8s-0.1,0.5-0.2,0.8s-0.4,0.4-0.7,0.5c0.3,0.1,0.6,0.3,0.8,0.6s0.3,0.6,0.3,1s-0.1,0.7-0.3,1
		c-0.2,0.3-0.5,0.5-0.8,0.6S142.1,209.5,141.7,209.5L141.7,209.5z M141.7,208.6c0.4,0,0.7-0.1,0.9-0.3s0.3-0.4,0.3-0.7
		c0-0.3-0.1-0.6-0.3-0.7c-0.2-0.2-0.5-0.3-0.9-0.3s-0.6,0.1-0.9,0.3c-0.2,0.2-0.3,0.4-0.3,0.7c0,0.3,0.1,0.5,0.3,0.7
		C141,208.5,141.3,208.6,141.7,208.6L141.7,208.6z M141.7,205.7c0.3,0,0.6-0.1,0.7-0.2s0.3-0.4,0.3-0.6c0-0.3-0.1-0.5-0.3-0.6
		s-0.4-0.2-0.7-0.2s-0.6,0.1-0.7,0.2s-0.3,0.4-0.3,0.6c0,0.2,0.1,0.5,0.3,0.6C141.1,205.6,141.4,205.7,141.7,205.7L141.7,205.7z"/>
	<path class="st0" d="M147.6,209.5c-0.5,0-0.9-0.1-1.2-0.2c-0.3-0.2-0.6-0.4-0.8-0.7s-0.3-0.6-0.3-0.9h1.1c0.1,0.2,0.2,0.5,0.4,0.6
		s0.5,0.2,0.8,0.2c0.3,0,0.6-0.1,0.8-0.4c0.2-0.2,0.3-0.5,0.3-0.9s-0.1-0.7-0.3-0.9c-0.2-0.2-0.5-0.3-0.8-0.3
		c-0.3,0-0.5,0.1-0.7,0.2c-0.2,0.1-0.3,0.3-0.4,0.5h-1.1l0.5-3.5h3.4v1h-2.6l-0.3,1.4c0.1-0.1,0.3-0.3,0.5-0.4
		c0.2-0.1,0.5-0.1,0.8-0.1c0.4,0,0.8,0.1,1.1,0.3c0.3,0.2,0.5,0.5,0.7,0.8c0.1,0.3,0.2,0.7,0.2,1.1c0,0.4-0.1,0.8-0.3,1.1
		c-0.2,0.3-0.4,0.6-0.8,0.8C148.4,209.4,148,209.5,147.6,209.5L147.6,209.5z"/>
	<path class="st0" d="M152.2,206.2c-0.3,0-0.5-0.1-0.8-0.2c-0.2-0.1-0.4-0.3-0.6-0.5s-0.2-0.5-0.2-0.8s0.1-0.6,0.2-0.8
		s0.3-0.4,0.6-0.5c0.2-0.1,0.5-0.2,0.8-0.2s0.5,0.1,0.8,0.2s0.4,0.3,0.5,0.5s0.2,0.5,0.2,0.8s-0.1,0.6-0.2,0.8s-0.3,0.4-0.6,0.5
		C152.8,206.2,152.5,206.2,152.2,206.2L152.2,206.2z M152.2,205.5c0.2,0,0.3-0.1,0.4-0.2s0.2-0.3,0.2-0.6s-0.1-0.5-0.2-0.6
		c-0.1-0.1-0.3-0.2-0.4-0.2s-0.3,0.1-0.4,0.2c-0.1,0.1-0.2,0.3-0.2,0.6s0.1,0.5,0.2,0.6C151.9,205.4,152,205.5,152.2,205.5
		L152.2,205.5z M151.9,209.4l3.5-6.2h1.1l-3.5,6.2H151.9z M156.2,209.5c-0.3,0-0.5-0.1-0.8-0.2c-0.2-0.1-0.4-0.3-0.6-0.5
		s-0.2-0.5-0.2-0.8s0.1-0.6,0.2-0.8c0.1-0.2,0.3-0.4,0.6-0.5c0.2-0.1,0.5-0.2,0.8-0.2s0.5,0.1,0.8,0.2s0.4,0.3,0.5,0.5
		c0.1,0.2,0.2,0.5,0.2,0.8s-0.1,0.6-0.2,0.8s-0.3,0.4-0.5,0.5S156.5,209.5,156.2,209.5L156.2,209.5z M156.2,208.7
		c0.2,0,0.3-0.1,0.4-0.2s0.2-0.3,0.2-0.6s-0.1-0.5-0.2-0.6s-0.3-0.2-0.4-0.2s-0.3,0.1-0.4,0.2c-0.1,0.1-0.2,0.3-0.2,0.6
		s0.1,0.5,0.2,0.6C155.9,208.6,156,208.7,156.2,208.7z"/>
	<path class="st0" d="M141.2,235.8c-0.4,0-0.8-0.1-1.1-0.2s-0.6-0.4-0.8-0.6c-0.2-0.3-0.3-0.6-0.3-1s0.1-0.7,0.3-1s0.5-0.5,0.8-0.6
		c-0.3-0.1-0.5-0.3-0.7-0.5c-0.2-0.2-0.2-0.5-0.2-0.8s0.1-0.6,0.2-0.8s0.4-0.4,0.7-0.6c0.3-0.1,0.7-0.2,1.2-0.2s0.9,0.1,1.2,0.2
		s0.6,0.4,0.7,0.6s0.2,0.5,0.2,0.8s-0.1,0.5-0.2,0.8s-0.4,0.4-0.7,0.5c0.3,0.1,0.6,0.3,0.8,0.6s0.3,0.6,0.3,1s-0.1,0.7-0.3,1
		c-0.2,0.3-0.5,0.5-0.8,0.6S141.6,235.8,141.2,235.8L141.2,235.8z M141.2,234.8c0.4,0,0.7-0.1,0.9-0.3s0.3-0.4,0.3-0.7
		c0-0.3-0.1-0.6-0.3-0.7c-0.2-0.2-0.5-0.3-0.9-0.3s-0.6,0.1-0.9,0.3c-0.2,0.2-0.3,0.4-0.3,0.7c0,0.3,0.1,0.5,0.3,0.7
		C140.5,234.7,140.8,234.8,141.2,234.8L141.2,234.8z M141.2,232c0.3,0,0.6-0.1,0.7-0.2s0.3-0.4,0.3-0.6c0-0.3-0.1-0.5-0.3-0.6
		s-0.4-0.2-0.7-0.2s-0.6,0.1-0.7,0.2s-0.3,0.4-0.3,0.6c0,0.2,0.1,0.5,0.3,0.6C140.6,231.9,140.9,232,141.2,232L141.2,232z"/>
	<path class="st0" d="M147.4,235.8c-0.6,0-1.1-0.1-1.5-0.4s-0.7-0.6-0.9-1.1s-0.3-1-0.3-1.7s0.1-1.2,0.3-1.7s0.5-0.9,0.9-1.1
		s0.9-0.4,1.5-0.4s1.1,0.1,1.5,0.4s0.7,0.6,0.9,1.1c0.2,0.5,0.3,1,0.3,1.7s-0.1,1.2-0.3,1.7s-0.5,0.9-0.9,1.1S148,235.8,147.4,235.8
		z M147.4,234.8c0.5,0,0.9-0.2,1.1-0.6c0.3-0.4,0.4-0.9,0.4-1.6s-0.1-1.2-0.4-1.6c-0.3-0.4-0.7-0.6-1.1-0.6s-0.9,0.2-1.1,0.6
		s-0.4,0.9-0.4,1.6s0.1,1.2,0.4,1.6S146.9,234.8,147.4,234.8z"/>
	<path class="st0" d="M152.7,232.5c-0.3,0-0.5-0.1-0.8-0.2c-0.2-0.1-0.4-0.3-0.6-0.5s-0.2-0.5-0.2-0.8s0.1-0.6,0.2-0.8
		s0.3-0.4,0.6-0.5c0.2-0.1,0.5-0.2,0.8-0.2s0.5,0.1,0.8,0.2s0.4,0.3,0.5,0.5s0.2,0.5,0.2,0.8s-0.1,0.6-0.2,0.8s-0.3,0.4-0.6,0.5
		C153.3,232.4,153,232.5,152.7,232.5L152.7,232.5z M152.7,231.7c0.2,0,0.3-0.1,0.4-0.2s0.2-0.3,0.2-0.6s-0.1-0.5-0.2-0.6
		c-0.1-0.1-0.3-0.2-0.4-0.2s-0.3,0.1-0.4,0.2c-0.1,0.1-0.2,0.3-0.2,0.6s0.1,0.5,0.2,0.6C152.4,231.7,152.6,231.7,152.7,231.7
		L152.7,231.7z M152.4,235.7l3.5-6.2h1.1l-3.5,6.2H152.4z M156.7,235.8c-0.3,0-0.5-0.1-0.8-0.2c-0.2-0.1-0.4-0.3-0.6-0.5
		s-0.2-0.5-0.2-0.8s0.1-0.6,0.2-0.8c0.1-0.2,0.3-0.4,0.6-0.5c0.2-0.1,0.5-0.2,0.8-0.2s0.5,0.1,0.8,0.2s0.4,0.3,0.5,0.5
		c0.1,0.2,0.2,0.5,0.2,0.8s-0.1,0.6-0.2,0.8s-0.3,0.4-0.5,0.5S157,235.8,156.7,235.8L156.7,235.8z M156.7,235c0.2,0,0.3-0.1,0.4-0.2
		s0.2-0.3,0.2-0.6s-0.1-0.5-0.2-0.6s-0.3-0.2-0.4-0.2s-0.3,0.1-0.4,0.2c-0.1,0.1-0.2,0.3-0.2,0.6s0.1,0.5,0.2,0.6
		C156.4,234.9,156.5,235,156.7,235z"/>
	<path class="st0" d="M140.4,261.9l2.3-5.2h-3.1v-1h4.2v0.8l-2.3,5.4L140.4,261.9L140.4,261.9z"/>
	<path class="st0" d="M147.1,262c-0.5,0-0.9-0.1-1.2-0.2c-0.3-0.2-0.6-0.4-0.8-0.7s-0.3-0.6-0.3-1h1.1c0.1,0.2,0.2,0.5,0.4,0.6
		s0.5,0.2,0.8,0.2c0.3,0,0.6-0.1,0.8-0.4c0.2-0.2,0.3-0.5,0.3-0.9s-0.1-0.7-0.3-0.9c-0.2-0.2-0.5-0.3-0.8-0.3
		c-0.3,0-0.5,0.1-0.7,0.2c-0.2,0.1-0.3,0.3-0.4,0.5h-1.1l0.5-3.5h3.4v1h-2.6l-0.3,1.4c0.1-0.1,0.3-0.3,0.5-0.4s0.5-0.1,0.8-0.1
		c0.4,0,0.8,0.1,1.1,0.3c0.3,0.2,0.5,0.5,0.7,0.8s0.2,0.7,0.2,1c0,0.4-0.1,0.8-0.3,1.1c-0.2,0.3-0.4,0.6-0.8,0.8
		C147.9,261.9,147.5,262,147.1,262L147.1,262z"/>
	<path class="st0" d="M151.7,258.8c-0.3,0-0.5-0.1-0.8-0.2c-0.2-0.1-0.4-0.3-0.6-0.5s-0.2-0.5-0.2-0.8s0.1-0.6,0.2-0.8
		s0.3-0.4,0.6-0.5c0.2-0.1,0.5-0.2,0.8-0.2s0.5,0.1,0.8,0.2s0.4,0.3,0.5,0.5s0.2,0.5,0.2,0.8s-0.1,0.6-0.2,0.8s-0.3,0.4-0.6,0.5
		C152.3,258.7,152,258.8,151.7,258.8L151.7,258.8z M151.7,258c0.2,0,0.3-0.1,0.4-0.2s0.2-0.3,0.2-0.6s-0.1-0.5-0.2-0.6
		c-0.1-0.1-0.3-0.2-0.4-0.2s-0.3,0.1-0.4,0.2c-0.1,0.1-0.2,0.3-0.2,0.6s0.1,0.5,0.2,0.6S151.6,258,151.7,258L151.7,258z
		 M151.4,261.9l3.5-6.2h1.1l-3.5,6.2H151.4z M155.7,262c-0.3,0-0.5-0.1-0.8-0.2c-0.2-0.1-0.4-0.3-0.6-0.5s-0.2-0.5-0.2-0.8
		s0.1-0.6,0.2-0.8c0.1-0.2,0.3-0.4,0.6-0.5s0.5-0.2,0.8-0.2s0.5,0.1,0.8,0.2s0.4,0.3,0.5,0.5c0.1,0.2,0.2,0.5,0.2,0.8
		s-0.1,0.6-0.2,0.8s-0.3,0.4-0.5,0.5S156,262,155.7,262L155.7,262z M155.7,261.2c0.2,0,0.3-0.1,0.4-0.2s0.2-0.3,0.2-0.6
		s-0.1-0.5-0.2-0.6s-0.3-0.2-0.4-0.2s-0.3,0.1-0.4,0.2c-0.1,0.1-0.2,0.3-0.2,0.6s0.1,0.5,0.2,0.6S155.5,261.2,155.7,261.2z"/>
	<path d="M507.1,203.4v-6.2l-1.3,0.3v-1.1l1.9-0.8h0.9v7.8H507.1z"/>
	<path d="M513,203.6c-0.5,0-1-0.1-1.4-0.3c-0.4-0.2-0.8-0.5-1-0.8s-0.4-0.9-0.4-1.4h1.4c0,0.4,0.1,0.7,0.4,0.9s0.6,0.4,1,0.4
		c0.4,0,0.7-0.1,1-0.3c0.2-0.2,0.3-0.5,0.3-0.9c0-0.4-0.2-0.7-0.4-0.9c-0.3-0.2-0.7-0.3-1.1-0.3h-0.6v-1.2h0.6c0.4,0,0.7-0.1,1-0.3
		s0.4-0.4,0.4-0.8c0-0.3-0.1-0.5-0.3-0.7c-0.2-0.2-0.5-0.3-0.8-0.3c-0.4,0-0.7,0.1-0.8,0.3c-0.2,0.2-0.3,0.5-0.3,0.8h-1.4
		c0-0.7,0.3-1.3,0.8-1.7c0.5-0.4,1.1-0.6,1.8-0.6c0.5,0,1,0.1,1.3,0.3s0.7,0.4,0.8,0.8c0.2,0.3,0.3,0.7,0.3,1c0,0.4-0.1,0.8-0.4,1.1
		s-0.5,0.5-0.9,0.6c0.4,0.1,0.8,0.3,1.1,0.6c0.3,0.3,0.4,0.8,0.4,1.3c0,0.4-0.1,0.8-0.3,1.2c-0.2,0.4-0.5,0.6-0.9,0.9
		C514.1,203.5,513.6,203.6,513,203.6L513,203.6z"/>
	<path d="M518.9,199.5c-0.4,0-0.7-0.1-1-0.2s-0.5-0.4-0.7-0.7c-0.2-0.3-0.2-0.6-0.2-1.1s0.1-0.8,0.2-1.1s0.4-0.5,0.7-0.7
		c0.3-0.2,0.6-0.2,1-0.2s0.7,0.1,1,0.2c0.3,0.2,0.5,0.4,0.7,0.7c0.2,0.3,0.3,0.6,0.3,1.1s-0.1,0.8-0.3,1.1s-0.4,0.5-0.7,0.7
		S519.2,199.5,518.9,199.5L518.9,199.5z M518.9,198.5c0.2,0,0.4-0.1,0.6-0.2s0.2-0.4,0.2-0.7s-0.1-0.6-0.2-0.8
		c-0.2-0.2-0.3-0.3-0.6-0.3s-0.4,0.1-0.6,0.3s-0.2,0.4-0.2,0.8s0.1,0.6,0.2,0.7S518.7,198.5,518.9,198.5z M518.5,203.4l4.4-7.8h1.4
		l-4.4,7.8H518.5z M523.9,203.6c-0.4,0-0.7-0.1-1-0.2s-0.5-0.4-0.7-0.7c-0.2-0.3-0.3-0.6-0.3-1.1s0.1-0.8,0.3-1.1
		c0.2-0.3,0.4-0.5,0.7-0.7s0.6-0.2,1-0.2s0.7,0.1,1,0.2c0.3,0.2,0.5,0.4,0.7,0.7s0.3,0.6,0.3,1.1s-0.1,0.8-0.3,1.1s-0.4,0.5-0.7,0.7
		C524.6,203.5,524.2,203.6,523.9,203.6L523.9,203.6z M523.9,202.6c0.2,0,0.4-0.1,0.6-0.2s0.2-0.4,0.2-0.7s-0.1-0.6-0.2-0.8
		c-0.2-0.2-0.3-0.3-0.6-0.3s-0.4,0.1-0.6,0.3c-0.2,0.2-0.2,0.4-0.2,0.8s0.1,0.6,0.2,0.7C523.5,202.5,523.7,202.6,523.9,202.6z"/>
	<path d="M508.9,242.8c-0.5,0-1-0.1-1.4-0.3s-0.7-0.5-0.9-0.8s-0.3-0.7-0.4-1.1h1.3c0.1,0.3,0.2,0.6,0.4,0.8
		c0.2,0.2,0.5,0.3,0.9,0.3c0.5,0,0.9-0.2,1.2-0.7c0.3-0.5,0.5-1.1,0.5-2.1c-0.2,0.3-0.5,0.6-0.8,0.8s-0.8,0.3-1.2,0.3
		s-0.8-0.1-1.2-0.3c-0.4-0.2-0.7-0.5-0.9-0.9c-0.2-0.4-0.4-0.8-0.4-1.3c0-0.5,0.1-0.9,0.3-1.3s0.5-0.7,1-1s0.9-0.4,1.4-0.4
		c0.6,0,1.1,0.1,1.5,0.3s0.7,0.5,1,0.9c0.2,0.4,0.4,0.8,0.5,1.2c0.1,0.4,0.2,0.9,0.2,1.4c0,0.9-0.1,1.6-0.4,2.3s-0.6,1.1-1.1,1.5
		C510.1,242.6,509.6,242.8,508.9,242.8L508.9,242.8z M509,238.7c0.3,0,0.5-0.1,0.8-0.2c0.2-0.1,0.4-0.3,0.5-0.5s0.2-0.4,0.2-0.7
		c0-0.4-0.1-0.7-0.4-1c-0.3-0.3-0.6-0.4-1-0.4s-0.8,0.1-1,0.4c-0.3,0.3-0.4,0.6-0.4,1c0,0.4,0.1,0.8,0.4,1S508.6,238.7,509,238.7
		L509,238.7z"/>
	<path d="M515.2,238.7c-0.4,0-0.7-0.1-1-0.2s-0.5-0.4-0.7-0.7c-0.2-0.3-0.2-0.6-0.2-1.1s0.1-0.8,0.2-1.1s0.4-0.5,0.7-0.7
		c0.3-0.2,0.6-0.2,1-0.2s0.7,0.1,1,0.2c0.3,0.2,0.5,0.4,0.7,0.7c0.2,0.3,0.3,0.6,0.3,1.1s-0.1,0.8-0.3,1.1s-0.4,0.5-0.7,0.7
		S515.5,238.7,515.2,238.7L515.2,238.7z M515.2,237.7c0.2,0,0.4-0.1,0.6-0.2s0.2-0.4,0.2-0.7s-0.1-0.6-0.2-0.8
		c-0.2-0.2-0.3-0.3-0.6-0.3s-0.4,0.1-0.6,0.3s-0.2,0.4-0.2,0.8s0.1,0.6,0.2,0.7S515,237.7,515.2,237.7z M514.8,242.6l4.4-7.8h1.4
		l-4.4,7.8H514.8z M520.2,242.8c-0.4,0-0.7-0.1-1-0.2s-0.5-0.4-0.7-0.7c-0.2-0.3-0.3-0.6-0.3-1.1s0.1-0.8,0.3-1.1
		c0.2-0.3,0.4-0.5,0.7-0.7s0.6-0.2,1-0.2s0.7,0.1,1,0.2c0.3,0.2,0.5,0.4,0.7,0.7s0.3,0.6,0.3,1.1s-0.1,0.8-0.3,1.1s-0.4,0.5-0.7,0.7
		C520.9,242.7,520.5,242.8,520.2,242.8L520.2,242.8z M520.2,241.8c0.2,0,0.4-0.1,0.6-0.2s0.2-0.4,0.2-0.7s-0.1-0.6-0.2-0.8
		c-0.2-0.2-0.3-0.3-0.6-0.3s-0.4,0.1-0.6,0.3c-0.2,0.2-0.2,0.4-0.2,0.8s0.1,0.6,0.2,0.7C519.8,241.7,520,241.8,520.2,241.8z"/>
	<path d="M509.2,279.6c-0.6,0-1.1-0.1-1.5-0.3c-0.4-0.2-0.7-0.5-1-0.9c-0.2-0.4-0.4-0.8-0.5-1.2c-0.1-0.5-0.2-0.9-0.2-1.4
		c0-0.9,0.1-1.6,0.4-2.3c0.2-0.6,0.6-1.1,1.1-1.5c0.5-0.4,1-0.5,1.7-0.5c0.5,0,1,0.1,1.4,0.3c0.4,0.2,0.7,0.5,0.9,0.8
		c0.2,0.3,0.3,0.7,0.4,1.1h-1.3c-0.1-0.3-0.2-0.6-0.4-0.8s-0.5-0.3-0.9-0.3c-0.5,0-0.9,0.2-1.2,0.7c-0.3,0.5-0.5,1.1-0.5,2.1
		c0.2-0.3,0.5-0.6,0.8-0.8c0.4-0.2,0.8-0.3,1.2-0.3s0.8,0.1,1.2,0.3s0.7,0.5,0.9,0.9c0.2,0.4,0.4,0.8,0.4,1.3c0,0.5-0.1,0.9-0.3,1.3
		s-0.5,0.7-1,1C510.2,279.4,509.7,279.6,509.2,279.6L509.2,279.6z M509.1,278.3c0.4,0,0.8-0.1,1-0.4s0.4-0.6,0.4-1
		c0-0.4-0.1-0.8-0.4-1s-0.6-0.4-1-0.4c-0.3,0-0.5,0.1-0.7,0.2s-0.4,0.3-0.5,0.5c-0.1,0.2-0.2,0.4-0.2,0.7c0,0.4,0.1,0.7,0.4,1
		C508.4,278.2,508.7,278.3,509.1,278.3L509.1,278.3z"/>
	<path d="M515.1,275.5c-0.4,0-0.7-0.1-1-0.2s-0.5-0.4-0.7-0.7c-0.2-0.3-0.2-0.6-0.2-1.1s0.1-0.8,0.2-1.1s0.4-0.5,0.7-0.7
		s0.6-0.2,1-0.2s0.7,0.1,1,0.2c0.3,0.2,0.5,0.4,0.7,0.7c0.2,0.3,0.3,0.6,0.3,1.1s-0.1,0.8-0.3,1.1s-0.4,0.5-0.7,0.7
		S515.5,275.5,515.1,275.5L515.1,275.5z M515.1,274.5c0.2,0,0.4-0.1,0.6-0.2s0.2-0.4,0.2-0.7s-0.1-0.6-0.2-0.8
		c-0.2-0.2-0.3-0.3-0.6-0.3s-0.4,0.1-0.6,0.3s-0.2,0.4-0.2,0.8s0.1,0.6,0.2,0.7S514.9,274.5,515.1,274.5z M514.7,279.4l4.4-7.8h1.4
		l-4.4,7.8H514.7z M520.1,279.6c-0.4,0-0.7-0.1-1-0.2s-0.5-0.4-0.7-0.7c-0.2-0.3-0.3-0.6-0.3-1.1s0.1-0.8,0.3-1
		c0.2-0.3,0.4-0.5,0.7-0.7s0.6-0.2,1-0.2s0.7,0.1,1,0.2c0.3,0.2,0.5,0.4,0.7,0.7c0.2,0.3,0.3,0.6,0.3,1s-0.1,0.8-0.3,1.1
		s-0.4,0.5-0.7,0.7C520.8,279.5,520.5,279.6,520.1,279.6L520.1,279.6z M520.1,278.6c0.2,0,0.4-0.1,0.6-0.2s0.2-0.4,0.2-0.7
		s-0.1-0.6-0.2-0.8c-0.2-0.2-0.3-0.3-0.6-0.3s-0.4,0.1-0.6,0.3c-0.2,0.2-0.2,0.4-0.2,0.8s0.1,0.6,0.2,0.7
		C519.7,278.5,519.9,278.6,520.1,278.6z"/>
	<path d="M508.8,309.3c-0.5,0-1-0.1-1.4-0.3s-0.8-0.5-1-0.8s-0.4-0.9-0.4-1.4h1.4c0,0.4,0.1,0.7,0.4,1s0.6,0.4,1,0.4
		c0.4,0,0.7-0.1,1-0.3c0.2-0.2,0.3-0.5,0.3-0.9c0-0.4-0.1-0.7-0.4-0.9s-0.7-0.3-1.1-0.3H508v-1.2h0.6c0.4,0,0.7-0.1,1-0.3
		s0.4-0.4,0.4-0.8c0-0.3-0.1-0.5-0.3-0.7c-0.2-0.2-0.5-0.3-0.8-0.3c-0.4,0-0.6,0.1-0.9,0.3c-0.2,0.2-0.3,0.5-0.3,0.8h-1.4
		c0-0.7,0.3-1.3,0.8-1.7c0.5-0.4,1.1-0.6,1.8-0.6c0.5,0,1,0.1,1.4,0.3s0.6,0.4,0.8,0.8c0.2,0.3,0.3,0.7,0.3,1c0,0.4-0.1,0.8-0.4,1.1
		s-0.5,0.5-0.9,0.6c0.4,0.1,0.8,0.3,1.1,0.6c0.3,0.3,0.4,0.8,0.4,1.3c0,0.4-0.1,0.8-0.3,1.2s-0.5,0.6-0.9,0.9
		C509.9,309.2,509.4,309.3,508.8,309.3L508.8,309.3z"/>
	<path d="M514.7,305.2c-0.4,0-0.7-0.1-1-0.2s-0.5-0.4-0.7-0.7c-0.2-0.3-0.2-0.6-0.2-1.1s0.1-0.8,0.2-1.1s0.4-0.5,0.7-0.7
		s0.6-0.2,1-0.2s0.7,0.1,1,0.2c0.3,0.2,0.5,0.4,0.7,0.7c0.2,0.3,0.3,0.6,0.3,1.1s-0.1,0.8-0.3,1.1s-0.4,0.5-0.7,0.7
		S515,305.2,514.7,305.2L514.7,305.2z M514.7,304.2c0.2,0,0.4-0.1,0.6-0.2s0.2-0.4,0.2-0.7s-0.1-0.6-0.2-0.8
		c-0.2-0.2-0.3-0.3-0.6-0.3s-0.4,0.1-0.6,0.3s-0.2,0.4-0.2,0.8s0.1,0.6,0.2,0.7S514.5,304.2,514.7,304.2z M514.2,309.1l4.4-7.8h1.4
		l-4.4,7.8H514.2z M519.7,309.3c-0.4,0-0.7-0.1-1-0.2s-0.5-0.4-0.7-0.7c-0.2-0.3-0.3-0.6-0.3-1.1s0.1-0.8,0.3-1
		c0.2-0.3,0.4-0.5,0.7-0.7s0.6-0.2,1-0.2s0.7,0.1,1,0.2c0.3,0.2,0.5,0.4,0.7,0.7c0.2,0.3,0.3,0.6,0.3,1s-0.1,0.8-0.3,1.1
		s-0.4,0.5-0.7,0.7C520.3,309.2,520,309.3,519.7,309.3L519.7,309.3z M519.7,308.3c0.2,0,0.4-0.1,0.6-0.2s0.2-0.4,0.2-0.7
		s-0.1-0.6-0.2-0.8c-0.2-0.2-0.3-0.3-0.6-0.3s-0.4,0.1-0.6,0.3c-0.2,0.2-0.2,0.4-0.2,0.8s0.1,0.6,0.2,0.7
		C519.2,308.2,519.4,308.3,519.7,308.3z"/>
	<path d="M132.7,346.8v-2.4l-2-3.8h0.8l1.6,3.1l1.6-3.1h0.8l-2,3.8v2.4H132.7z"/>
	<path d="M137.3,346.8v-5.4l-1,0.2v-0.5l1.2-0.5h0.5v6.2H137.3z"/>
	<path d="M204.2,346.8v-2.4l-2-3.8h0.8l1.6,3.1l1.6-3.1h0.8l-2,3.8v2.4H204.2z"/>
	<path d="M207.8,346.8v-0.5c0.4-0.3,0.8-0.7,1.2-1c0.4-0.3,0.7-0.7,1-1c0.3-0.3,0.5-0.7,0.7-1c0.2-0.3,0.2-0.6,0.2-0.9
		c0-0.2,0-0.4-0.1-0.6c-0.1-0.2-0.2-0.3-0.4-0.5s-0.4-0.2-0.7-0.2s-0.5,0.1-0.7,0.2s-0.3,0.3-0.4,0.5s-0.1,0.4-0.1,0.6h-0.7
		c0-0.4,0.1-0.8,0.3-1c0.2-0.3,0.4-0.5,0.7-0.7s0.6-0.2,1-0.2c0.6,0,1,0.2,1.4,0.5s0.5,0.8,0.5,1.4c0,0.4-0.1,0.7-0.3,1.1
		c-0.2,0.4-0.4,0.7-0.7,1c-0.3,0.3-0.6,0.6-0.9,0.9c-0.3,0.3-0.6,0.5-0.9,0.8h3v0.6L207.8,346.8L207.8,346.8z"/>
	<path d="M275.7,346.8v-2.4l-2-3.8h0.8l1.5,3.1l1.5-3.1h0.8l-2,3.8v2.4H275.7L275.7,346.8z"/>
	<path d="M281.3,346.9c-0.4,0-0.8-0.1-1.1-0.2c-0.3-0.1-0.6-0.4-0.8-0.6c-0.2-0.3-0.3-0.6-0.3-1.1h0.8c0,0.4,0.1,0.7,0.4,0.9
		s0.6,0.4,1,0.4s0.8-0.1,1-0.4s0.3-0.5,0.3-0.9c0-0.3-0.1-0.5-0.2-0.7c-0.1-0.2-0.3-0.3-0.6-0.4c-0.2-0.1-0.5-0.1-0.8-0.1h-0.5v-0.6
		h0.5c0.4,0,0.7-0.1,0.9-0.3c0.2-0.2,0.3-0.4,0.3-0.8c0-0.3-0.1-0.5-0.3-0.7s-0.5-0.3-0.8-0.3s-0.6,0.1-0.8,0.3
		c-0.2,0.2-0.3,0.5-0.4,0.8h-0.8c0-0.3,0.1-0.6,0.3-0.9s0.4-0.5,0.7-0.6c0.3-0.1,0.6-0.2,1-0.2c0.4,0,0.7,0.1,1,0.2
		c0.3,0.1,0.5,0.3,0.6,0.6s0.2,0.5,0.2,0.8c0,0.3-0.1,0.6-0.3,0.9c-0.2,0.3-0.4,0.4-0.8,0.5c0.4,0.1,0.7,0.2,0.9,0.5
		s0.4,0.6,0.4,1.1c0,0.3-0.1,0.7-0.2,0.9s-0.4,0.5-0.7,0.7S281.7,346.9,281.3,346.9L281.3,346.9z"/>
	<path d="M347.1,346.8v-2.4l-2-3.8h0.8l1.5,3.1l1.5-3.1h0.8l-2,3.8v2.4H347.1L347.1,346.8z"/>
	<path d="M353.2,346.8v-1.3H350v-0.6l3-4.3h0.9v4.2h0.9v0.7h-0.9v1.3L353.2,346.8L353.2,346.8z M350.9,344.8h2.4v-3.4L350.9,344.8z"
		/>
	<path d="M418.6,346.8v-2.4l-2-3.8h0.8l1.5,3.1l1.5-3.1h0.8l-2,3.8v2.4H418.6L418.6,346.8z"/>
	<path d="M424.4,346.9c-0.4,0-0.8-0.1-1.1-0.2c-0.3-0.1-0.6-0.4-0.8-0.6c-0.2-0.3-0.3-0.6-0.3-0.9h0.7c0.1,0.3,0.2,0.6,0.5,0.8
		s0.6,0.3,1,0.3c0.3,0,0.5-0.1,0.8-0.2c0.2-0.1,0.4-0.3,0.5-0.6s0.2-0.5,0.2-0.8c0-0.5-0.1-0.8-0.4-1.1s-0.6-0.4-1-0.4
		c-0.3,0-0.6,0.1-0.9,0.2c-0.2,0.1-0.4,0.4-0.5,0.6h-0.7l0.5-3.4h3.2v0.6h-2.7l-0.4,1.9c0.1-0.2,0.3-0.3,0.6-0.4s0.5-0.2,0.9-0.2
		c0.4,0,0.8,0.1,1.1,0.3c0.3,0.2,0.5,0.5,0.7,0.8c0.2,0.3,0.3,0.7,0.3,1.1s-0.1,0.8-0.2,1.1s-0.4,0.6-0.7,0.8
		C425.3,346.8,424.9,346.9,424.4,346.9L424.4,346.9z"/>
	<path d="M490.1,346.8v-2.4l-2-3.8h0.8l1.5,3.1l1.5-3.1h0.8l-2,3.8v2.4H490.1L490.1,346.8z"/>
	<path d="M495.9,346.9c-0.5,0-0.8-0.1-1.1-0.2c-0.3-0.2-0.5-0.4-0.7-0.7c-0.2-0.3-0.3-0.6-0.4-1c-0.1-0.4-0.1-0.7-0.1-1.1
		c0-0.7,0.1-1.3,0.3-1.8c0.2-0.5,0.5-0.9,0.8-1.2s0.8-0.4,1.3-0.4c0.4,0,0.7,0.1,1,0.2s0.5,0.4,0.7,0.6s0.3,0.5,0.3,0.9h-0.7
		c-0.1-0.3-0.2-0.6-0.4-0.8s-0.5-0.3-0.9-0.3c-0.5,0-0.9,0.2-1.2,0.7c-0.3,0.4-0.5,1.1-0.5,2.1c0.1-0.3,0.4-0.5,0.7-0.7
		s0.7-0.3,1.1-0.3c0.4,0,0.7,0.1,1,0.2s0.6,0.4,0.8,0.7c0.2,0.3,0.3,0.6,0.3,1c0,0.4-0.1,0.7-0.3,1s-0.4,0.6-0.7,0.8
		C496.7,346.8,496.4,346.9,495.9,346.9L495.9,346.9z M495.9,346.2c0.3,0,0.5-0.1,0.7-0.2c0.2-0.1,0.4-0.3,0.5-0.5s0.2-0.5,0.2-0.7
		c0-0.4-0.1-0.8-0.4-1c-0.3-0.2-0.6-0.4-1-0.4c-0.3,0-0.5,0.1-0.7,0.2c-0.2,0.1-0.4,0.3-0.5,0.5c-0.1,0.2-0.2,0.4-0.2,0.7
		c0,0.3,0.1,0.5,0.2,0.7s0.3,0.4,0.5,0.5S495.6,346.2,495.9,346.2z"/>
	<polyline class="st9" points="137.4,330.9 208.9,298.9 280.5,267.7 352.1,241.9 423.5,218.9 497,199.6 	"/>
	<polyline class="st10" points="137.4,330.9 209,307 280.9,283.9 352,267.7 423.5,251.6 497,239.6 	"/>
	<polyline class="st11" points="137.4,330.9 209,315.1 280.9,300.1 352,291.9 423.5,282 497,276.1 	"/>
	<polyline class="st12" points="137.4,330.9 209,323.2 280.9,316 352,312.6 423.5,307.8 497,306 	"/>
	<circle cx="137.2" cy="331" r="1.7"/>
	<circle cx="352" cy="312.6" r="1.7"/>
	<circle cx="352" cy="291.9" r="1.7"/>
	<circle cx="352" cy="267.7" r="1.7"/>
	<circle cx="352" cy="241.9" r="1.7"/>
	<circle cx="423.5" cy="307.8" r="1.7"/>
	<circle cx="423.5" cy="282" r="1.7"/>
	<circle cx="423.5" cy="251.6" r="1.7"/>
	<circle cx="423.5" cy="218.9" r="1.7"/>
	<circle cx="497" cy="306" r="1.7"/>
	<circle cx="497" cy="276.1" r="1.7"/>
	<circle cx="497" cy="239.6" r="1.7"/>
	<circle cx="497" cy="199.6" r="1.7"/>
	<circle cx="281.2" cy="315.9" r="1.7"/>
	<circle cx="281.2" cy="300.1" r="1.7"/>
	<circle cx="281.2" cy="283.9" r="1.7"/>
	<circle cx="281.2" cy="267.4" r="1.7"/>
	<circle cx="209.8" cy="323.1" r="1.7"/>
	<circle cx="209.8" cy="314.9" r="1.7"/>
	<circle cx="209.8" cy="306.7" r="1.7"/>
	<circle cx="209.8" cy="298.4" r="1.7"/>
	<path class="st0" d="M140.3,183.2c-0.4,0-0.8-0.1-1.1-0.2s-0.5-0.4-0.7-0.7c-0.2-0.3-0.3-0.6-0.3-0.9h1.1c0.1,0.3,0.2,0.5,0.3,0.6
		c0.2,0.1,0.4,0.2,0.7,0.2c0.4,0,0.7-0.2,1-0.5s0.4-0.9,0.4-1.7c-0.1,0.2-0.4,0.4-0.6,0.6s-0.6,0.2-0.9,0.2s-0.7-0.1-1-0.2
		s-0.6-0.4-0.7-0.7s-0.3-0.7-0.3-1.1c0-0.4,0.1-0.7,0.3-1c0.2-0.3,0.4-0.6,0.8-0.8c0.3-0.2,0.7-0.3,1.1-0.3c0.5,0,0.9,0.1,1.2,0.3
		c0.3,0.2,0.6,0.4,0.8,0.7c0.2,0.3,0.3,0.6,0.4,1c0.1,0.4,0.1,0.7,0.1,1.1c0,0.7-0.1,1.3-0.3,1.8c-0.2,0.5-0.5,0.9-0.8,1.2
		S140.9,183.3,140.3,183.2L140.3,183.2z M140.4,180c0.2,0,0.4-0.1,0.6-0.1s0.3-0.2,0.4-0.4s0.1-0.3,0.1-0.5c0-0.3-0.1-0.6-0.3-0.8
		c-0.2-0.2-0.5-0.3-0.8-0.3s-0.6,0.1-0.8,0.3c-0.2,0.2-0.3,0.5-0.3,0.8c0,0.3,0.1,0.6,0.3,0.8S140,180,140.4,180L140.4,180z"/>
	<path class="st0" d="M146.8,183.2c-0.6,0-1.1-0.1-1.5-0.4s-0.7-0.6-0.9-1.1s-0.3-1-0.3-1.7s0.1-1.2,0.3-1.7s0.5-0.9,0.9-1.1
		s0.9-0.4,1.5-0.4s1.1,0.1,1.5,0.4s0.7,0.6,0.9,1.1c0.2,0.5,0.3,1,0.3,1.7s-0.1,1.2-0.3,1.7s-0.5,0.9-0.9,1.1
		S147.3,183.2,146.8,183.2z M146.8,182.2c0.5,0,0.9-0.2,1.1-0.6c0.3-0.4,0.4-0.9,0.4-1.6s-0.1-1.2-0.4-1.6c-0.3-0.4-0.7-0.6-1.1-0.6
		s-0.9,0.2-1.1,0.6s-0.4,0.9-0.4,1.6s0.1,1.2,0.4,1.6S146.3,182.2,146.8,182.2z"/>
	<path class="st0" d="M152.1,180c-0.3,0-0.5-0.1-0.8-0.2c-0.2-0.1-0.4-0.3-0.6-0.5s-0.2-0.5-0.2-0.8s0.1-0.6,0.2-0.8
		s0.3-0.4,0.6-0.5c0.2-0.1,0.5-0.2,0.8-0.2s0.5,0.1,0.8,0.2s0.4,0.3,0.5,0.5s0.2,0.5,0.2,0.8s-0.1,0.6-0.2,0.8s-0.3,0.4-0.6,0.5
		C152.6,179.9,152.3,180,152.1,180L152.1,180z M152.1,179.2c0.2,0,0.3-0.1,0.4-0.2s0.2-0.3,0.2-0.6s-0.1-0.5-0.2-0.6
		c-0.1-0.1-0.3-0.2-0.4-0.2s-0.3,0.1-0.4,0.2c-0.1,0.1-0.2,0.3-0.2,0.6s0.1,0.5,0.2,0.6C151.7,179.1,151.9,179.2,152.1,179.2
		L152.1,179.2z M151.7,183.1l3.5-6.2h1.1l-3.5,6.2H151.7z M156,183.2c-0.3,0-0.5-0.1-0.8-0.2c-0.2-0.1-0.4-0.3-0.6-0.5
		s-0.2-0.5-0.2-0.8s0.1-0.6,0.2-0.8c0.1-0.2,0.3-0.4,0.6-0.5c0.2-0.1,0.5-0.2,0.8-0.2s0.5,0.1,0.8,0.2s0.4,0.3,0.5,0.5
		c0.1,0.2,0.2,0.5,0.2,0.8s-0.1,0.6-0.2,0.8s-0.3,0.4-0.5,0.5S156.3,183.2,156,183.2L156,183.2z M156,182.5c0.2,0,0.3-0.1,0.4-0.2
		s0.2-0.3,0.2-0.6s-0.1-0.5-0.2-0.6s-0.3-0.2-0.4-0.2s-0.3,0.1-0.4,0.2c-0.1,0.1-0.2,0.3-0.2,0.6s0.1,0.5,0.2,0.6
		C155.7,182.4,155.9,182.5,156,182.5z"/>
</g>
<g>
	<path class="st2" d="M135.9,115.3v-12.6h-4.3v-2.2h11.3v2.2h-4.3v12.6H135.9z"/>
	<path class="st2" d="M144.2,115.3v-15.1h2.7v6.3c0.4-0.6,0.8-1,1.4-1.4c0.6-0.3,1.3-0.5,2.1-0.5c1.3,0,2.3,0.4,3,1.2s1.1,2,1.1,3.6
		v5.9h-2.7v-5.6c0-0.9-0.2-1.6-0.5-2.1s-0.9-0.7-1.7-0.7c-0.8,0-1.4,0.3-1.9,0.8c-0.5,0.5-0.7,1.3-0.7,2.2v5.4H144.2z"/>
	<path class="st2" d="M161.7,115.5c-1.1,0-2-0.2-2.8-0.7c-0.8-0.4-1.5-1.1-1.9-1.9s-0.7-1.8-0.7-2.8c0-1.1,0.2-2,0.7-2.9
		c0.5-0.8,1.1-1.5,1.9-2c0.8-0.5,1.8-0.7,2.8-0.7c1,0,1.9,0.2,2.7,0.7c0.8,0.4,1.4,1.1,1.8,1.8c0.4,0.8,0.7,1.6,0.7,2.6
		c0,0.2,0,0.3,0,0.5c0,0.2,0,0.3,0,0.5h-7.9c0.1,0.8,0.3,1.5,0.9,1.9s1.1,0.7,1.9,0.7c0.5,0,1-0.1,1.4-0.4c0.4-0.2,0.6-0.6,0.8-1
		h2.7c-0.2,0.7-0.5,1.3-1,1.8c-0.5,0.5-1,1-1.7,1.3C163.3,115.4,162.5,115.5,161.7,115.5z M161.7,106.8c-0.7,0-1.2,0.2-1.7,0.6
		c-0.5,0.4-0.8,0.9-1,1.7h5.2c0-0.7-0.3-1.2-0.8-1.6C163,107,162.4,106.8,161.7,106.8z"/>
	<path class="st2" d="M173.1,115.3v-10.4h2.4l0.2,1.4c0.3-0.5,0.8-0.9,1.3-1.2c0.6-0.3,1.2-0.5,1.9-0.5c1.6,0,2.8,0.6,3.4,1.9
		c0.4-0.6,0.9-1,1.5-1.4c0.6-0.3,1.3-0.5,2.1-0.5c1.4,0,2.4,0.4,3.1,1.2s1.1,2,1.1,3.6v5.9h-2.7v-5.6c0-0.9-0.2-1.6-0.5-2.1
		s-0.9-0.7-1.6-0.7c-0.7,0-1.3,0.3-1.8,0.8c-0.4,0.5-0.7,1.3-0.7,2.2v5.4h-2.7v-5.6c0-0.9-0.2-1.6-0.5-2.1s-0.9-0.7-1.6-0.7
		c-0.7,0-1.3,0.3-1.7,0.8c-0.4,0.5-0.7,1.3-0.7,2.2v5.4H173.1z"/>
	<path class="st2" d="M196,115.5c-0.9,0-1.6-0.1-2.2-0.4c-0.6-0.3-1-0.7-1.3-1.1c-0.3-0.5-0.4-1-0.4-1.6c0-1,0.4-1.8,1.1-2.4
		c0.8-0.6,1.9-0.9,3.4-0.9h2.7v-0.3c0-0.7-0.2-1.2-0.6-1.6c-0.4-0.3-0.9-0.5-1.5-0.5c-0.5,0-1,0.1-1.4,0.4s-0.7,0.6-0.8,1.1h-2.6
		c0.1-0.8,0.3-1.4,0.8-2c0.4-0.6,1-1,1.7-1.3c0.7-0.3,1.5-0.5,2.4-0.5c1.5,0,2.7,0.4,3.5,1.1s1.3,1.8,1.3,3.2v6.4h-2.3l-0.3-1.7
		c-0.3,0.6-0.7,1-1.3,1.4C197.6,115.4,196.9,115.5,196,115.5z M196.6,113.4c0.8,0,1.4-0.3,1.8-0.8s0.7-1.1,0.8-1.9h-2.3
		c-0.7,0-1.2,0.1-1.5,0.4c-0.3,0.3-0.5,0.6-0.5,1c0,0.4,0.2,0.7,0.5,0.9C195.7,113.3,196.1,113.4,196.6,113.4z"/>
	<path class="st2" d="M208.6,115.3c-1.1,0-2-0.3-2.6-0.8c-0.7-0.5-1-1.5-1-2.8v-4.5h-1.8v-2.2h1.8l0.3-2.8h2.4v2.8h2.8v2.2h-2.8v4.6
		c0,0.5,0.1,0.9,0.3,1c0.2,0.2,0.6,0.3,1.1,0.3h1.3v2.3H208.6z"/>
	<path class="st2" d="M212.3,115.3v-15.1h2.7v6.3c0.4-0.6,0.8-1,1.4-1.4c0.6-0.3,1.3-0.5,2.1-0.5c1.3,0,2.3,0.4,3,1.2s1.1,2,1.1,3.6
		v5.9h-2.7v-5.6c0-0.9-0.2-1.6-0.5-2.1s-0.9-0.7-1.7-0.7c-0.8,0-1.4,0.3-1.9,0.8c-0.5,0.5-0.7,1.3-0.7,2.2v5.4H212.3z"/>
	<path class="st2" d="M229.7,115.5c-1.1,0-2-0.2-2.8-0.7c-0.8-0.4-1.5-1.1-1.9-1.9s-0.7-1.8-0.7-2.8c0-1.1,0.2-2,0.7-2.9
		c0.5-0.8,1.1-1.5,1.9-2c0.8-0.5,1.8-0.7,2.8-0.7c1,0,1.9,0.2,2.7,0.7c0.8,0.4,1.4,1.1,1.8,1.8c0.4,0.8,0.7,1.6,0.7,2.6
		c0,0.2,0,0.3,0,0.5c0,0.2,0,0.3,0,0.5H227c0.1,0.8,0.3,1.5,0.9,1.9s1.1,0.7,1.9,0.7c0.5,0,1-0.1,1.4-0.4c0.4-0.2,0.6-0.6,0.8-1h2.7
		c-0.2,0.7-0.5,1.3-1,1.8c-0.5,0.5-1,1-1.7,1.3C231.3,115.4,230.6,115.5,229.7,115.5z M229.8,106.8c-0.7,0-1.2,0.2-1.7,0.6
		c-0.5,0.4-0.8,0.9-1,1.7h5.2c0-0.7-0.3-1.2-0.8-1.6C231,107,230.4,106.8,229.8,106.8z"/>
	<path class="st2" d="M236.8,115.3v-10.4h2.4l0.2,1.4c0.3-0.5,0.8-0.9,1.3-1.2c0.6-0.3,1.2-0.5,1.9-0.5c1.6,0,2.8,0.6,3.4,1.9
		c0.4-0.6,0.9-1,1.5-1.4c0.6-0.3,1.3-0.5,2.1-0.5c1.4,0,2.4,0.4,3.1,1.2s1.1,2,1.1,3.6v5.9h-2.7v-5.6c0-0.9-0.2-1.6-0.5-2.1
		s-0.9-0.7-1.6-0.7c-0.7,0-1.3,0.3-1.8,0.8c-0.4,0.5-0.7,1.3-0.7,2.2v5.4h-2.7v-5.6c0-0.9-0.2-1.6-0.5-2.1s-0.9-0.7-1.6-0.7
		c-0.7,0-1.3,0.3-1.7,0.8c-0.4,0.5-0.7,1.3-0.7,2.2v5.4H236.8z"/>
	<path class="st2" d="M259.7,115.5c-0.9,0-1.6-0.1-2.2-0.4c-0.6-0.3-1-0.7-1.3-1.1c-0.3-0.5-0.4-1-0.4-1.6c0-1,0.4-1.8,1.1-2.4
		c0.8-0.6,1.9-0.9,3.4-0.9h2.7v-0.3c0-0.7-0.2-1.2-0.6-1.6c-0.4-0.3-0.9-0.5-1.5-0.5c-0.5,0-1,0.1-1.4,0.4s-0.7,0.6-0.8,1.1H256
		c0.1-0.8,0.3-1.4,0.8-2c0.4-0.6,1-1,1.7-1.3c0.7-0.3,1.5-0.5,2.4-0.5c1.5,0,2.7,0.4,3.5,1.1s1.3,1.8,1.3,3.2v6.4h-2.3l-0.3-1.7
		c-0.3,0.6-0.7,1-1.3,1.4C261.3,115.4,260.6,115.5,259.7,115.5z M260.3,113.4c0.8,0,1.4-0.3,1.8-0.8s0.7-1.1,0.8-1.9h-2.3
		c-0.7,0-1.2,0.1-1.5,0.4c-0.3,0.3-0.5,0.6-0.5,1c0,0.4,0.2,0.7,0.5,0.9C259.4,113.3,259.8,113.4,260.3,113.4z"/>
	<path class="st2" d="M272.3,115.3c-1.1,0-2-0.3-2.6-0.8c-0.7-0.5-1-1.5-1-2.8v-4.5h-1.8v-2.2h1.8l0.3-2.8h2.4v2.8h2.8v2.2h-2.8v4.6
		c0,0.5,0.1,0.9,0.3,1c0.2,0.2,0.6,0.3,1.1,0.3h1.3v2.3H272.3z"/>
	<path class="st2" d="M277.3,103.2c-0.5,0-0.9-0.1-1.2-0.4s-0.5-0.7-0.5-1.1c0-0.4,0.2-0.8,0.5-1.1s0.7-0.4,1.2-0.4s0.9,0.1,1.2,0.4
		s0.5,0.7,0.5,1.1c0,0.4-0.2,0.8-0.5,1.1S277.8,103.2,277.3,103.2z M275.9,115.3v-10.4h2.7v10.4H275.9z"/>
	<path class="st2" d="M286,115.5c-1.1,0-2-0.2-2.8-0.7c-0.8-0.5-1.5-1.1-1.9-1.9c-0.5-0.8-0.7-1.8-0.7-2.8c0-1.1,0.2-2,0.7-2.8
		s1.1-1.5,1.9-1.9c0.8-0.5,1.8-0.7,2.8-0.7c1.3,0,2.5,0.3,3.4,1c0.9,0.7,1.5,1.7,1.7,2.9h-2.8c-0.1-0.5-0.4-0.9-0.8-1.2
		c-0.4-0.3-0.9-0.4-1.5-0.4c-0.7,0-1.4,0.3-1.9,0.8c-0.5,0.6-0.8,1.3-0.8,2.3c0,1,0.3,1.8,0.8,2.3c0.5,0.6,1.1,0.8,1.9,0.8
		c0.6,0,1-0.1,1.5-0.4c0.4-0.3,0.7-0.7,0.8-1.2h2.8c-0.3,1.2-0.8,2.1-1.7,2.8S287.3,115.5,286,115.5z"/>
	<path class="st2" d="M297.3,115.5c-0.9,0-1.7-0.2-2.4-0.5c-0.7-0.3-1.3-0.7-1.7-1.3s-0.7-1.1-0.8-1.9h2.7c0.1,0.4,0.3,0.8,0.7,1
		c0.4,0.3,0.9,0.4,1.4,0.4s1-0.1,1.3-0.4s0.4-0.5,0.4-0.8c0-0.4-0.2-0.8-0.6-0.9s-0.9-0.3-1.6-0.5c-0.4-0.1-0.9-0.2-1.4-0.4
		c-0.5-0.1-0.9-0.3-1.3-0.5c-0.4-0.2-0.7-0.5-0.9-0.8c-0.2-0.3-0.4-0.8-0.4-1.3c0-0.9,0.4-1.7,1.1-2.3c0.7-0.6,1.8-0.9,3.1-0.9
		c1.2,0,2.2,0.3,3,0.9c0.7,0.6,1.2,1.4,1.3,2.4h-2.5c-0.2-0.8-0.7-1.2-1.7-1.2c-0.5,0-0.9,0.1-1.2,0.3s-0.4,0.4-0.4,0.7
		c0,0.3,0.2,0.6,0.6,0.7c0.4,0.2,0.9,0.4,1.6,0.5c0.7,0.2,1.4,0.4,2,0.6s1.1,0.5,1.5,0.9c0.4,0.4,0.5,1,0.5,1.7
		c0,0.6-0.2,1.2-0.5,1.7s-0.9,0.9-1.5,1.2C299,115.4,298.2,115.5,297.3,115.5z"/>
	<path class="st2" d="M313,115.5c-1,0-1.9-0.2-2.7-0.7s-1.4-1.1-1.9-1.9s-0.7-1.8-0.7-2.9c0-1.1,0.2-2,0.7-2.8
		c0.5-0.8,1.1-1.5,1.9-1.9c0.8-0.5,1.7-0.7,2.7-0.7c1,0,1.9,0.2,2.7,0.7c0.8,0.5,1.4,1.1,1.9,1.9c0.5,0.8,0.7,1.8,0.7,2.8
		c0,1.1-0.2,2-0.7,2.9c-0.5,0.8-1.1,1.5-1.9,1.9C314.9,115.3,314,115.5,313,115.5z M313,113.2c0.7,0,1.3-0.3,1.8-0.8
		c0.5-0.5,0.8-1.3,0.8-2.3c0-1-0.3-1.8-0.8-2.3c-0.5-0.5-1.1-0.8-1.8-0.8c-0.7,0-1.3,0.3-1.8,0.8c-0.5,0.5-0.8,1.3-0.8,2.3
		c0,1,0.3,1.8,0.8,2.3C311.7,112.9,312.3,113.2,313,113.2z"/>
	<path class="st2" d="M320.7,115.3v-8.2h-1.4v-2.2h1.4v-1.2c0-1.3,0.3-2.2,1-2.7c0.6-0.5,1.5-0.8,2.6-0.8h1.2v2.3h-0.7
		c-0.5,0-0.8,0.1-1,0.3s-0.3,0.5-0.3,0.9v1.2h2.3v2.2h-2.3v8.2H320.7z"/>
	<path class="st2" d="M336.8,115.5c-1.1,0-2-0.2-2.8-0.7c-0.8-0.5-1.5-1.1-1.9-1.9c-0.5-0.8-0.7-1.8-0.7-2.8c0-1.1,0.2-2,0.7-2.8
		s1.1-1.5,1.9-1.9c0.8-0.5,1.8-0.7,2.8-0.7c1.3,0,2.5,0.3,3.4,1c0.9,0.7,1.5,1.7,1.7,2.9h-2.8c-0.1-0.5-0.4-0.9-0.8-1.2
		c-0.4-0.3-0.9-0.4-1.5-0.4c-0.7,0-1.4,0.3-1.9,0.8c-0.5,0.6-0.8,1.3-0.8,2.3c0,1,0.3,1.8,0.8,2.3c0.5,0.6,1.1,0.8,1.9,0.8
		c0.6,0,1-0.1,1.5-0.4c0.4-0.3,0.7-0.7,0.8-1.2h2.8c-0.3,1.2-0.8,2.1-1.7,2.8S338.1,115.5,336.8,115.5z"/>
	<path class="st2" d="M347.7,115.5c-1.3,0-2.3-0.4-3-1.2c-0.7-0.8-1.1-2-1.1-3.6v-5.9h2.7v5.6c0,0.9,0.2,1.6,0.5,2.1
		s0.9,0.7,1.7,0.7c0.7,0,1.4-0.3,1.8-0.8s0.7-1.3,0.7-2.2v-5.4h2.7v10.4h-2.4l-0.2-1.8c-0.3,0.6-0.8,1.1-1.4,1.5
		C349.2,115.4,348.5,115.5,347.7,115.5z"/>
	<path class="st2" d="M360.4,115.5c-0.9,0-1.7-0.2-2.4-0.5c-0.7-0.3-1.3-0.7-1.7-1.3s-0.7-1.1-0.8-1.9h2.7c0.1,0.4,0.3,0.8,0.7,1
		c0.4,0.3,0.9,0.4,1.4,0.4s1-0.1,1.3-0.4s0.4-0.5,0.4-0.8c0-0.4-0.2-0.8-0.6-0.9s-0.9-0.3-1.6-0.5c-0.4-0.1-0.9-0.2-1.4-0.4
		c-0.5-0.1-0.9-0.3-1.3-0.5c-0.4-0.2-0.7-0.5-0.9-0.8c-0.2-0.3-0.4-0.8-0.4-1.3c0-0.9,0.4-1.7,1.1-2.3c0.7-0.6,1.8-0.9,3.1-0.9
		c1.2,0,2.2,0.3,3,0.9c0.7,0.6,1.2,1.4,1.3,2.4h-2.5c-0.2-0.8-0.7-1.2-1.7-1.2c-0.5,0-0.9,0.1-1.2,0.3s-0.4,0.4-0.4,0.7
		c0,0.3,0.2,0.6,0.6,0.7c0.4,0.2,0.9,0.4,1.6,0.5c0.7,0.2,1.4,0.4,2,0.6s1.1,0.5,1.5,0.9c0.4,0.4,0.5,1,0.5,1.7
		c0,0.6-0.2,1.2-0.5,1.7s-0.9,0.9-1.5,1.2C362.1,115.4,361.3,115.5,360.4,115.5z"/>
	<path class="st2" d="M371.2,115.3c-1.1,0-2-0.3-2.6-0.8c-0.7-0.5-1-1.5-1-2.8v-4.5h-1.8v-2.2h1.8l0.3-2.8h2.4v2.8h2.8v2.2h-2.8v4.6
		c0,0.5,0.1,0.9,0.3,1c0.2,0.2,0.6,0.3,1.1,0.3h1.3v2.3H371.2z"/>
	<path class="st2" d="M379.6,115.5c-1,0-1.9-0.2-2.7-0.7s-1.4-1.1-1.9-1.9s-0.7-1.8-0.7-2.9c0-1.1,0.2-2,0.7-2.8
		c0.5-0.8,1.1-1.5,1.9-1.9c0.8-0.5,1.7-0.7,2.7-0.7c1,0,1.9,0.2,2.7,0.7c0.8,0.5,1.4,1.1,1.9,1.9c0.5,0.8,0.7,1.8,0.7,2.8
		c0,1.1-0.2,2-0.7,2.9c-0.5,0.8-1.1,1.5-1.9,1.9C381.5,115.3,380.6,115.5,379.6,115.5z M379.6,113.2c0.7,0,1.3-0.3,1.8-0.8
		c0.5-0.5,0.8-1.3,0.8-2.3c0-1-0.3-1.8-0.8-2.3c-0.5-0.5-1.1-0.8-1.8-0.8c-0.7,0-1.3,0.3-1.8,0.8c-0.5,0.5-0.8,1.3-0.8,2.3
		c0,1,0.3,1.8,0.8,2.3C378.3,112.9,378.9,113.2,379.6,113.2z"/>
	<path class="st2" d="M386.8,115.3v-10.4h2.4l0.2,1.4c0.3-0.5,0.8-0.9,1.3-1.2c0.6-0.3,1.2-0.5,1.9-0.5c1.6,0,2.8,0.6,3.4,1.9
		c0.4-0.6,0.9-1,1.5-1.4c0.6-0.3,1.3-0.5,2.1-0.5c1.4,0,2.4,0.4,3.1,1.2s1.1,2,1.1,3.6v5.9h-2.7v-5.6c0-0.9-0.2-1.6-0.5-2.1
		s-0.9-0.7-1.6-0.7c-0.7,0-1.3,0.3-1.8,0.8c-0.4,0.5-0.7,1.3-0.7,2.2v5.4h-2.7v-5.6c0-0.9-0.2-1.6-0.5-2.1s-0.9-0.7-1.6-0.7
		c-0.7,0-1.3,0.3-1.7,0.8c-0.4,0.5-0.7,1.3-0.7,2.2v5.4H386.8z"/>
	<path class="st2" d="M411.2,115.5c-1.1,0-2-0.2-2.8-0.7c-0.8-0.4-1.5-1.1-1.9-1.9s-0.7-1.8-0.7-2.8c0-1.1,0.2-2,0.7-2.9
		c0.5-0.8,1.1-1.5,1.9-2c0.8-0.5,1.8-0.7,2.8-0.7c1,0,1.9,0.2,2.7,0.7c0.8,0.4,1.4,1.1,1.8,1.8c0.4,0.8,0.7,1.6,0.7,2.6
		c0,0.2,0,0.3,0,0.5c0,0.2,0,0.3,0,0.5h-7.9c0.1,0.8,0.3,1.5,0.9,1.9s1.1,0.7,1.9,0.7c0.5,0,1-0.1,1.4-0.4c0.4-0.2,0.6-0.6,0.8-1
		h2.7c-0.2,0.7-0.5,1.3-1,1.8c-0.5,0.5-1,1-1.7,1.3C412.8,115.4,412,115.5,411.2,115.5z M411.2,106.8c-0.7,0-1.2,0.2-1.7,0.6
		c-0.5,0.4-0.8,0.9-1,1.7h5.2c0-0.7-0.3-1.2-0.8-1.6C412.5,107,411.9,106.8,411.2,106.8z"/>
	<path class="st2" d="M418.3,115.3v-10.4h2.4l0.3,2c0.4-0.7,0.9-1.2,1.5-1.6s1.4-0.6,2.3-0.6v2.8H424c-0.6,0-1.1,0.1-1.6,0.3
		c-0.5,0.2-0.8,0.5-1.1,0.9c-0.3,0.4-0.4,1.1-0.4,1.9v4.8H418.3z"/>
	<path class="st2" d="M430.6,115.3v-10.4h2.4l0.3,2c0.4-0.7,0.9-1.2,1.5-1.6s1.4-0.6,2.3-0.6v2.8h-0.8c-0.6,0-1.1,0.1-1.6,0.3
		c-0.5,0.2-0.8,0.5-1.1,0.9c-0.3,0.4-0.4,1.1-0.4,1.9v4.8H430.6z"/>
	<path class="st2" d="M443.4,115.5c-1.1,0-2-0.2-2.8-0.7c-0.8-0.4-1.5-1.1-1.9-1.9s-0.7-1.8-0.7-2.8c0-1.1,0.2-2,0.7-2.9
		c0.5-0.8,1.1-1.5,1.9-2c0.8-0.5,1.8-0.7,2.8-0.7c1,0,1.9,0.2,2.7,0.7c0.8,0.4,1.4,1.1,1.8,1.8c0.4,0.8,0.7,1.6,0.7,2.6
		c0,0.2,0,0.3,0,0.5c0,0.2,0,0.3,0,0.5h-7.9c0.1,0.8,0.3,1.5,0.9,1.9s1.1,0.7,1.9,0.7c0.5,0,1-0.1,1.4-0.4c0.4-0.2,0.6-0.6,0.8-1
		h2.7c-0.2,0.7-0.5,1.3-1,1.8c-0.5,0.5-1,1-1.7,1.3C445,115.4,444.3,115.5,443.4,115.5z M443.4,106.8c-0.7,0-1.2,0.2-1.7,0.6
		c-0.5,0.4-0.8,0.9-1,1.7h5.2c0-0.7-0.3-1.2-0.8-1.6C444.7,107,444.1,106.8,443.4,106.8z"/>
	<path class="st2" d="M455,115.3c-1.1,0-2-0.3-2.6-0.8c-0.7-0.5-1-1.5-1-2.8v-4.5h-1.8v-2.2h1.8l0.3-2.8h2.4v2.8h2.8v2.2h-2.8v4.6
		c0,0.5,0.1,0.9,0.3,1c0.2,0.2,0.6,0.3,1.1,0.3h1.3v2.3H455z"/>
	<path class="st2" d="M463.5,115.5c-1.1,0-2-0.2-2.8-0.7c-0.8-0.4-1.5-1.1-1.9-1.9s-0.7-1.8-0.7-2.8c0-1.1,0.2-2,0.7-2.9
		c0.5-0.8,1.1-1.5,1.9-2c0.8-0.5,1.8-0.7,2.8-0.7c1,0,1.9,0.2,2.7,0.7c0.8,0.4,1.4,1.1,1.8,1.8c0.4,0.8,0.7,1.6,0.7,2.6
		c0,0.2,0,0.3,0,0.5c0,0.2,0,0.3,0,0.5h-7.9c0.1,0.8,0.3,1.5,0.9,1.9s1.1,0.7,1.9,0.7c0.5,0,1-0.1,1.4-0.4c0.4-0.2,0.6-0.6,0.8-1
		h2.7c-0.2,0.7-0.5,1.3-1,1.8c-0.5,0.5-1,1-1.7,1.3C465.1,115.4,464.3,115.5,463.5,115.5z M463.5,106.8c-0.7,0-1.2,0.2-1.7,0.6
		c-0.5,0.4-0.8,0.9-1,1.7h5.2c0-0.7-0.3-1.2-0.8-1.6C464.7,107,464.2,106.8,463.5,106.8z"/>
	<path class="st2" d="M470.6,115.3v-10.4h2.4l0.2,1.8c0.3-0.6,0.8-1.1,1.4-1.5c0.6-0.4,1.3-0.5,2.2-0.5c1.3,0,2.3,0.4,3,1.2
		c0.7,0.8,1.1,2,1.1,3.6v5.9h-2.7v-5.6c0-0.9-0.2-1.6-0.5-2.1c-0.4-0.5-0.9-0.7-1.7-0.7c-0.8,0-1.4,0.3-1.9,0.8s-0.7,1.3-0.7,2.2
		v5.4H470.6z"/>
	<path class="st2" d="M487.4,115.3c-1.1,0-2-0.3-2.6-0.8c-0.7-0.5-1-1.5-1-2.8v-4.5H482v-2.2h1.8l0.3-2.8h2.4v2.8h2.8v2.2h-2.8v4.6
		c0,0.5,0.1,0.9,0.3,1c0.2,0.2,0.6,0.3,1.1,0.3h1.3v2.3H487.4z"/>
	<path class="st2" d="M492.4,103.2c-0.5,0-0.9-0.1-1.2-0.4s-0.5-0.7-0.5-1.1c0-0.4,0.2-0.8,0.5-1.1s0.7-0.4,1.2-0.4s0.9,0.1,1.2,0.4
		s0.5,0.7,0.5,1.1c0,0.4-0.2,0.8-0.5,1.1S492.9,103.2,492.4,103.2z M491,115.3v-10.4h2.7v10.4H491z"/>
	<path class="st2" d="M500.9,115.5c-1,0-1.9-0.2-2.7-0.7s-1.4-1.1-1.9-1.9s-0.7-1.8-0.7-2.9c0-1.1,0.2-2,0.7-2.8
		c0.5-0.8,1.1-1.5,1.9-1.9c0.8-0.5,1.7-0.7,2.7-0.7c1,0,1.9,0.2,2.7,0.7c0.8,0.5,1.4,1.1,1.9,1.9c0.5,0.8,0.7,1.8,0.7,2.8
		c0,1.1-0.2,2-0.7,2.9c-0.5,0.8-1.1,1.5-1.9,1.9C502.8,115.3,501.9,115.5,500.9,115.5z M500.9,113.2c0.7,0,1.3-0.3,1.8-0.8
		c0.5-0.5,0.8-1.3,0.8-2.3c0-1-0.3-1.8-0.8-2.3c-0.5-0.5-1.1-0.8-1.8-0.8c-0.7,0-1.3,0.3-1.8,0.8c-0.5,0.5-0.8,1.3-0.8,2.3
		c0,1,0.3,1.8,0.8,2.3C499.6,112.9,500.2,113.2,500.9,113.2z"/>
	<path class="st2" d="M508.2,115.3v-10.4h2.4l0.2,1.8c0.3-0.6,0.8-1.1,1.4-1.5c0.6-0.4,1.3-0.5,2.2-0.5c1.3,0,2.3,0.4,3,1.2
		c0.7,0.8,1.1,2,1.1,3.6v5.9h-2.7v-5.6c0-0.9-0.2-1.6-0.5-2.1c-0.4-0.5-0.9-0.7-1.7-0.7c-0.8,0-1.4,0.3-1.9,0.8s-0.7,1.3-0.7,2.2
		v5.4H508.2z"/>
</g>
<g>
	<path class="st13" d="M135.9,115.3v-12.6h-4.3v-2.2h11.3v2.2h-4.3v12.6H135.9z"/>
	<path class="st13" d="M144.2,115.3v-15.1h2.7v6.3c0.4-0.6,0.8-1,1.4-1.4c0.6-0.3,1.3-0.5,2.1-0.5c1.3,0,2.3,0.4,3,1.2
		s1.1,2,1.1,3.6v5.9h-2.7v-5.6c0-0.9-0.2-1.6-0.5-2.1s-0.9-0.7-1.7-0.7c-0.8,0-1.4,0.3-1.9,0.8c-0.5,0.5-0.7,1.3-0.7,2.2v5.4H144.2z
		"/>
	<path class="st13" d="M161.7,115.5c-1.1,0-2-0.2-2.8-0.7c-0.8-0.4-1.5-1.1-1.9-1.9s-0.7-1.8-0.7-2.8c0-1.1,0.2-2,0.7-2.9
		c0.5-0.8,1.1-1.5,1.9-2c0.8-0.5,1.8-0.7,2.8-0.7c1,0,1.9,0.2,2.7,0.7c0.8,0.4,1.4,1.1,1.8,1.8c0.4,0.8,0.7,1.6,0.7,2.6
		c0,0.2,0,0.3,0,0.5c0,0.2,0,0.3,0,0.5h-7.9c0.1,0.8,0.3,1.5,0.9,1.9s1.1,0.7,1.9,0.7c0.5,0,1-0.1,1.4-0.4c0.4-0.2,0.6-0.6,0.8-1
		h2.7c-0.2,0.7-0.5,1.3-1,1.8c-0.5,0.5-1,1-1.7,1.3C163.3,115.4,162.5,115.5,161.7,115.5z M161.7,106.8c-0.7,0-1.2,0.2-1.7,0.6
		c-0.5,0.4-0.8,0.9-1,1.7h5.2c0-0.7-0.3-1.2-0.8-1.6C163,107,162.4,106.8,161.7,106.8z"/>
	<path class="st13" d="M173.1,115.3v-10.4h2.4l0.2,1.4c0.3-0.5,0.8-0.9,1.3-1.2c0.6-0.3,1.2-0.5,1.9-0.5c1.6,0,2.8,0.6,3.4,1.9
		c0.4-0.6,0.9-1,1.5-1.4c0.6-0.3,1.3-0.5,2.1-0.5c1.4,0,2.4,0.4,3.1,1.2s1.1,2,1.1,3.6v5.9h-2.7v-5.6c0-0.9-0.2-1.6-0.5-2.1
		s-0.9-0.7-1.6-0.7c-0.7,0-1.3,0.3-1.8,0.8c-0.4,0.5-0.7,1.3-0.7,2.2v5.4h-2.7v-5.6c0-0.9-0.2-1.6-0.5-2.1s-0.9-0.7-1.6-0.7
		c-0.7,0-1.3,0.3-1.7,0.8c-0.4,0.5-0.7,1.3-0.7,2.2v5.4H173.1z"/>
	<path class="st13" d="M196,115.5c-0.9,0-1.6-0.1-2.2-0.4c-0.6-0.3-1-0.7-1.3-1.1c-0.3-0.5-0.4-1-0.4-1.6c0-1,0.4-1.8,1.1-2.4
		c0.8-0.6,1.9-0.9,3.4-0.9h2.7v-0.3c0-0.7-0.2-1.2-0.6-1.6c-0.4-0.3-0.9-0.5-1.5-0.5c-0.5,0-1,0.1-1.4,0.4s-0.7,0.6-0.8,1.1h-2.6
		c0.1-0.8,0.3-1.4,0.8-2c0.4-0.6,1-1,1.7-1.3c0.7-0.3,1.5-0.5,2.4-0.5c1.5,0,2.7,0.4,3.5,1.1s1.3,1.8,1.3,3.2v6.4h-2.3l-0.3-1.7
		c-0.3,0.6-0.7,1-1.3,1.4C197.6,115.4,196.9,115.5,196,115.5z M196.6,113.4c0.8,0,1.4-0.3,1.8-0.8s0.7-1.1,0.8-1.9h-2.3
		c-0.7,0-1.2,0.1-1.5,0.4c-0.3,0.3-0.5,0.6-0.5,1c0,0.4,0.2,0.7,0.5,0.9C195.7,113.3,196.1,113.4,196.6,113.4z"/>
	<path class="st13" d="M208.6,115.3c-1.1,0-2-0.3-2.6-0.8c-0.7-0.5-1-1.5-1-2.8v-4.5h-1.8v-2.2h1.8l0.3-2.8h2.4v2.8h2.8v2.2h-2.8
		v4.6c0,0.5,0.1,0.9,0.3,1c0.2,0.2,0.6,0.3,1.1,0.3h1.3v2.3H208.6z"/>
	<path class="st13" d="M212.3,115.3v-15.1h2.7v6.3c0.4-0.6,0.8-1,1.4-1.4c0.6-0.3,1.3-0.5,2.1-0.5c1.3,0,2.3,0.4,3,1.2
		s1.1,2,1.1,3.6v5.9h-2.7v-5.6c0-0.9-0.2-1.6-0.5-2.1s-0.9-0.7-1.7-0.7c-0.8,0-1.4,0.3-1.9,0.8c-0.5,0.5-0.7,1.3-0.7,2.2v5.4H212.3z
		"/>
	<path class="st13" d="M229.7,115.5c-1.1,0-2-0.2-2.8-0.7c-0.8-0.4-1.5-1.1-1.9-1.9s-0.7-1.8-0.7-2.8c0-1.1,0.2-2,0.7-2.9
		c0.5-0.8,1.1-1.5,1.9-2c0.8-0.5,1.8-0.7,2.8-0.7c1,0,1.9,0.2,2.7,0.7c0.8,0.4,1.4,1.1,1.8,1.8c0.4,0.8,0.7,1.6,0.7,2.6
		c0,0.2,0,0.3,0,0.5c0,0.2,0,0.3,0,0.5H227c0.1,0.8,0.3,1.5,0.9,1.9s1.1,0.7,1.9,0.7c0.5,0,1-0.1,1.4-0.4c0.4-0.2,0.6-0.6,0.8-1h2.7
		c-0.2,0.7-0.5,1.3-1,1.8c-0.5,0.5-1,1-1.7,1.3C231.3,115.4,230.6,115.5,229.7,115.5z M229.8,106.8c-0.7,0-1.2,0.2-1.7,0.6
		c-0.5,0.4-0.8,0.9-1,1.7h5.2c0-0.7-0.3-1.2-0.8-1.6C231,107,230.4,106.8,229.8,106.8z"/>
	<path class="st13" d="M236.8,115.3v-10.4h2.4l0.2,1.4c0.3-0.5,0.8-0.9,1.3-1.2c0.6-0.3,1.2-0.5,1.9-0.5c1.6,0,2.8,0.6,3.4,1.9
		c0.4-0.6,0.9-1,1.5-1.4c0.6-0.3,1.3-0.5,2.1-0.5c1.4,0,2.4,0.4,3.1,1.2s1.1,2,1.1,3.6v5.9h-2.7v-5.6c0-0.9-0.2-1.6-0.5-2.1
		s-0.9-0.7-1.6-0.7c-0.7,0-1.3,0.3-1.8,0.8c-0.4,0.5-0.7,1.3-0.7,2.2v5.4h-2.7v-5.6c0-0.9-0.2-1.6-0.5-2.1s-0.9-0.7-1.6-0.7
		c-0.7,0-1.3,0.3-1.7,0.8c-0.4,0.5-0.7,1.3-0.7,2.2v5.4H236.8z"/>
	<path class="st13" d="M259.7,115.5c-0.9,0-1.6-0.1-2.2-0.4c-0.6-0.3-1-0.7-1.3-1.1c-0.3-0.5-0.4-1-0.4-1.6c0-1,0.4-1.8,1.1-2.4
		c0.8-0.6,1.9-0.9,3.4-0.9h2.7v-0.3c0-0.7-0.2-1.2-0.6-1.6c-0.4-0.3-0.9-0.5-1.5-0.5c-0.5,0-1,0.1-1.4,0.4s-0.7,0.6-0.8,1.1H256
		c0.1-0.8,0.3-1.4,0.8-2c0.4-0.6,1-1,1.7-1.3c0.7-0.3,1.5-0.5,2.4-0.5c1.5,0,2.7,0.4,3.5,1.1s1.3,1.8,1.3,3.2v6.4h-2.3l-0.3-1.7
		c-0.3,0.6-0.7,1-1.3,1.4C261.3,115.4,260.6,115.5,259.7,115.5z M260.3,113.4c0.8,0,1.4-0.3,1.8-0.8s0.7-1.1,0.8-1.9h-2.3
		c-0.7,0-1.2,0.1-1.5,0.4c-0.3,0.3-0.5,0.6-0.5,1c0,0.4,0.2,0.7,0.5,0.9C259.4,113.3,259.8,113.4,260.3,113.4z"/>
	<path class="st13" d="M272.3,115.3c-1.1,0-2-0.3-2.6-0.8c-0.7-0.5-1-1.5-1-2.8v-4.5h-1.8v-2.2h1.8l0.3-2.8h2.4v2.8h2.8v2.2h-2.8
		v4.6c0,0.5,0.1,0.9,0.3,1c0.2,0.2,0.6,0.3,1.1,0.3h1.3v2.3H272.3z"/>
	<path class="st13" d="M277.3,103.2c-0.5,0-0.9-0.1-1.2-0.4s-0.5-0.7-0.5-1.1c0-0.4,0.2-0.8,0.5-1.1s0.7-0.4,1.2-0.4
		s0.9,0.1,1.2,0.4s0.5,0.7,0.5,1.1c0,0.4-0.2,0.8-0.5,1.1S277.8,103.2,277.3,103.2z M275.9,115.3v-10.4h2.7v10.4H275.9z"/>
	<path class="st13" d="M286,115.5c-1.1,0-2-0.2-2.8-0.7c-0.8-0.5-1.5-1.1-1.9-1.9c-0.5-0.8-0.7-1.8-0.7-2.8c0-1.1,0.2-2,0.7-2.8
		s1.1-1.5,1.9-1.9c0.8-0.5,1.8-0.7,2.8-0.7c1.3,0,2.5,0.3,3.4,1c0.9,0.7,1.5,1.7,1.7,2.9h-2.8c-0.1-0.5-0.4-0.9-0.8-1.2
		c-0.4-0.3-0.9-0.4-1.5-0.4c-0.7,0-1.4,0.3-1.9,0.8c-0.5,0.6-0.8,1.3-0.8,2.3c0,1,0.3,1.8,0.8,2.3c0.5,0.6,1.1,0.8,1.9,0.8
		c0.6,0,1-0.1,1.5-0.4c0.4-0.3,0.7-0.7,0.8-1.2h2.8c-0.3,1.2-0.8,2.1-1.7,2.8S287.3,115.5,286,115.5z"/>
	<path class="st13" d="M297.3,115.5c-0.9,0-1.7-0.2-2.4-0.5c-0.7-0.3-1.3-0.7-1.7-1.3s-0.7-1.1-0.8-1.9h2.7c0.1,0.4,0.3,0.8,0.7,1
		c0.4,0.3,0.9,0.4,1.4,0.4s1-0.1,1.3-0.4s0.4-0.5,0.4-0.8c0-0.4-0.2-0.8-0.6-0.9s-0.9-0.3-1.6-0.5c-0.4-0.1-0.9-0.2-1.4-0.4
		c-0.5-0.1-0.9-0.3-1.3-0.5c-0.4-0.2-0.7-0.5-0.9-0.8c-0.2-0.3-0.4-0.8-0.4-1.3c0-0.9,0.4-1.7,1.1-2.3c0.7-0.6,1.8-0.9,3.1-0.9
		c1.2,0,2.2,0.3,3,0.9c0.7,0.6,1.2,1.4,1.3,2.4h-2.5c-0.2-0.8-0.7-1.2-1.7-1.2c-0.5,0-0.9,0.1-1.2,0.3s-0.4,0.4-0.4,0.7
		c0,0.3,0.2,0.6,0.6,0.7c0.4,0.2,0.9,0.4,1.6,0.5c0.7,0.2,1.4,0.4,2,0.6s1.1,0.5,1.5,0.9c0.4,0.4,0.5,1,0.5,1.7
		c0,0.6-0.2,1.2-0.5,1.7s-0.9,0.9-1.5,1.2C299,115.4,298.2,115.5,297.3,115.5z"/>
	<path class="st13" d="M313,115.5c-1,0-1.9-0.2-2.7-0.7s-1.4-1.1-1.9-1.9s-0.7-1.8-0.7-2.9c0-1.1,0.2-2,0.7-2.8
		c0.5-0.8,1.1-1.5,1.9-1.9c0.8-0.5,1.7-0.7,2.7-0.7c1,0,1.9,0.2,2.7,0.7c0.8,0.5,1.4,1.1,1.9,1.9c0.5,0.8,0.7,1.8,0.7,2.8
		c0,1.1-0.2,2-0.7,2.9c-0.5,0.8-1.1,1.5-1.9,1.9C314.9,115.3,314,115.5,313,115.5z M313,113.2c0.7,0,1.3-0.3,1.8-0.8
		c0.5-0.5,0.8-1.3,0.8-2.3c0-1-0.3-1.8-0.8-2.3c-0.5-0.5-1.1-0.8-1.8-0.8c-0.7,0-1.3,0.3-1.8,0.8c-0.5,0.5-0.8,1.3-0.8,2.3
		c0,1,0.3,1.8,0.8,2.3C311.7,112.9,312.3,113.2,313,113.2z"/>
	<path class="st13" d="M320.7,115.3v-8.2h-1.4v-2.2h1.4v-1.2c0-1.3,0.3-2.2,1-2.7c0.6-0.5,1.5-0.8,2.6-0.8h1.2v2.3h-0.7
		c-0.5,0-0.8,0.1-1,0.3s-0.3,0.5-0.3,0.9v1.2h2.3v2.2h-2.3v8.2H320.7z"/>
	<path class="st13" d="M336.8,115.5c-1.1,0-2-0.2-2.8-0.7c-0.8-0.5-1.5-1.1-1.9-1.9c-0.5-0.8-0.7-1.8-0.7-2.8c0-1.1,0.2-2,0.7-2.8
		s1.1-1.5,1.9-1.9c0.8-0.5,1.8-0.7,2.8-0.7c1.3,0,2.5,0.3,3.4,1c0.9,0.7,1.5,1.7,1.7,2.9h-2.8c-0.1-0.5-0.4-0.9-0.8-1.2
		c-0.4-0.3-0.9-0.4-1.5-0.4c-0.7,0-1.4,0.3-1.9,0.8c-0.5,0.6-0.8,1.3-0.8,2.3c0,1,0.3,1.8,0.8,2.3c0.5,0.6,1.1,0.8,1.9,0.8
		c0.6,0,1-0.1,1.5-0.4c0.4-0.3,0.7-0.7,0.8-1.2h2.8c-0.3,1.2-0.8,2.1-1.7,2.8S338.1,115.5,336.8,115.5z"/>
	<path class="st13" d="M347.7,115.5c-1.3,0-2.3-0.4-3-1.2c-0.7-0.8-1.1-2-1.1-3.6v-5.9h2.7v5.6c0,0.9,0.2,1.6,0.5,2.1
		s0.9,0.7,1.7,0.7c0.7,0,1.4-0.3,1.8-0.8s0.7-1.3,0.7-2.2v-5.4h2.7v10.4h-2.4l-0.2-1.8c-0.3,0.6-0.8,1.1-1.4,1.5
		C349.2,115.4,348.5,115.5,347.7,115.5z"/>
	<path class="st13" d="M360.4,115.5c-0.9,0-1.7-0.2-2.4-0.5c-0.7-0.3-1.3-0.7-1.7-1.3s-0.7-1.1-0.8-1.9h2.7c0.1,0.4,0.3,0.8,0.7,1
		c0.4,0.3,0.9,0.4,1.4,0.4s1-0.1,1.3-0.4s0.4-0.5,0.4-0.8c0-0.4-0.2-0.8-0.6-0.9s-0.9-0.3-1.6-0.5c-0.4-0.1-0.9-0.2-1.4-0.4
		c-0.5-0.1-0.9-0.3-1.3-0.5c-0.4-0.2-0.7-0.5-0.9-0.8c-0.2-0.3-0.4-0.8-0.4-1.3c0-0.9,0.4-1.7,1.1-2.3c0.7-0.6,1.8-0.9,3.1-0.9
		c1.2,0,2.2,0.3,3,0.9c0.7,0.6,1.2,1.4,1.3,2.4h-2.5c-0.2-0.8-0.7-1.2-1.7-1.2c-0.5,0-0.9,0.1-1.2,0.3s-0.4,0.4-0.4,0.7
		c0,0.3,0.2,0.6,0.6,0.7c0.4,0.2,0.9,0.4,1.6,0.5c0.7,0.2,1.4,0.4,2,0.6s1.1,0.5,1.5,0.9c0.4,0.4,0.5,1,0.5,1.7
		c0,0.6-0.2,1.2-0.5,1.7s-0.9,0.9-1.5,1.2C362.1,115.4,361.3,115.5,360.4,115.5z"/>
	<path class="st13" d="M371.2,115.3c-1.1,0-2-0.3-2.6-0.8c-0.7-0.5-1-1.5-1-2.8v-4.5h-1.8v-2.2h1.8l0.3-2.8h2.4v2.8h2.8v2.2h-2.8
		v4.6c0,0.5,0.1,0.9,0.3,1c0.2,0.2,0.6,0.3,1.1,0.3h1.3v2.3H371.2z"/>
	<path class="st13" d="M379.6,115.5c-1,0-1.9-0.2-2.7-0.7s-1.4-1.1-1.9-1.9s-0.7-1.8-0.7-2.9c0-1.1,0.2-2,0.7-2.8
		c0.5-0.8,1.1-1.5,1.9-1.9c0.8-0.5,1.7-0.7,2.7-0.7c1,0,1.9,0.2,2.7,0.7c0.8,0.5,1.4,1.1,1.9,1.9c0.5,0.8,0.7,1.8,0.7,2.8
		c0,1.1-0.2,2-0.7,2.9c-0.5,0.8-1.1,1.5-1.9,1.9C381.5,115.3,380.6,115.5,379.6,115.5z M379.6,113.2c0.7,0,1.3-0.3,1.8-0.8
		c0.5-0.5,0.8-1.3,0.8-2.3c0-1-0.3-1.8-0.8-2.3c-0.5-0.5-1.1-0.8-1.8-0.8c-0.7,0-1.3,0.3-1.8,0.8c-0.5,0.5-0.8,1.3-0.8,2.3
		c0,1,0.3,1.8,0.8,2.3C378.3,112.9,378.9,113.2,379.6,113.2z"/>
	<path class="st13" d="M386.8,115.3v-10.4h2.4l0.2,1.4c0.3-0.5,0.8-0.9,1.3-1.2c0.6-0.3,1.2-0.5,1.9-0.5c1.6,0,2.8,0.6,3.4,1.9
		c0.4-0.6,0.9-1,1.5-1.4c0.6-0.3,1.3-0.5,2.1-0.5c1.4,0,2.4,0.4,3.1,1.2s1.1,2,1.1,3.6v5.9h-2.7v-5.6c0-0.9-0.2-1.6-0.5-2.1
		s-0.9-0.7-1.6-0.7c-0.7,0-1.3,0.3-1.8,0.8c-0.4,0.5-0.7,1.3-0.7,2.2v5.4h-2.7v-5.6c0-0.9-0.2-1.6-0.5-2.1s-0.9-0.7-1.6-0.7
		c-0.7,0-1.3,0.3-1.7,0.8c-0.4,0.5-0.7,1.3-0.7,2.2v5.4H386.8z"/>
	<path class="st13" d="M411.2,115.5c-1.1,0-2-0.2-2.8-0.7c-0.8-0.4-1.5-1.1-1.9-1.9s-0.7-1.8-0.7-2.8c0-1.1,0.2-2,0.7-2.9
		c0.5-0.8,1.1-1.5,1.9-2c0.8-0.5,1.8-0.7,2.8-0.7c1,0,1.9,0.2,2.7,0.7c0.8,0.4,1.4,1.1,1.8,1.8c0.4,0.8,0.7,1.6,0.7,2.6
		c0,0.2,0,0.3,0,0.5c0,0.2,0,0.3,0,0.5h-7.9c0.1,0.8,0.3,1.5,0.9,1.9s1.1,0.7,1.9,0.7c0.5,0,1-0.1,1.4-0.4c0.4-0.2,0.6-0.6,0.8-1
		h2.7c-0.2,0.7-0.5,1.3-1,1.8c-0.5,0.5-1,1-1.7,1.3C412.8,115.4,412,115.5,411.2,115.5z M411.2,106.8c-0.7,0-1.2,0.2-1.7,0.6
		c-0.5,0.4-0.8,0.9-1,1.7h5.2c0-0.7-0.3-1.2-0.8-1.6C412.5,107,411.9,106.8,411.2,106.8z"/>
	<path class="st13" d="M418.3,115.3v-10.4h2.4l0.3,2c0.4-0.7,0.9-1.2,1.5-1.6s1.4-0.6,2.3-0.6v2.8H424c-0.6,0-1.1,0.1-1.6,0.3
		c-0.5,0.2-0.8,0.5-1.1,0.9c-0.3,0.4-0.4,1.1-0.4,1.9v4.8H418.3z"/>
	<path class="st13" d="M430.6,115.3v-10.4h2.4l0.3,2c0.4-0.7,0.9-1.2,1.5-1.6s1.4-0.6,2.3-0.6v2.8h-0.8c-0.6,0-1.1,0.1-1.6,0.3
		c-0.5,0.2-0.8,0.5-1.1,0.9c-0.3,0.4-0.4,1.1-0.4,1.9v4.8H430.6z"/>
	<path class="st13" d="M443.4,115.5c-1.1,0-2-0.2-2.8-0.7c-0.8-0.4-1.5-1.1-1.9-1.9s-0.7-1.8-0.7-2.8c0-1.1,0.2-2,0.7-2.9
		c0.5-0.8,1.1-1.5,1.9-2c0.8-0.5,1.8-0.7,2.8-0.7c1,0,1.9,0.2,2.7,0.7c0.8,0.4,1.4,1.1,1.8,1.8c0.4,0.8,0.7,1.6,0.7,2.6
		c0,0.2,0,0.3,0,0.5c0,0.2,0,0.3,0,0.5h-7.9c0.1,0.8,0.3,1.5,0.9,1.9s1.1,0.7,1.9,0.7c0.5,0,1-0.1,1.4-0.4c0.4-0.2,0.6-0.6,0.8-1
		h2.7c-0.2,0.7-0.5,1.3-1,1.8c-0.5,0.5-1,1-1.7,1.3C445,115.4,444.3,115.5,443.4,115.5z M443.4,106.8c-0.7,0-1.2,0.2-1.7,0.6
		c-0.5,0.4-0.8,0.9-1,1.7h5.2c0-0.7-0.3-1.2-0.8-1.6C444.7,107,444.1,106.8,443.4,106.8z"/>
	<path class="st13" d="M455,115.3c-1.1,0-2-0.3-2.6-0.8c-0.7-0.5-1-1.5-1-2.8v-4.5h-1.8v-2.2h1.8l0.3-2.8h2.4v2.8h2.8v2.2h-2.8v4.6
		c0,0.5,0.1,0.9,0.3,1c0.2,0.2,0.6,0.3,1.1,0.3h1.3v2.3H455z"/>
	<path class="st13" d="M463.5,115.5c-1.1,0-2-0.2-2.8-0.7c-0.8-0.4-1.5-1.1-1.9-1.9s-0.7-1.8-0.7-2.8c0-1.1,0.2-2,0.7-2.9
		c0.5-0.8,1.1-1.5,1.9-2c0.8-0.5,1.8-0.7,2.8-0.7c1,0,1.9,0.2,2.7,0.7c0.8,0.4,1.4,1.1,1.8,1.8c0.4,0.8,0.7,1.6,0.7,2.6
		c0,0.2,0,0.3,0,0.5c0,0.2,0,0.3,0,0.5h-7.9c0.1,0.8,0.3,1.5,0.9,1.9s1.1,0.7,1.9,0.7c0.5,0,1-0.1,1.4-0.4c0.4-0.2,0.6-0.6,0.8-1
		h2.7c-0.2,0.7-0.5,1.3-1,1.8c-0.5,0.5-1,1-1.7,1.3C465.1,115.4,464.3,115.5,463.5,115.5z M463.5,106.8c-0.7,0-1.2,0.2-1.7,0.6
		c-0.5,0.4-0.8,0.9-1,1.7h5.2c0-0.7-0.3-1.2-0.8-1.6C464.7,107,464.2,106.8,463.5,106.8z"/>
	<path class="st13" d="M470.6,115.3v-10.4h2.4l0.2,1.8c0.3-0.6,0.8-1.1,1.4-1.5c0.6-0.4,1.3-0.5,2.2-0.5c1.3,0,2.3,0.4,3,1.2
		c0.7,0.8,1.1,2,1.1,3.6v5.9h-2.7v-5.6c0-0.9-0.2-1.6-0.5-2.1c-0.4-0.5-0.9-0.7-1.7-0.7c-0.8,0-1.4,0.3-1.9,0.8s-0.7,1.3-0.7,2.2
		v5.4H470.6z"/>
	<path class="st13" d="M487.4,115.3c-1.1,0-2-0.3-2.6-0.8c-0.7-0.5-1-1.5-1-2.8v-4.5H482v-2.2h1.8l0.3-2.8h2.4v2.8h2.8v2.2h-2.8v4.6
		c0,0.5,0.1,0.9,0.3,1c0.2,0.2,0.6,0.3,1.1,0.3h1.3v2.3H487.4z"/>
	<path class="st13" d="M492.4,103.2c-0.5,0-0.9-0.1-1.2-0.4s-0.5-0.7-0.5-1.1c0-0.4,0.2-0.8,0.5-1.1s0.7-0.4,1.2-0.4
		s0.9,0.1,1.2,0.4s0.5,0.7,0.5,1.1c0,0.4-0.2,0.8-0.5,1.1S492.9,103.2,492.4,103.2z M491,115.3v-10.4h2.7v10.4H491z"/>
	<path class="st13" d="M500.9,115.5c-1,0-1.9-0.2-2.7-0.7s-1.4-1.1-1.9-1.9s-0.7-1.8-0.7-2.9c0-1.1,0.2-2,0.7-2.8
		c0.5-0.8,1.1-1.5,1.9-1.9c0.8-0.5,1.7-0.7,2.7-0.7c1,0,1.9,0.2,2.7,0.7c0.8,0.5,1.4,1.1,1.9,1.9c0.5,0.8,0.7,1.8,0.7,2.8
		c0,1.1-0.2,2-0.7,2.9c-0.5,0.8-1.1,1.5-1.9,1.9C502.8,115.3,501.9,115.5,500.9,115.5z M500.9,113.2c0.7,0,1.3-0.3,1.8-0.8
		c0.5-0.5,0.8-1.3,0.8-2.3c0-1-0.3-1.8-0.8-2.3c-0.5-0.5-1.1-0.8-1.8-0.8c-0.7,0-1.3,0.3-1.8,0.8c-0.5,0.5-0.8,1.3-0.8,2.3
		c0,1,0.3,1.8,0.8,2.3C499.6,112.9,500.2,113.2,500.9,113.2z"/>
	<path class="st13" d="M508.2,115.3v-10.4h2.4l0.2,1.8c0.3-0.6,0.8-1.1,1.4-1.5c0.6-0.4,1.3-0.5,2.2-0.5c1.3,0,2.3,0.4,3,1.2
		c0.7,0.8,1.1,2,1.1,3.6v5.9h-2.7v-5.6c0-0.9-0.2-1.6-0.5-2.1c-0.4-0.5-0.9-0.7-1.7-0.7c-0.8,0-1.4,0.3-1.9,0.8s-0.7,1.3-0.7,2.2
		v5.4H508.2z"/>
</g>
</svg>
