<?xml version="1.0" encoding="UTF-8"?><svg id="Layer_1" xmlns="http://www.w3.org/2000/svg" viewBox="0 0 126 36"><defs><style>.cls-1{fill:#231f20;stroke-width:0px;}</style></defs><path class="cls-1" d="M56.85,2v2.31h-7.11v3.14h6.56v2.31h-6.56v5.17h-2.49V2h9.6Z"/><path class="cls-1" d="M64.13,11.59l2.01.79c-.59,1.66-1.98,2.73-4.08,2.73-2.7,0-4.64-1.81-4.64-4.62,0-2.49,1.74-4.51,4.36-4.51,2.42,0,4.06,1.51,4.06,3.93,0,.39-.04.74-.11,1.07h-5.95c.04,1.39,1.13,2.09,2.31,2.09s1.77-.57,2.03-1.5ZM59.79,9.43h3.75s.02-.04.02-.07c0-.89-.72-1.46-1.77-1.46-.94,0-1.77.55-1.99,1.53Z"/><path class="cls-1" d="M73.65,11.59l2.01.79c-.59,1.66-1.98,2.73-4.08,2.73-2.7,0-4.64-1.81-4.64-4.62,0-2.49,1.74-4.51,4.36-4.51,2.42,0,4.06,1.51,4.06,3.93,0,.39-.04.74-.11,1.07h-5.95c.04,1.39,1.13,2.09,2.31,2.09s1.77-.57,2.03-1.5ZM69.31,9.43h3.75s.02-.04.02-.07c0-.89-.72-1.46-1.77-1.46-.94,0-1.77.55-1.99,1.53Z"/><path class="cls-1" d="M76.52,10.59c0-2.77,1.75-4.6,4.16-4.6,1.27,0,2.25.63,2.77,1.5V2h2.36v12.93h-2.27v-1.26c-.55.9-1.57,1.44-2.81,1.44-2.48,0-4.21-1.79-4.21-4.53ZM83.54,10.59c0-1.66-1.13-2.57-2.33-2.57s-2.33.92-2.33,2.57,1.07,2.51,2.33,2.51,2.33-.89,2.33-2.51Z"/><path class="cls-1" d="M89.89,2v5.49c.57-.89,1.64-1.5,2.81-1.5,2.36,0,4.12,1.83,4.12,4.6s-1.79,4.53-4.25,4.53c-1.15,0-2.16-.46-2.77-1.35v1.16h-2.27V2h2.36ZM92.13,13.1c1.26,0,2.33-.92,2.33-2.51s-1.07-2.57-2.33-2.57-2.33.9-2.33,2.57,1.13,2.51,2.33,2.51Z"/><path class="cls-1" d="M97.91,12.4c0-1.94,1.44-2.81,3.42-2.81.5,0,1,.06,1.5.18l.78.18v-.55c0-1.02-.74-1.57-1.79-1.57s-1.72.61-1.9,1.46l-2.05-.55c.46-1.63,1.79-2.75,3.97-2.75,2.68,0,4.03,1.29,4.03,3.55v5.39h-2.16v-1.35c-.55.98-1.42,1.53-2.9,1.53s-2.88-1-2.88-2.72ZM103.6,11.7v-.07l-.54-.17c-.54-.17-.96-.26-1.37-.26-.83,0-1.39.35-1.39,1.05,0,.61.46,1.05,1.42,1.05,1.05,0,1.87-.57,1.87-1.61Z"/><path class="cls-1" d="M111.74,13.03c1.53,0,2.2-1.03,2.35-2.16l2.18.76c-.55,2.38-2.25,3.49-4.47,3.49-2.86,0-4.77-1.85-4.77-4.62s2.09-4.51,4.53-4.51c2.18,0,3.84,1.13,4.25,3.16l-2.09.7c-.18-1.11-1-1.79-2.11-1.79s-2.27.79-2.27,2.44,1.18,2.53,2.4,2.53Z"/><path class="cls-1" d="M125.91,14.93h-2.72l-2.42-3.51-.9.94v2.57h-2.36V2h2.36v7.43l2.96-3.25h2.9l-3.4,3.58,3.58,5.17Z"/><path class="cls-1" d="M51.42,21.3c-1.26,0-2.03.63-2.03,1.39,0,1.15,1.46,1.63,3.01,1.92,3.05.57,4.56,1.59,4.56,3.86s-1.98,3.92-5.15,3.92c-2.16,0-4.82-.79-5.93-3.93l2.22-1.39c.52,2.03,1.9,3.05,3.77,3.05,1.55,0,2.57-.63,2.57-1.55s-.65-1.48-2.96-1.85c-2.66-.41-4.58-1.53-4.58-4.04,0-1.94,1.81-3.58,4.67-3.58,2.25,0,4.1,1.09,4.84,3.18l-2.16,1.26c-.41-1.48-1.33-2.22-2.83-2.22Z"/><path class="cls-1" d="M66.5,23.44l-5.97,12.41h-2.4l2.35-4.89-3.51-7.52h2.48l2.25,4.99,2.4-4.99h2.4Z"/><path class="cls-1" d="M67.48,32.2v-8.76h2.36v1.15c.59-.92,1.61-1.33,2.66-1.33,1.87,0,3.16,1.16,3.16,3.21v5.73h-2.36v-5.08c0-1.22-.65-1.94-1.64-1.94s-1.81.76-1.81,2.18v4.84h-2.36Z"/><path class="cls-1" d="M81.8,30.3c1.53,0,2.2-1.03,2.35-2.16l2.18.76c-.55,2.38-2.25,3.49-4.47,3.49-2.86,0-4.77-1.85-4.77-4.62s2.09-4.51,4.53-4.51c2.18,0,3.84,1.13,4.25,3.16l-2.09.7c-.18-1.11-1-1.79-2.11-1.79s-2.27.79-2.27,2.44,1.18,2.53,2.4,2.53Z"/><path class="cls-1" d="M37.21,15.73c-.45-1.9-1.62-3.51-3.28-4.54-.83-.51-1.72-.83-2.63-.99.74-1.94.63-4.12-.35-5.99-1.86-3.58-6.29-4.97-9.87-3.11-.92.48-1.69,1.13-2.31,1.89-1.34-1.66-3.35-2.66-5.51-2.72-4.03-.09-7.39,3.1-7.49,7.14-.02.95.14,1.86.45,2.7-2.09.36-3.93,1.61-5.03,3.44-2.08,3.46-.95,7.96,2.51,10.04.8.48,1.66.79,2.55.94-.76,1.98-.62,4.21.41,6.1.93,1.72,2.48,2.97,4.35,3.52.69.2,1.39.3,2.09.3,1.2,0,2.4-.3,3.48-.89.86-.47,1.61-1.09,2.2-1.83,1.28,1.59,3.17,2.58,5.24,2.71.15,0,.31.01.46.01,3.83,0,7.06-2.99,7.3-6.86.06-1.04-.1-2.05-.44-2.98,2.06-.35,3.88-1.57,4.99-3.37,1.02-1.66,1.34-3.63.89-5.53ZM34.9,20.39c-.95,1.54-2.58,2.53-4.38,2.67-.84-1.23-2.04-2.21-3.46-2.75l3.67-.98-.43-1.6-7.39,1.98,1.98,7.39,1.6-.43-1.37-5.13c2.96.34,5.18,2.96,4.99,5.97-.19,3.11-2.89,5.49-6,5.3-1.8-.11-3.42-1.07-4.4-2.57.15-.32.27-.65.38-1,.32-1.08.38-2.18.21-3.26l2.7,2.7,1.17-1.17-5.41-5.41-5.41,5.41,1.17,1.17,3.74-3.74c.52,1.21.6,2.55.22,3.83-.43,1.45-1.4,2.64-2.72,3.36-1.33.72-2.86.88-4.31.45-1.45-.43-2.64-1.4-3.37-2.72-.88-1.63-.91-3.57-.09-5.23.4-.03.81-.1,1.21-.2,1.03-.26,1.98-.73,2.79-1.38l-.97,3.61,1.6.43,1.98-7.39-7.39-1.98-.43,1.6,5.17,1.39c-1.71,2.3-4.93,2.97-7.44,1.47-2.67-1.6-3.54-5.09-1.94-7.76.94-1.57,2.59-2.58,4.41-2.73.8,1.19,1.94,2.12,3.29,2.68l-3.49.93.43,1.6,7.39-1.98-1.98-7.39-1.6.43,1.41,5.25c-2.89-.32-5.11-2.8-5.03-5.76.08-3.07,2.6-5.52,5.65-5.52.05,0,.09,0,.14,0,1.87.05,3.59,1.01,4.61,2.58-.61,1.31-.82,2.8-.59,4.26l-2.7-2.7-1.17,1.17,5.41,5.41,5.41-5.41-1.17-1.17-3.75,3.75c-1.15-2.69-.05-5.87,2.58-7.24,2.77-1.44,6.19-.36,7.63,2.4.84,1.61.85,3.52.04,5.15-1.46.12-2.87.67-4.03,1.61l1.01-3.76-1.6-.43-1.98,7.39,7.39,1.98.43-1.6-5.09-1.36c1.75-2.24,4.95-2.86,7.42-1.33,1.29.79,2.19,2.04,2.54,3.51.35,1.47.11,2.99-.69,4.27Z"/></svg>