<svg width="37" height="37" viewBox="0 0 37 37" fill="none" xmlns="http://www.w3.org/2000/svg">
<path d="M34.78 18.8853C34.78 17.6828 34.6721 16.5265 34.4717 15.4165H18.5V21.9763H27.6267C27.2335 24.0961 26.0388 25.8921 24.2427 27.0946V31.3496H29.7233C32.93 28.3973 34.78 24.0498 34.78 18.8853Z" fill="#4285F4"/>
<path d="M18.4998 35.4584C23.0785 35.4584 26.9173 33.9399 29.7231 31.3499L24.2425 27.0949C22.724 28.1124 20.7815 28.7136 18.4998 28.7136C14.0829 28.7136 10.3444 25.7305 9.01084 21.7222H3.34521V26.1159C6.13563 31.6582 11.8706 35.4584 18.4998 35.4584Z" fill="#34A853"/>
<path d="M9.01088 21.7222C8.67171 20.7047 8.47901 19.6178 8.47901 18.5001C8.47901 17.3824 8.67171 16.2955 9.01088 15.278V10.8843H3.34526C2.15817 13.2474 1.54046 15.8556 1.54151 18.5001C1.54151 21.2366 2.19671 23.8266 3.34526 26.1159L9.01088 21.7222Z" fill="#FBBC05"/>
<path d="M18.4998 8.2863C20.9896 8.2863 23.225 9.14192 24.9825 10.8223L29.8465 5.95838C26.9096 3.22192 23.0708 1.5415 18.4998 1.5415C11.8706 1.5415 6.13563 5.34171 3.34521 10.884L9.01084 15.2778C10.3444 11.2694 14.0829 8.2863 18.4998 8.2863Z" fill="#EA4335"/>
</svg>
