<svg width="32" height="33" viewBox="0 0 32 33" fill="none" xmlns="http://www.w3.org/2000/svg">
<path d="M24.57 10.8657V6.93602C25.0972 6.69331 25.5436 6.30809 25.8571 5.82522C26.1707 5.34234 26.3386 4.78166 26.3413 4.20844V4.11827C26.3413 2.44696 24.9659 1.0921 23.2693 1.0921H23.1776C21.4809 1.0921 20.1055 2.44696 20.1055 4.11827V4.20844C20.1082 4.78166 20.2761 5.34234 20.5897 5.82522C20.9033 6.30809 21.3496 6.69331 21.8768 6.93602V10.8657C20.3616 11.0943 18.9346 11.7132 17.7403 12.6597L6.79922 4.26517C6.87723 3.98775 6.91793 3.70248 6.92253 3.41613C6.92386 2.74171 6.72212 2.08204 6.3428 1.52058C5.96348 0.959113 5.42363 0.521074 4.79155 0.261869C4.15947 0.00266408 3.46354 -0.0660616 2.7918 0.0643849C2.12005 0.194832 1.50268 0.51859 1.01776 0.994708C0.532835 1.47083 0.202158 2.07791 0.067552 2.73918C-0.067054 3.40044 0.000458277 4.08617 0.261549 4.70964C0.52264 5.3331 0.96558 5.86629 1.53434 6.24175C2.1031 6.61721 2.77213 6.81808 3.4568 6.81895C4.05576 6.81617 4.64351 6.65865 5.16134 6.36213L15.9352 14.6204C13.9544 17.5679 14.0074 21.4092 16.0687 24.3028L12.7918 27.5315C12.5268 27.4481 12.251 27.4038 11.9729 27.4001C10.4035 27.4014 9.1322 28.655 9.1326 30.2009C9.13301 31.7466 10.4052 32.9996 11.9744 33C13.5437 33.0004 14.8164 31.7481 14.8177 30.2022C14.814 29.9283 14.769 29.6565 14.6841 29.3957L17.9258 26.2013C20.8224 28.3977 24.8005 28.587 27.8985 26.6757C30.9963 24.7642 32.5597 21.1558 31.8174 17.6302C31.0751 14.1044 28.184 11.4062 24.57 10.8657ZM23.2263 23.7902C22.6274 23.806 22.0314 23.7035 21.4734 23.4887C20.9154 23.274 20.4067 22.9512 19.9774 22.5396C19.5481 22.1279 19.2069 21.6357 18.9739 21.0921C18.7409 20.5484 18.6209 19.9642 18.6209 19.3741C18.6209 18.7839 18.7409 18.1998 18.9739 17.6561C19.2069 17.1124 19.5481 16.6202 19.9774 16.2086C20.4067 15.7969 20.9154 15.4742 21.4734 15.2594C22.0314 15.0446 22.6274 14.9421 23.2263 14.958C25.6397 15.0412 27.5529 16.992 27.5542 19.3709C27.5553 21.7495 25.6442 23.7023 23.2308 23.7879" fill="#FF7A59"/>
</svg>
