<svg width="36" height="36" viewBox="0 0 36 36" fill="none" xmlns="http://www.w3.org/2000/svg">
<path d="M31.2 19.7927C31.2 20.4554 30.6627 20.9927 30 20.9927C29.3373 20.9927 28.8 20.4554 28.8 19.7927V9C28.8 8.3373 29.3373 7.8 30 7.8C30.6627 7.8 31.2 8.3373 31.2 9V19.7927ZM30.7812 27.3039C30.5958 27.4627 26.1504 31.1929 18.0001 31.1929C9.84968 31.1929 5.40445 27.4625 5.21905 27.3038C4.71595 26.8725 4.65772 26.1149 5.08897 25.6116C5.51929 25.1094 6.27478 25.05 6.77823 25.4791C6.84876 25.5381 10.8182 28.7926 18.0001 28.7927C25.2721 28.7927 29.1803 25.5146 29.219 25.4816C29.7211 25.0504 30.48 25.1083 30.9111 25.6117C31.3425 26.1149 31.2843 26.8726 30.7812 27.3039ZM4.79998 9C4.79998 8.3373 5.33728 7.8 5.99998 7.8C6.6628 7.8 7.19997 8.3373 7.19997 9V19.7927C7.19997 20.4553 6.6628 20.9926 5.99998 20.9926C5.33728 20.9926 4.79998 20.4553 4.79998 19.7926V9ZM10.8001 6.6C10.8001 5.9373 11.3374 5.4 12.0001 5.4C12.6628 5.4 13.2001 5.9373 13.2001 6.6V22.6314C13.2001 23.2941 12.6628 23.8314 12.0001 23.8314C11.3374 23.8314 10.8001 23.2941 10.8001 22.6314V6.6ZM16.8001 5.9928C16.8001 5.3298 17.3374 4.7928 18.0001 4.7928C18.6628 4.7928 19.2001 5.3298 19.2001 5.9928V23.3927C19.2001 24.0554 18.6628 24.5927 18.0001 24.5927C17.3374 24.5927 16.8001 24.0554 16.8001 23.3927V5.9928ZM22.8 6.6C22.8 5.9373 23.3373 5.4 24 5.4C24.6627 5.4 25.2 5.9373 25.2 6.6V22.6314C25.2 23.2941 24.6627 23.8314 24 23.8314C23.3373 23.8314 22.8 23.2941 22.8 22.6314V6.6ZM31.5 0H4.49998C2.0148 0 0 2.0148 0 4.5L0.000117187 31.5C0.000117187 33.9852 2.0148 36 4.49998 36H31.5C33.9852 36 36 33.9852 36 31.5V4.5C36 2.0148 33.9852 0 31.5 0Z" fill="#1F8DED"/>
</svg>
