<svg xmlns="http://www.w3.org/2000/svg" width="918" height="407" fill="none"><path fill="#fff" d="M0 0h918v407H0z"/><g clip-path="url(#a)"><path fill="#1F8DED" d="M194.736 168.474a.867.867 0 1 1-1.733 0v-7.794a.867.867 0 1 1 1.733 0v7.794Zm-.302 5.425c-.134.115-3.344 2.809-9.231 2.809-5.886 0-9.097-2.694-9.231-2.809a.867.867 0 0 1 1.127-1.318c.05.043 2.917 2.393 8.104 2.393 5.252 0 8.075-2.367 8.103-2.391a.867.867 0 0 1 1.128 1.316ZM175.67 160.68a.867.867 0 1 1 1.733 0v7.794a.867.867 0 1 1-1.733 0v-7.794Zm4.333-1.734a.867.867 0 0 1 1.734 0v11.579a.867.867 0 0 1-1.734 0v-11.579Zm4.334-.438a.867.867 0 1 1 1.733 0v12.566a.867.867 0 1 1-1.733 0v-12.566Zm4.333.438a.866.866 0 0 1 1.733 0v11.579a.867.867 0 0 1-1.733 0v-11.579Zm6.283-4.766h-19.5a3.25 3.25 0 0 0-3.25 3.25v19.5a3.25 3.25 0 0 0 3.25 3.25h19.5a3.25 3.25 0 0 0 3.25-3.25v-19.5a3.25 3.25 0 0 0-3.25-3.25Z"/></g><circle cx="108.352" cy="284.134" r="25.852" stroke="#C6C6C6" opacity=".4" transform="rotate(-90 108.352 284.134)"/><circle cx="185.214" cy="244.605" r="25.852" stroke="#C6C6C6" opacity=".4" transform="rotate(-90 185.214 244.605)"/><circle cx="108.352" cy="206.54" r="25.852" stroke="#C6C6C6" opacity=".4" transform="rotate(-90 108.352 206.54)"/><circle cx="185.214" cy="167.011" r="25.852" stroke="#C6C6C6" opacity=".4" transform="rotate(-90 185.214 167.011)"/><circle cx="108.352" cy="128.946" r="25.852" stroke="#C6C6C6" opacity=".4" transform="rotate(-90 108.352 128.946)"/><path fill="#fff" d="M563 133h112v120H563zM254 136h112v119H254z"/><circle cx="185.214" cy="89.419" r="25.852" stroke="#C6C6C6" opacity=".4" transform="rotate(-90 185.214 89.42)"/><circle cx="108.352" cy="51.355" r="25.852" stroke="#C6C6C6" opacity=".4" transform="rotate(-90 108.352 51.355)"/><circle cx="459.247" cy="169.247" r="65.747" stroke="#454545" opacity=".1"/><circle cx="758.247" cy="168.247" r="65.747" stroke="#454545" opacity=".1"/><path fill="#000" d="M419.919 374.156c-.668 0-1.248-.121-1.742-.364a2.72 2.72 0 0 1-1.144-1.014c-.269-.433-.403-.936-.403-1.508h1.144c0 .355.082.685.247.988.164.295.403.533.715.715.32.173.715.26 1.183.26.615 0 1.092-.147 1.43-.442.338-.295.507-.663.507-1.105 0-.364-.078-.654-.234-.871a1.723 1.723 0 0 0-.637-.546 4.968 4.968 0 0 0-.91-.364 29.838 29.838 0 0 1-1.066-.351c-.702-.243-1.222-.542-1.56-.897-.338-.364-.507-.836-.507-1.417a2.288 2.288 0 0 1 .338-1.287c.234-.381.563-.676.988-.884.433-.217.944-.325 1.534-.325.58 0 1.083.108 1.508.325.433.217.767.516 1.001.897.242.381.368.815.377 1.3h-1.144c0-.251-.065-.498-.195-.741a1.506 1.506 0 0 0-.598-.611c-.26-.156-.59-.234-.988-.234-.494-.009-.902.117-1.222.377-.312.26-.468.62-.468 1.079 0 .39.108.689.325.897.225.208.537.381.936.52.398.13.858.282 1.378.455.433.156.823.338 1.17.546.346.208.615.477.806.806.199.329.299.75.299 1.261 0 .433-.113.845-.338 1.235-.226.381-.568.693-1.027.936-.451.243-1.019.364-1.703.364Zm4.551-.156v-9.36h1.092V374h-1.092Zm5.027.156c-.537 0-.984-.091-1.339-.273a1.858 1.858 0 0 1-.793-.728 1.96 1.96 0 0 1-.26-.988c0-.659.251-1.166.754-1.521s1.187-.533 2.054-.533h1.742v-.078c0-.563-.147-.988-.442-1.274-.295-.295-.689-.442-1.183-.442-.425 0-.793.108-1.105.325-.303.208-.494.516-.572.923h-1.118c.043-.468.199-.862.468-1.183.277-.321.62-.563 1.027-.728.407-.173.841-.26 1.3-.26.901 0 1.577.243 2.028.728.459.477.689 1.114.689 1.911V374h-.975l-.065-1.157a2.592 2.592 0 0 1-.806.936c-.347.251-.815.377-1.404.377Zm.169-.923c.416 0 .771-.108 1.066-.325.303-.217.533-.498.689-.845.156-.347.234-.711.234-1.092v-.013h-1.651c-.641 0-1.096.113-1.365.338-.26.217-.39.49-.39.819 0 .338.121.611.364.819.251.199.602.299 1.053.299Zm7.683.923c-.615 0-1.17-.139-1.664-.416a3.16 3.16 0 0 1-1.157-1.183c-.277-.511-.416-1.105-.416-1.781 0-.676.139-1.265.416-1.768a3.04 3.04 0 0 1 1.157-1.183 3.261 3.261 0 0 1 1.664-.429c.763 0 1.404.199 1.924.598.529.399.863.932 1.001 1.599h-1.118a1.407 1.407 0 0 0-.637-.923 2.084 2.084 0 0 0-1.183-.338c-.364 0-.706.091-1.027.273-.32.182-.58.455-.78.819-.199.364-.299.815-.299 1.352 0 .537.1.988.299 1.352.2.364.46.641.78.832.321.182.663.273 1.027.273a2.14 2.14 0 0 0 1.183-.325 1.46 1.46 0 0 0 .637-.949h1.118a2.579 2.579 0 0 1-.988 1.586c-.528.407-1.174.611-1.937.611Zm4.45-.156v-9.36h1.092v5.629l2.639-2.717h1.339l-2.86 2.912 3.224 3.536h-1.391l-2.951-3.341V374h-1.092Zm12.956.156c-.616 0-1.17-.139-1.664-.416a3.152 3.152 0 0 1-1.157-1.183c-.278-.511-.416-1.105-.416-1.781 0-.676.138-1.265.416-1.768a3.034 3.034 0 0 1 1.157-1.183 3.258 3.258 0 0 1 1.664-.429c.762 0 1.404.199 1.924.598.528.399.862.932 1.001 1.599h-1.118a1.41 1.41 0 0 0-.637-.923 2.087 2.087 0 0 0-1.183-.338c-.364 0-.707.091-1.027.273a2.032 2.032 0 0 0-.78.819c-.2.364-.299.815-.299 1.352 0 .537.099.988.299 1.352.199.364.459.641.78.832.32.182.663.273 1.027.273.45 0 .845-.108 1.183-.325.338-.225.55-.542.637-.949h1.118c-.13.65-.46 1.179-.988 1.586-.529.407-1.175.611-1.937.611Zm4.45-.156v-9.36h1.092v4.017c.216-.399.524-.706.923-.923a2.6 2.6 0 0 1 1.3-.338c.745 0 1.343.234 1.794.702.45.459.676 1.17.676 2.132V374h-1.079v-3.653c0-1.343-.542-2.015-1.625-2.015-.564 0-1.036.204-1.417.611-.382.399-.572.971-.572 1.716V374h-1.092Zm9.584.156c-.537 0-.984-.091-1.339-.273a1.858 1.858 0 0 1-.793-.728 1.96 1.96 0 0 1-.26-.988c0-.659.251-1.166.754-1.521s1.187-.533 2.054-.533h1.742v-.078c0-.563-.147-.988-.442-1.274-.295-.295-.689-.442-1.183-.442-.425 0-.793.108-1.105.325-.303.208-.494.516-.572.923h-1.118c.043-.468.199-.862.468-1.183.277-.321.62-.563 1.027-.728.407-.173.841-.26 1.3-.26.901 0 1.577.243 2.028.728.459.477.689 1.114.689 1.911V374h-.975l-.065-1.157a2.592 2.592 0 0 1-.806.936c-.347.251-.815.377-1.404.377Zm.169-.923c.416 0 .771-.108 1.066-.325.303-.217.533-.498.689-.845.156-.347.234-.711.234-1.092v-.013h-1.651c-.641 0-1.096.113-1.365.338-.26.217-.39.49-.39.819 0 .338.121.611.364.819.251.199.602.299 1.053.299Zm4.719.767v-6.448h.988l.065 1.157c.208-.407.507-.728.897-.962.39-.234.832-.351 1.326-.351.763 0 1.37.234 1.82.702.46.459.689 1.17.689 2.132V374h-1.092v-3.653c0-1.343-.554-2.015-1.664-2.015a1.81 1.81 0 0 0-1.391.611c-.364.399-.546.971-.546 1.716V374h-1.092Zm7.44 0v-6.448h.988l.065 1.157c.208-.407.507-.728.897-.962.39-.234.832-.351 1.326-.351.762 0 1.369.234 1.82.702.459.459.689 1.17.689 2.132V374h-1.092v-3.653c0-1.343-.555-2.015-1.664-2.015-.555 0-1.019.204-1.391.611-.364.399-.546.971-.546 1.716V374h-1.092Zm10.338.156c-.615 0-1.161-.139-1.638-.416a3.101 3.101 0 0 1-1.131-1.183c-.268-.503-.403-1.096-.403-1.781 0-.676.135-1.265.403-1.768a2.896 2.896 0 0 1 1.118-1.183c.486-.286 1.045-.429 1.677-.429.624 0 1.162.143 1.612.429.46.277.811.646 1.053 1.105a3.12 3.12 0 0 1 .351 1.768v.325h-5.135c.026.494.139.906.338 1.235.208.321.464.563.767.728.312.165.642.247.988.247.451 0 .828-.104 1.131-.312.304-.208.525-.49.663-.845h1.079a2.93 2.93 0 0 1-1.001 1.495c-.485.39-1.109.585-1.872.585Zm0-5.837c-.52 0-.983.16-1.391.481-.398.312-.628.771-.689 1.378h4.056c-.026-.581-.225-1.036-.598-1.365-.372-.329-.832-.494-1.378-.494Zm4.503 5.681v-9.36h1.092V374h-1.092ZM84.61 373.129c-.609 0-1.152-.104-1.629-.314a2.792 2.792 0 0 1-1.13-.872 2.348 2.348 0 0 1-.453-1.307h1.163c.025.305.13.568.314.79.185.218.426.388.725.508.298.12.63.18.992.18.407 0 .767-.071 1.08-.213.315-.141.56-.338.74-.591.178-.252.267-.544.267-.877 0-.348-.086-.654-.258-.918a1.712 1.712 0 0 0-.758-.628c-.332-.151-.738-.226-1.218-.226h-.757v-1.016h.757c.375 0 .704-.068.988-.203a1.534 1.534 0 0 0 .914-1.441c0-.32-.071-.598-.213-.835a1.45 1.45 0 0 0-.6-.554 1.947 1.947 0 0 0-.905-.199c-.326 0-.634.06-.923.18-.286.117-.52.288-.702.513-.181.221-.28.489-.295.803H81.6c.018-.495.168-.929.448-1.302a2.82 2.82 0 0 1 1.098-.877 3.555 3.555 0 0 1 1.5-.314c.585 0 1.087.119 1.506.356a2.5 2.5 0 0 1 .965.928c.224.384.337.8.337 1.246 0 .532-.14.986-.42 1.362a2.133 2.133 0 0 1-1.132.78v.074c.597.098 1.064.352 1.4.762.335.406.502.909.502 1.509 0 .514-.14.976-.42 1.385a2.848 2.848 0 0 1-1.135.96c-.48.234-1.027.351-1.64.351Zm5.102-.129v-7.091h1.053v1.071h.073c.13-.351.364-.635.702-.854a2.07 2.07 0 0 1 1.145-.328c.08 0 .18.002.3.005s.21.008.272.014v1.108a3.053 3.053 0 0 0-.253-.042 2.562 2.562 0 0 0-.411-.032c-.345 0-.653.072-.924.217a1.592 1.592 0 0 0-.868 1.445V373h-1.089Zm7.299.148c-.591 0-1.113-.15-1.565-.448-.453-.302-.807-.726-1.062-1.274-.256-.551-.383-1.202-.383-1.953 0-.745.127-1.391.383-1.939.255-.548.61-.971 1.066-1.269.456-.299.982-.448 1.58-.448.46 0 .826.077 1.093.231.271.15.477.323.619.517.144.19.257.347.337.471h.092v-3.491h1.09V373h-1.053v-1.089h-.13c-.08.129-.193.292-.34.489a2.028 2.028 0 0 1-.633.522c-.274.15-.639.226-1.094.226Zm.147-.979c.437 0 .807-.114 1.108-.342.302-.23.531-.549.688-.955.157-.41.236-.882.236-1.417 0-.53-.077-.993-.231-1.39-.154-.4-.382-.711-.683-.933-.302-.224-.674-.337-1.118-.337-.461 0-.846.119-1.154.356a2.125 2.125 0 0 0-.688.956c-.15.4-.226.849-.226 1.348 0 .504.077.963.231 1.375.157.41.388.736.692.979.308.24.69.36 1.145.36Zm8.906 3.49v-9.75h1.052v1.127h.129c.08-.124.191-.281.333-.471.144-.194.351-.367.618-.517.271-.154.637-.231 1.099-.231.597 0 1.123.149 1.579.448.455.298.811.721 1.066 1.269.256.548.384 1.194.384 1.939 0 .751-.128 1.402-.384 1.953-.255.548-.609.972-1.061 1.274a2.784 2.784 0 0 1-1.565.448c-.456 0-.821-.076-1.095-.226a2.04 2.04 0 0 1-.632-.522 6.989 6.989 0 0 1-.342-.489h-.092v3.748h-1.089Zm1.071-6.204c0 .535.078 1.007.235 1.417.157.406.386.725.688.955.301.228.671.342 1.108.342.455 0 .835-.12 1.14-.36.308-.243.539-.569.693-.979.157-.412.235-.871.235-1.375 0-.499-.077-.948-.231-1.348a2.08 2.08 0 0 0-.688-.956c-.304-.237-.688-.356-1.149-.356-.443 0-.816.113-1.117.337-.302.222-.53.533-.684.933-.153.397-.23.86-.23 1.39Zm8.937 3.711a2.87 2.87 0 0 1-1.223-.254 2.098 2.098 0 0 1-.873-.743c-.215-.326-.323-.72-.323-1.182 0-.406.08-.735.24-.988.16-.255.374-.455.642-.6a3.37 3.37 0 0 1 .886-.323c.326-.074.654-.132.983-.175.431-.056.781-.097 1.048-.125.271-.031.468-.082.591-.152.127-.071.19-.194.19-.37v-.037c0-.455-.125-.809-.374-1.061-.247-.253-.62-.379-1.122-.379-.52 0-.928.114-1.224.342-.295.227-.503.47-.623.729l-1.034-.369c.185-.431.431-.767.739-1.007a2.78 2.78 0 0 1 1.015-.508c.37-.098.733-.147 1.09-.147.228 0 .489.027.785.083.298.052.586.161.863.328.28.166.512.417.697.752.185.336.277.785.277 1.348V373h-1.089v-.96h-.056a1.935 1.935 0 0 1-.369.494 2.153 2.153 0 0 1-.688.448c-.286.123-.636.184-1.048.184Zm.166-.978c.431 0 .794-.085 1.09-.254.298-.17.523-.388.674-.656a1.67 1.67 0 0 0 .231-.845v-.997c-.047.055-.148.106-.305.152a4.91 4.91 0 0 1-.536.116 24.954 24.954 0 0 1-1.043.138 4.173 4.173 0 0 0-.794.18c-.243.08-.44.202-.591.365-.148.16-.221.379-.221.656 0 .378.14.664.42.858.283.191.641.287 1.075.287Zm5.073.812v-7.091h1.052v1.071h.074c.129-.351.363-.635.702-.854.338-.218.72-.328 1.145-.328.08 0 .18.002.3.005s.211.008.272.014v1.108a3.003 3.003 0 0 0-.254-.042 2.557 2.557 0 0 0-.411-.032c-.344 0-.652.072-.923.217a1.59 1.59 0 0 0-.868 1.445V373h-1.089Zm8.365-7.091v.923h-3.675v-.923h3.675Zm-2.604-1.699h1.089v6.759c0 .308.045.538.134.692.093.151.21.253.351.305.145.049.297.074.457.074a1.846 1.846 0 0 0 .48-.056l.222.979a2.232 2.232 0 0 1-.309.083c-.133.031-.3.046-.504.046-.307 0-.609-.066-.904-.198a1.8 1.8 0 0 1-.73-.605c-.191-.271-.286-.612-.286-1.025v-7.054Zm4.944 11.449c-.184 0-.349-.015-.494-.046a1.324 1.324 0 0 1-.3-.083l.277-.96c.265.067.499.092.702.073a.839.839 0 0 0 .54-.272c.16-.16.306-.42.439-.78l.203-.554-2.622-7.128h1.181l1.958 5.651h.074l1.957-5.651h1.182l-3.01 8.125a3.106 3.106 0 0 1-.503.91c-.2.243-.433.423-.697.54a2.15 2.15 0 0 1-.887.175ZM142.207 373v-7.091h1.09V373h-1.09Zm.554-8.273a.773.773 0 0 1-.549-.217.694.694 0 0 1-.226-.521c0-.203.075-.377.226-.522a.773.773 0 0 1 .549-.217c.212 0 .394.072.545.217a.692.692 0 0 1 .231.522.688.688 0 0 1-.231.521.759.759 0 0 1-.545.217Zm3.621 4.007V373h-1.09v-7.091h1.053v1.108h.092a2.03 2.03 0 0 1 .757-.868c.339-.221.776-.332 1.311-.332.48 0 .9.098 1.26.295.361.194.641.49.841.887.2.394.3.892.3 1.495V373h-1.09v-4.432c0-.557-.144-.991-.434-1.302-.289-.314-.686-.471-1.191-.471-.348 0-.658.076-.932.227-.271.15-.485.371-.642.66-.157.289-.235.64-.235 1.052Zm9.598-2.825v.923h-3.674v-.923h3.674Zm-2.603-1.699h1.089v6.759c0 .308.045.538.134.692a.69.69 0 0 0 .351.305c.145.049.297.074.457.074.12 0 .218-.006.295-.019l.185-.037.222.979a2.213 2.213 0 0 1-.31.083c-.132.031-.3.046-.503.046a2.2 2.2 0 0 1-.905-.198 1.804 1.804 0 0 1-.729-.605c-.191-.271-.286-.612-.286-1.025v-7.054Zm7.139 8.938c-.683 0-1.273-.151-1.768-.453a3.028 3.028 0 0 1-1.14-1.274c-.265-.548-.397-1.185-.397-1.911s.132-1.367.397-1.921a3.12 3.12 0 0 1 1.117-1.301c.48-.314 1.04-.471 1.68-.471.37 0 .734.061 1.094.184.36.124.688.324.984.601.295.273.531.637.706 1.089.175.452.263 1.01.263 1.671v.462h-5.466v-.942h4.358c0-.4-.08-.757-.24-1.071a1.8 1.8 0 0 0-.674-.743 1.884 1.884 0 0 0-1.025-.273c-.434 0-.809.108-1.126.324a2.118 2.118 0 0 0-.725.831 2.44 2.44 0 0 0-.254 1.098v.628c0 .536.092.99.277 1.362.188.369.448.651.78.845.333.191.719.286 1.159.286.286 0 .545-.04.776-.12.234-.083.435-.206.604-.369.17-.167.3-.373.393-.619l1.052.296c-.11.357-.297.67-.558.941a2.726 2.726 0 0 1-.97.628 3.586 3.586 0 0 1-1.297.222Zm7.456 2.659c-.527 0-.979-.068-1.358-.203a2.884 2.884 0 0 1-.946-.527 2.86 2.86 0 0 1-.595-.692l.867-.609c.099.129.224.277.374.443.151.169.357.315.619.438.265.126.611.19 1.039.19.572 0 1.045-.139 1.417-.416.372-.277.559-.711.559-1.302v-1.44h-.093a6.1 6.1 0 0 1-.341.48 1.928 1.928 0 0 1-.628.503c-.271.145-.637.217-1.099.217a2.96 2.96 0 0 1-1.542-.406c-.452-.271-.811-.665-1.076-1.182-.261-.517-.392-1.145-.392-1.883 0-.727.128-1.359.383-1.898.256-.541.611-.96 1.067-1.255.455-.299.981-.448 1.578-.448.462 0 .828.077 1.099.231.274.15.483.323.628.517.148.19.262.347.342.471h.11v-1.127h1.053v7.294c0 .609-.138 1.105-.415 1.487a2.37 2.37 0 0 1-1.108.844 4.175 4.175 0 0 1-1.542.273Zm-.037-3.896c.437 0 .806-.101 1.108-.301.301-.2.531-.487.688-.863.157-.375.235-.825.235-1.348 0-.511-.077-.962-.231-1.352a2.024 2.024 0 0 0-.683-.919c-.302-.222-.674-.333-1.117-.333-.462 0-.847.117-1.154.351a2.136 2.136 0 0 0-.688.942 3.637 3.637 0 0 0-.226 1.311c0 .493.077.928.23 1.307a2 2 0 0 0 .693.886c.308.212.689.319 1.145.319Zm5.096 1.089v-7.091h1.053v1.071h.074c.129-.351.363-.635.701-.854a2.073 2.073 0 0 1 1.145-.328c.08 0 .18.002.3.005s.211.008.273.014v1.108a3.083 3.083 0 0 0-.254-.042 2.557 2.557 0 0 0-.411-.032c-.345 0-.652.072-.923.217a1.59 1.59 0 0 0-.868 1.445V373h-1.09Zm6.924.166a2.87 2.87 0 0 1-1.223-.254 2.091 2.091 0 0 1-.873-.743c-.215-.326-.323-.72-.323-1.182 0-.406.08-.735.24-.988.16-.255.374-.455.642-.6.267-.145.563-.252.886-.323.326-.074.654-.132.983-.175.431-.056.78-.097 1.048-.125.271-.031.468-.082.591-.152.126-.071.189-.194.189-.37v-.037c0-.455-.124-.809-.374-1.061-.246-.253-.62-.379-1.121-.379-.52 0-.928.114-1.224.342-.295.227-.503.47-.623.729l-1.034-.369c.185-.431.431-.767.739-1.007.31-.243.649-.412 1.015-.508.37-.098.733-.147 1.09-.147.227 0 .489.027.785.083.298.052.586.161.863.328.28.166.512.417.697.752.185.336.277.785.277 1.348V373h-1.09v-.96h-.055a1.935 1.935 0 0 1-.369.494 2.164 2.164 0 0 1-.688.448c-.286.123-.636.184-1.048.184Zm.166-.978c.431 0 .794-.085 1.09-.254.298-.17.523-.388.674-.656.153-.268.23-.549.23-.845v-.997c-.046.055-.147.106-.304.152a4.962 4.962 0 0 1-.536.116 24.954 24.954 0 0 1-1.043.138 4.173 4.173 0 0 0-.794.18c-.243.08-.44.202-.591.365-.148.16-.222.379-.222.656 0 .378.14.664.42.858.284.191.642.287 1.076.287Zm8.156-6.279v.923h-3.674v-.923h3.674Zm-2.603-1.699h1.089v6.759c0 .308.045.538.134.692a.69.69 0 0 0 .351.305c.144.049.297.074.457.074.12 0 .218-.006.295-.019l.185-.037.222.979a2.213 2.213 0 0 1-.31.083c-.132.031-.3.046-.503.046a2.2 2.2 0 0 1-.905-.198 1.804 1.804 0 0 1-.729-.605c-.191-.271-.286-.612-.286-1.025v-7.054Zm4.242 8.79v-7.091h1.09V373h-1.09Zm.554-8.273a.773.773 0 0 1-.549-.217.694.694 0 0 1-.226-.521c0-.203.075-.377.226-.522a.773.773 0 0 1 .549-.217c.212 0 .394.072.545.217a.692.692 0 0 1 .231.522.688.688 0 0 1-.231.521.759.759 0 0 1-.545.217Zm5.412 8.421c-.64 0-1.202-.153-1.685-.457a3.11 3.11 0 0 1-1.127-1.279c-.267-.548-.401-1.188-.401-1.921 0-.738.134-1.383.401-1.934a3.096 3.096 0 0 1 1.127-1.283c.483-.305 1.045-.457 1.685-.457.64 0 1.2.152 1.68.457.483.304.859.732 1.127 1.283.27.551.406 1.196.406 1.934 0 .733-.136 1.373-.406 1.921a3.068 3.068 0 0 1-1.127 1.279c-.48.304-1.04.457-1.68.457Zm0-.979c.486 0 .886-.125 1.2-.374.314-.249.546-.577.697-.983.151-.406.226-.847.226-1.321 0-.473-.075-.915-.226-1.324a2.23 2.23 0 0 0-.697-.993c-.314-.252-.714-.379-1.2-.379-.487 0-.887.127-1.201.379a2.237 2.237 0 0 0-.697.993c-.15.409-.226.851-.226 1.324 0 .474.076.915.226 1.321.151.406.384.734.697.983.314.249.714.374 1.201.374Zm5.965-3.435V373h-1.089v-7.091h1.052v1.108h.093c.166-.36.418-.649.757-.868.338-.221.775-.332 1.311-.332.48 0 .9.098 1.26.295.36.194.64.49.84.887.201.394.301.892.301 1.495V373h-1.09v-4.432c0-.557-.145-.991-.434-1.302-.289-.314-.686-.471-1.191-.471-.348 0-.659.076-.932.227-.271.15-.485.371-.642.66-.157.289-.236.64-.236 1.052Zm11.538-1.237-.979.277a1.803 1.803 0 0 0-.272-.475 1.317 1.317 0 0 0-.48-.388c-.203-.102-.463-.152-.78-.152-.434 0-.796.1-1.085.3-.286.197-.429.447-.429.752 0 .271.098.485.295.642.197.157.505.288.923.392l1.053.259c.634.154 1.106.389 1.417.706.311.314.466.719.466 1.214 0 .406-.117.77-.35 1.09-.231.32-.554.572-.97.757-.415.184-.899.277-1.45.277-.723 0-1.321-.157-1.795-.471-.474-.314-.774-.773-.901-1.376l1.035-.258c.098.381.284.667.558.858.277.191.639.287 1.085.287.508 0 .911-.108 1.21-.324.301-.218.452-.48.452-.784a.822.822 0 0 0-.259-.619c-.172-.169-.437-.296-.794-.379l-1.181-.277c-.65-.153-1.127-.392-1.432-.715-.301-.326-.452-.734-.452-1.224 0-.4.112-.754.337-1.061a2.29 2.29 0 0 1 .928-.725c.394-.176.84-.263 1.339-.263.701 0 1.252.154 1.652.461.404.308.69.714.859 1.219ZM713.049 374v-9.1h5.538v.897h-4.446v3.198h3.783v.884h-3.783V374h-1.092Zm9.499.156c-.615 0-1.161-.139-1.638-.416a3.101 3.101 0 0 1-1.131-1.183c-.268-.503-.403-1.096-.403-1.781 0-.676.135-1.265.403-1.768a2.896 2.896 0 0 1 1.118-1.183c.486-.286 1.045-.429 1.677-.429.624 0 1.162.143 1.612.429.46.277.811.646 1.053 1.105a3.12 3.12 0 0 1 .351 1.768v.325h-5.135c.026.494.139.906.338 1.235.208.321.464.563.767.728.312.165.642.247.988.247.451 0 .828-.104 1.131-.312.304-.208.525-.49.663-.845h1.079a2.93 2.93 0 0 1-1.001 1.495c-.485.39-1.109.585-1.872.585Zm0-5.837c-.52 0-.983.16-1.391.481-.398.312-.628.771-.689 1.378h4.056c-.026-.581-.225-1.036-.598-1.365-.372-.329-.832-.494-1.378-.494Zm7.402 5.837c-.616 0-1.162-.139-1.638-.416a3.087 3.087 0 0 1-1.131-1.183c-.269-.503-.403-1.096-.403-1.781 0-.676.134-1.265.403-1.768a2.883 2.883 0 0 1 1.118-1.183c.485-.286 1.044-.429 1.677-.429.624 0 1.161.143 1.612.429.459.277.81.646 1.053 1.105a3.131 3.131 0 0 1 .351 1.768v.325h-5.135c.026.494.138.906.338 1.235.208.321.463.563.767.728.312.165.641.247.988.247.45 0 .827-.104 1.131-.312a1.79 1.79 0 0 0 .663-.845h1.079a2.936 2.936 0 0 1-1.001 1.495c-.486.39-1.11.585-1.872.585Zm0-5.837c-.52 0-.984.16-1.391.481-.399.312-.629.771-.689 1.378h4.056c-.026-.581-.226-1.036-.598-1.365-.373-.329-.832-.494-1.378-.494Zm7.427 5.837c-.641 0-1.204-.147-1.69-.442a3.083 3.083 0 0 1-1.118-1.209c-.26-.511-.39-1.092-.39-1.742 0-.65.135-1.226.403-1.729.269-.511.642-.91 1.118-1.196.477-.295 1.04-.442 1.69-.442.529 0 .997.108 1.404.325.408.217.724.52.949.91v-3.991h1.092V374h-.988l-.104-1.066c-.208.312-.507.594-.897.845s-.879.377-1.469.377Zm.117-.949c.434 0 .815-.1 1.144-.299.338-.208.598-.494.78-.858.191-.364.286-.789.286-1.274s-.095-.91-.286-1.274a1.988 1.988 0 0 0-.78-.845 2.094 2.094 0 0 0-1.144-.312 2.14 2.14 0 0 0-1.144.312 2.106 2.106 0 0 0-.78.845c-.182.364-.273.789-.273 1.274s.091.91.273 1.274c.191.364.451.65.78.858.338.199.72.299 1.144.299Zm8.566.949a3.02 3.02 0 0 1-1.417-.325 2.263 2.263 0 0 1-.936-.91l-.104 1.079h-.988v-9.36h1.092v3.978a3.07 3.07 0 0 1 .884-.845c.39-.251.884-.377 1.482-.377.642 0 1.201.147 1.677.442a2.98 2.98 0 0 1 1.105 1.209c.269.511.403 1.092.403 1.742 0 .65-.134 1.231-.403 1.742-.26.503-.632.901-1.118 1.196-.476.286-1.035.429-1.677.429Zm-.117-.949c.434 0 .815-.1 1.144-.299.33-.208.59-.494.78-.858.191-.364.286-.789.286-1.274s-.095-.91-.286-1.274a2.092 2.092 0 0 0-.78-.845 2.094 2.094 0 0 0-1.144-.312c-.433 0-.814.104-1.144.312a2.106 2.106 0 0 0-.78.845c-.19.364-.286.789-.286 1.274s.096.91.286 1.274c.191.364.451.65.78.858.33.199.711.299 1.144.299Zm6.98.949c-.537 0-.983-.091-1.339-.273a1.863 1.863 0 0 1-.793-.728 1.96 1.96 0 0 1-.26-.988c0-.659.252-1.166.754-1.521.503-.355 1.188-.533 2.054-.533h1.742v-.078c0-.563-.147-.988-.442-1.274-.294-.295-.689-.442-1.183-.442-.424 0-.793.108-1.105.325-.303.208-.494.516-.572.923h-1.118c.044-.468.2-.862.468-1.183.278-.321.62-.563 1.027-.728.408-.173.841-.26 1.3-.26.902 0 1.578.243 2.028.728.46.477.689 1.114.689 1.911V374h-.975l-.065-1.157c-.182.364-.45.676-.806.936-.346.251-.814.377-1.404.377Zm.169-.923c.416 0 .772-.108 1.066-.325a2.05 2.05 0 0 0 .689-.845c.156-.347.234-.711.234-1.092v-.013h-1.651c-.641 0-1.096.113-1.365.338-.26.217-.39.49-.39.819 0 .338.122.611.364.819.252.199.603.299 1.053.299Zm7.684.923c-.616 0-1.17-.139-1.664-.416a3.152 3.152 0 0 1-1.157-1.183c-.278-.511-.416-1.105-.416-1.781 0-.676.138-1.265.416-1.768a3.034 3.034 0 0 1 1.157-1.183 3.258 3.258 0 0 1 1.664-.429c.762 0 1.404.199 1.924.598.528.399.862.932 1.001 1.599h-1.118a1.41 1.41 0 0 0-.637-.923 2.087 2.087 0 0 0-1.183-.338c-.364 0-.707.091-1.027.273a2.032 2.032 0 0 0-.78.819c-.2.364-.299.815-.299 1.352 0 .537.099.988.299 1.352.199.364.459.641.78.832.32.182.663.273 1.027.273.45 0 .845-.108 1.183-.325.338-.225.55-.542.637-.949h1.118c-.13.65-.46 1.179-.988 1.586-.529.407-1.175.611-1.937.611Zm4.45-.156v-9.36h1.092v5.629l2.639-2.717h1.339l-2.86 2.912L770.66 374h-1.391l-2.951-3.341V374h-1.092Zm12.955.156c-.668 0-1.248-.121-1.742-.364a2.72 2.72 0 0 1-1.144-1.014c-.269-.433-.403-.936-.403-1.508h1.144c0 .355.082.685.247.988.164.295.403.533.715.715.32.173.715.26 1.183.26.615 0 1.092-.147 1.43-.442.338-.295.507-.663.507-1.105 0-.364-.078-.654-.234-.871a1.723 1.723 0 0 0-.637-.546 4.968 4.968 0 0 0-.91-.364 29.838 29.838 0 0 1-1.066-.351c-.702-.243-1.222-.542-1.56-.897-.338-.364-.507-.836-.507-1.417a2.288 2.288 0 0 1 .338-1.287c.234-.381.563-.676.988-.884.433-.217.944-.325 1.534-.325.58 0 1.083.108 1.508.325.433.217.767.516 1.001.897.242.381.368.815.377 1.3h-1.144c0-.251-.065-.498-.195-.741a1.506 1.506 0 0 0-.598-.611c-.26-.156-.59-.234-.988-.234-.494-.009-.902.117-1.222.377-.312.26-.468.62-.468 1.079 0 .39.108.689.325.897.225.208.537.381.936.52.398.13.858.282 1.378.455.433.156.823.338 1.17.546.346.208.615.477.806.806.199.329.299.75.299 1.261 0 .433-.113.845-.338 1.235-.226.381-.568.693-1.027.936-.451.243-1.019.364-1.703.364Zm5.253 2.704 1.599-3.484h-.377l-2.561-5.824h1.183l2.132 5.018 2.262-5.018h1.131l-4.225 9.308h-1.144Zm6.522-2.86v-6.448h.988l.065 1.157c.208-.407.507-.728.897-.962.39-.234.832-.351 1.326-.351.763 0 1.369.234 1.82.702.459.459.689 1.17.689 2.132V374h-1.092v-3.653c0-1.343-.555-2.015-1.664-2.015a1.81 1.81 0 0 0-1.391.611c-.364.399-.546.971-.546 1.716V374h-1.092Zm10.404.156c-.616 0-1.17-.139-1.664-.416a3.152 3.152 0 0 1-1.157-1.183c-.278-.511-.416-1.105-.416-1.781 0-.676.138-1.265.416-1.768a3.034 3.034 0 0 1 1.157-1.183 3.258 3.258 0 0 1 1.664-.429c.762 0 1.404.199 1.924.598.528.399.862.932 1.001 1.599h-1.118a1.41 1.41 0 0 0-.637-.923 2.087 2.087 0 0 0-1.183-.338c-.364 0-.707.091-1.027.273a2.032 2.032 0 0 0-.78.819c-.2.364-.299.815-.299 1.352 0 .537.099.988.299 1.352.199.364.459.641.78.832.32.182.663.273 1.027.273.45 0 .845-.108 1.183-.325.338-.225.55-.542.637-.949h1.118c-.13.65-.46 1.179-.988 1.586-.529.407-1.175.611-1.937.611ZM286.988 236.727v-8.4h2.76c.656 0 1.196.108 1.62.324.424.216.736.508.936.876.208.368.312.784.312 1.248 0 .456-.1.868-.3 1.236-.2.368-.512.664-.936.888-.424.216-.968.324-1.632.324h-1.752v3.504h-1.008Zm1.008-4.356h1.728c.672 0 1.148-.14 1.428-.42.288-.288.432-.68.432-1.176 0-.504-.144-.896-.432-1.176-.28-.288-.756-.432-1.428-.432h-1.728v3.204Zm8.241 4.5c-.56 0-1.064-.128-1.512-.384a2.827 2.827 0 0 1-1.068-1.08c-.256-.472-.384-1.024-.384-1.656 0-.632.132-1.18.396-1.644.264-.472.62-.836 1.068-1.092a3.06 3.06 0 0 1 1.524-.384c.56 0 1.064.128 1.512.384.448.256.8.62 1.056 1.092.264.464.396 1.012.396 1.644 0 .632-.132 1.184-.396 1.656a2.802 2.802 0 0 1-1.08 1.08 2.993 2.993 0 0 1-1.512.384Zm0-.864c.344 0 .664-.084.96-.252a1.88 1.88 0 0 0 .72-.756c.184-.336.276-.752.276-1.248s-.092-.912-.276-1.248a1.803 1.803 0 0 0-.708-.756 1.89 1.89 0 0 0-.948-.252c-.344 0-.664.084-.96.252a1.88 1.88 0 0 0-.72.756c-.184.336-.276.752-.276 1.248s.092.912.276 1.248c.184.336.42.588.708.756.296.168.612.252.948.252Zm6.67.864c-.712 0-1.304-.18-1.776-.54-.472-.36-.748-.848-.828-1.464h1.032c.064.312.228.584.492.816.272.224.636.336 1.092.336.424 0 .736-.088.936-.264.2-.184.3-.4.3-.648 0-.36-.132-.6-.396-.72-.256-.12-.62-.228-1.092-.324a6.189 6.189 0 0 1-.96-.276 2.221 2.221 0 0 1-.804-.504c-.216-.224-.324-.516-.324-.876 0-.52.192-.944.576-1.272.392-.336.92-.504 1.584-.504.632 0 1.148.16 1.548.48.408.312.644.76.708 1.344h-.996a1.008 1.008 0 0 0-.396-.708c-.216-.176-.508-.264-.876-.264-.36 0-.64.076-.84.228a.728.728 0 0 0-.288.6c0 .24.124.428.372.564.256.136.6.252 1.032.348.368.08.716.18 1.044.3.336.112.608.284.816.516.216.224.324.552.324.984.008.536-.196.98-.612 1.332-.408.344-.964.516-1.668.516Zm5.802-.144c-.544 0-.972-.132-1.284-.396-.312-.264-.468-.74-.468-1.428v-3.276h-1.032v-.852h1.032l.132-1.428h.876v1.428h1.752v.852h-1.752v3.276c0 .376.076.632.228.768.152.128.42.192.804.192h.624v.864h-.912Zm7.817 0c-.544 0-.972-.132-1.284-.396-.312-.264-.468-.74-.468-1.428v-3.276h-1.032v-.852h1.032l.132-1.428h.876v1.428h1.752v.852h-1.752v3.276c0 .376.076.632.228.768.152.128.42.192.804.192h.624v.864h-.912Zm4.836.144c-.56 0-1.064-.128-1.512-.384a2.827 2.827 0 0 1-1.068-1.08c-.256-.472-.384-1.024-.384-1.656 0-.632.132-1.18.396-1.644.264-.472.62-.836 1.068-1.092a3.06 3.06 0 0 1 1.524-.384c.56 0 1.064.128 1.512.384.448.256.8.62 1.056 1.092.264.464.396 1.012.396 1.644 0 .632-.132 1.184-.396 1.656a2.802 2.802 0 0 1-1.08 1.08 2.993 2.993 0 0 1-1.512.384Zm0-.864c.344 0 .664-.084.96-.252a1.88 1.88 0 0 0 .72-.756c.184-.336.276-.752.276-1.248s-.092-.912-.276-1.248a1.803 1.803 0 0 0-.708-.756 1.89 1.89 0 0 0-.948-.252c-.344 0-.664.084-.96.252a1.88 1.88 0 0 0-.72.756c-.184.336-.276.752-.276 1.248s.092.912.276 1.248c.184.336.42.588.708.756.296.168.612.252.948.252ZM567.231 240.387l3.096-8.4h1.068l3.084 8.4h-1.068l-.768-2.16h-3.576l-.78 2.16h-1.056Zm2.136-2.976h2.976l-1.488-4.152-1.488 4.152Zm8.344 3.12c-.704 0-1.264-.212-1.68-.636-.416-.432-.624-1.092-.624-1.98v-3.48h1.008v3.372c0 1.24.508 1.86 1.524 1.86.52 0 .948-.184 1.284-.552.344-.376.516-.908.516-1.596v-3.084h1.008v5.952h-.912l-.072-1.068c-.184.376-.46.672-.828.888-.36.216-.768.324-1.224.324Zm7.047-.144c-.544 0-.972-.132-1.284-.396-.312-.264-.468-.74-.468-1.428v-3.276h-1.032v-.852h1.032l.132-1.428h.876v1.428h1.752v.852h-1.752v3.276c0 .376.076.632.228.768.152.128.42.192.804.192h.624v.864h-.912Zm4.837.144c-.56 0-1.064-.128-1.512-.384a2.827 2.827 0 0 1-1.068-1.08c-.256-.472-.384-1.024-.384-1.656 0-.632.132-1.18.396-1.644.264-.472.62-.836 1.068-1.092a3.06 3.06 0 0 1 1.524-.384c.56 0 1.064.128 1.512.384.448.256.8.62 1.056 1.092.264.464.396 1.012.396 1.644 0 .632-.132 1.184-.396 1.656a2.802 2.802 0 0 1-1.08 1.08 2.993 2.993 0 0 1-1.512.384Zm0-.864c.344 0 .664-.084.96-.252a1.88 1.88 0 0 0 .72-.756c.184-.336.276-.752.276-1.248s-.092-.912-.276-1.248a1.803 1.803 0 0 0-.708-.756 1.89 1.89 0 0 0-.948-.252c-.344 0-.664.084-.96.252a1.88 1.88 0 0 0-.72.756c-.184.336-.276.752-.276 1.248s.092.912.276 1.248c.184.336.42.588.708.756.296.168.612.252.948.252Zm4.269-2.34v-.852h4.752v.852h-4.752Zm6.885-4.212a.707.707 0 0 1-.504-.192.707.707 0 0 1-.192-.504c0-.192.064-.352.192-.48a.707.707 0 0 1 .504-.192c.192 0 .356.064.492.192a.632.632 0 0 1 .204.48c0 .2-.068.368-.204.504a.692.692 0 0 1-.492.192Zm-.504 7.272v-5.952h1.008v5.952h-1.008Zm2.763 0v-5.952h.912l.06 1.068c.192-.376.468-.672.828-.888.36-.216.768-.324 1.224-.324.704 0 1.264.216 1.68.648.424.424.636 1.08.636 1.968v3.48h-1.008v-3.372c0-1.24-.512-1.86-1.536-1.86-.512 0-.94.188-1.284.564-.336.368-.504.896-.504 1.584v3.084h-1.008Zm9.219-1.872a3.07 3.07 0 0 1-.924-.132l-.6.564c.088.064.196.12.324.168.136.04.328.08.576.12.248.032.596.068 1.044.108.8.056 1.372.24 1.716.552.344.312.516.72.516 1.224 0 .344-.096.672-.288.984-.184.312-.472.568-.864.768-.384.2-.88.3-1.488.3a4.356 4.356 0 0 1-1.428-.216c-.416-.136-.74-.348-.972-.636-.232-.28-.348-.636-.348-1.068 0-.224.06-.468.18-.732.12-.256.344-.5.672-.732a3.022 3.022 0 0 1-.456-.228 2.898 2.898 0 0 1-.336-.288v-.276l1.02-1.008c-.472-.4-.708-.928-.708-1.584 0-.392.092-.748.276-1.068.184-.32.452-.572.804-.756.352-.192.78-.288 1.284-.288.344 0 .656.048.936.144h2.196v.756l-1.116.048c.232.336.348.724.348 1.164 0 .392-.096.748-.288 1.068-.184.32-.452.576-.804.768-.344.184-.768.276-1.272.276Zm0-.828c.424 0 .76-.108 1.008-.324.256-.224.384-.544.384-.96 0-.408-.128-.72-.384-.936-.248-.224-.584-.336-1.008-.336-.432 0-.776.112-1.032.336-.248.216-.372.528-.372.936 0 .416.124.736.372.96.256.216.6.324 1.032.324Zm-1.752 3.468c0 .4.168.696.504.888.336.2.756.3 1.26.3.496 0 .892-.108 1.188-.324a1.01 1.01 0 0 0 .456-.864.888.888 0 0 0-.312-.672c-.208-.184-.592-.292-1.152-.324-.44-.032-.82-.072-1.14-.12-.328.176-.544.364-.648.564-.104.208-.156.392-.156.552Zm8.463-.624c-.568 0-1.072-.128-1.512-.384a2.856 2.856 0 0 1-1.044-1.092c-.248-.464-.372-1.012-.372-1.644 0-.624.124-1.168.372-1.632a2.667 2.667 0 0 1 1.032-1.092c.448-.264.964-.396 1.548-.396.576 0 1.072.132 1.488.396.424.256.748.596.972 1.02a2.885 2.885 0 0 1 .324 1.632v.3h-4.74c.024.456.128.836.312 1.14.192.296.428.52.708.672.288.152.592.228.912.228.416 0 .764-.096 1.044-.288.28-.192.484-.452.612-.78h.996a2.705 2.705 0 0 1-.924 1.38c-.448.36-1.024.54-1.728.54Zm0-5.388c-.48 0-.908.148-1.284.444-.368.288-.58.712-.636 1.272h3.744c-.024-.536-.208-.956-.552-1.26-.344-.304-.768-.456-1.272-.456Zm6.436 5.388c-.712 0-1.304-.18-1.776-.54-.472-.36-.748-.848-.828-1.464h1.032c.064.312.228.584.492.816.272.224.636.336 1.092.336.424 0 .736-.088.936-.264.2-.184.3-.4.3-.648 0-.36-.132-.6-.396-.72-.256-.12-.62-.228-1.092-.324a6.189 6.189 0 0 1-.96-.276 2.221 2.221 0 0 1-.804-.504c-.216-.224-.324-.516-.324-.876 0-.52.192-.944.576-1.272.392-.336.92-.504 1.584-.504.632 0 1.148.16 1.548.48.408.312.644.76.708 1.344h-.996a1.008 1.008 0 0 0-.396-.708c-.216-.176-.508-.264-.876-.264-.36 0-.64.076-.84.228a.728.728 0 0 0-.288.6c0 .24.124.428.372.564.256.136.6.252 1.032.348.368.08.716.18 1.044.3.336.112.608.284.816.516.216.224.324.552.324.984.008.536-.196.98-.612 1.332-.408.344-.964.516-1.668.516Zm5.802-.144c-.544 0-.972-.132-1.284-.396-.312-.264-.468-.74-.468-1.428v-3.276h-1.032v-.852h1.032l.132-1.428h.876v1.428h1.752v.852h-1.752v3.276c0 .376.076.632.228.768.152.128.42.192.804.192h.624v.864h-.912Zm4.801.144c-.568 0-1.072-.128-1.512-.384a2.856 2.856 0 0 1-1.044-1.092c-.248-.464-.372-1.012-.372-1.644 0-.624.124-1.168.372-1.632a2.667 2.667 0 0 1 1.032-1.092c.448-.264.964-.396 1.548-.396.576 0 1.072.132 1.488.396.424.256.748.596.972 1.02a2.885 2.885 0 0 1 .324 1.632v.3h-4.74c.024.456.128.836.312 1.14.192.296.428.52.708.672.288.152.592.228.912.228.416 0 .764-.096 1.044-.288.28-.192.484-.452.612-.78h.996a2.705 2.705 0 0 1-.924 1.38c-.448.36-1.024.54-1.728.54Zm0-5.388c-.48 0-.908.148-1.284.444-.368.288-.58.712-.636 1.272h3.744c-.024-.536-.208-.956-.552-1.26-.344-.304-.768-.456-1.272-.456Zm6.856 5.388c-.592 0-1.112-.136-1.56-.408a2.835 2.835 0 0 1-1.032-1.116c-.24-.472-.36-1.008-.36-1.608 0-.6.124-1.132.372-1.596a2.75 2.75 0 0 1 1.032-1.104c.44-.272.96-.408 1.56-.408.488 0 .92.1 1.296.3.376.2.668.48.876.84v-3.684h1.008v8.64h-.912l-.096-.984c-.192.288-.468.548-.828.78-.36.232-.812.348-1.356.348Zm.108-.876c.4 0 .752-.092 1.056-.276.312-.192.552-.456.72-.792.176-.336.264-.728.264-1.176 0-.448-.088-.84-.264-1.176a1.837 1.837 0 0 0-.72-.78 1.935 1.935 0 0 0-1.056-.288c-.392 0-.744.096-1.056.288a1.942 1.942 0 0 0-.72.78c-.168.336-.252.728-.252 1.176 0 .448.084.84.252 1.176.176.336.416.6.72.792a2.04 2.04 0 0 0 1.056.276Zm11.083.876c-.488 0-.924-.1-1.308-.3-.376-.2-.664-.48-.864-.84l-.096.996h-.912v-8.64h1.008v3.672c.192-.288.464-.548.816-.78.36-.232.816-.348 1.368-.348.592 0 1.108.136 1.548.408.44.272.78.644 1.02 1.116.248.472.372 1.008.372 1.608 0 .6-.124 1.136-.372 1.608-.24.464-.584.832-1.032 1.104-.44.264-.956.396-1.548.396Zm-.108-.876c.4 0 .752-.092 1.056-.276.304-.192.544-.456.72-.792.176-.336.264-.728.264-1.176 0-.448-.088-.84-.264-1.176a1.942 1.942 0 0 0-.72-.78 1.935 1.935 0 0 0-1.056-.288c-.4 0-.752.096-1.056.288a1.942 1.942 0 0 0-.72.78c-.176.336-.264.728-.264 1.176 0 .448.088.84.264 1.176.176.336.416.6.72.792.304.184.656.276 1.056.276Zm4.63 3.372 1.476-3.216h-.348l-2.364-5.376h1.092l1.968 4.632 2.088-4.632h1.044l-3.9 8.592h-1.056Z" opacity=".6"/><path stroke="#000" stroke-width=".732" d="M0 336.634h918" opacity=".1"/><g clip-path="url(#b)"><path fill="#8039E9" d="M121.545 205.035h-8.238c-.455 0-.809.5-.657.9l1.971 5.05c.101.2-.101.45-.354.45l-2.527-.15c-.101 0-.202.05-.303.15l-1.921 2.75c-.101.15-.303.2-.505.1l-2.932-1.95c-.101-.1-.252-.1-.404 0l-4.043 2.7c-.253.2-.607-.05-.506-.35l1.163-4c.05-.15-.051-.35-.202-.4l-2.123-.85c-.202-.1-.303-.35-.152-.5l1.87-2.3c.101-.1.101-.3 0-.4l-1.566-2.25c-.152-.2 0-.5.252-.5l2.477-.2c.202 0 .303-.15.303-.35l-.202-3.4c0-.25.253-.4.455-.35l3.032 1.25c.152.05.303 0 .405-.1l2.122-2.3c.152-.2.455-.15.556.1l1.264 3.2c.151.4.657.55 1.011.3l4.953-3.65c.556-.4.202-1.3-.506-1.2l-3.184.4c-.151 0-.303-.05-.354-.2l-1.718-4.35a.675.675 0 0 0-1.112-.2l-3.74 4a.396.396 0 0 1-.404.1l-4.903-2.05c-.455-.2-.91.1-.96.6l-.202 5c0 .2-.152.3-.304.3l-4.498.3c-.505.05-.808.6-.505 1.05l2.982 4.35c.1.1.1.3 0 .4l-3.033 3.45c-.252.25-.1.8.303.95l3.488 1.5c.152.05.253.25.202.4l-2.224 8.55c-.151.6.556 1.05 1.062.7l8.339-5.9c.101-.1.253-.1.404 0l3.791 2.65c.303.2.758.15.96-.2l2.376-3.6c.05-.1.202-.15.303-.15l5.66.7c.455.05.91-.3.759-.75l-2.376-6.05c-.05-.15 0-.35.202-.45l4.296-2c.607-.3.405-1.25-.303-1.25Z"/></g><g fill-rule="evenodd" clip-path="url(#c)" clip-rule="evenodd"><path fill="#00A1E0" d="M183.506 80.021c1.185-1.247 2.837-2.022 4.663-2.022 2.427 0 4.545 1.367 5.673 3.397a7.776 7.776 0 0 1 3.207-.688c4.378 0 7.927 3.616 7.927 8.078s-3.549 8.078-7.927 8.078a7.822 7.822 0 0 1-1.562-.157c-.993 1.79-2.886 2.998-5.059 2.998a5.7 5.7 0 0 1-2.534-.59c-1.007 2.394-3.353 4.071-6.087 4.071-2.847 0-5.273-1.82-6.204-4.372a6.05 6.05 0 0 1-1.262.133c-3.39 0-6.138-2.805-6.138-6.265a6.334 6.334 0 0 1 .818-3.126 6.25 6.25 0 0 1 2.251-2.3 7.25 7.25 0 0 1-.587-2.865c0-3.98 3.198-7.205 7.142-7.205a7.07 7.07 0 0 1 3.168.745 7.147 7.147 0 0 1 2.511 2.09Z"/><path fill="#fff" d="m173.53 90.669.149-.417c.024-.072.077-.048.099-.035.041.025.071.047.124.08.439.279.845.282.972.282.328 0 .531-.176.531-.412v-.013c0-.257-.313-.355-.676-.467l-.08-.026c-.498-.143-1.03-.35-1.03-.986v-.013c0-.604.483-1.025 1.173-1.025h.075c.406 0 .797.118 1.081.292.026.016.051.047.037.086l-.153.418c-.027.07-.101.024-.101.024a2.158 2.158 0 0 0-.958-.249c-.293 0-.481.157-.481.37v.013c0 .249.323.355.697.478l.064.02c.496.159 1.025.378 1.025.981v.013c0 .652-.469 1.057-1.223 1.057-.37 0-.724-.058-1.099-.259-.071-.041-.141-.077-.21-.128-.007-.01-.039-.023-.016-.084Zm11.043 0 .149-.417c.021-.068.085-.043.098-.035l.125.08c.439.279.845.282.972.282.327 0 .531-.176.531-.412v-.013c0-.257-.313-.355-.675-.467l-.081-.026c-.498-.143-1.03-.35-1.03-.986v-.013c0-.604.482-1.025 1.173-1.025h.075c.405 0 .797.118 1.082.292.025.016.05.047.036.086-.014.037-.14.379-.153.418-.028.07-.101.024-.101.024a2.156 2.156 0 0 0-.958-.249c-.293 0-.481.157-.481.37v.013c0 .249.322.355.697.478l.064.02c.496.159 1.025.378 1.025.981v.013c0 .652-.469 1.057-1.223 1.057-.371 0-.725-.058-1.099-.259-.071-.041-.141-.077-.211-.128-.007-.01-.039-.023-.015-.084Zm8.168-1.962c.062.21.092.44.092.684 0 .243-.03.473-.092.682a1.54 1.54 0 0 1-.286.553 1.36 1.36 0 0 1-.484.368 1.6 1.6 0 0 1-.675.135c-.255 0-.483-.045-.675-.135a1.369 1.369 0 0 1-.484-.368 1.54 1.54 0 0 1-.286-.552 2.427 2.427 0 0 1-.092-.683c0-.244.031-.474.092-.684.062-.211.158-.397.286-.552.132-.159.297-.286.484-.371a1.57 1.57 0 0 1 .675-.138c.256 0 .482.046.675.138.192.09.355.215.484.37.128.156.225.342.286.553Zm-.629.684c0-.369-.068-.659-.202-.862-.133-.201-.334-.299-.614-.299-.28 0-.479.098-.61.3-.132.203-.199.492-.199.86 0 .369.067.66.199.865.131.204.33.303.61.303.28 0 .481-.1.614-.303.133-.205.202-.496.202-.864Zm5.8 1.068.154.431c.02.053-.025.076-.025.076-.239.094-.57.16-.892.16-.546 0-.964-.158-1.243-.472-.278-.313-.419-.738-.419-1.266 0-.244.035-.475.103-.684a1.458 1.458 0 0 1 .813-.924c.201-.09.438-.136.702-.136.178 0 .336.01.472.031.145.023.339.076.421.108.014.005.056.026.039.075l-.155.434c-.024.066-.073.044-.073.044a2.087 2.087 0 0 0-.666-.096c-.311 0-.545.105-.698.31-.155.207-.241.478-.242.838-.002.395.097.688.27.87.174.18.416.272.721.272.123 0 .24-.008.345-.025.103-.017.201-.05.292-.085 0 0 .06-.023.081.039Zm3.221-1.872c.137.486.066.904.063.927-.005.056-.061.056-.061.056l-2.131-.001c.013.327.091.558.248.716.154.154.398.252.729.253.506.001.722-.102.875-.159 0 0 .058-.021.081.037l.138.395c.029.066.006.09-.018.103-.133.074-.457.213-1.073.215a2.108 2.108 0 0 1-.774-.126 1.413 1.413 0 0 1-.536-.36 1.426 1.426 0 0 1-.309-.546 2.35 2.35 0 0 1-.096-.688c0-.244.031-.475.093-.687.063-.213.16-.401.289-.56.133-.16.301-.29.491-.377.195-.093.437-.138.704-.138.228 0 .436.05.609.125.134.057.268.162.406.311.086.094.219.3.272.504Zm-2.119.45h1.52c-.016-.197-.054-.374-.142-.508a.659.659 0 0 0-.597-.312c-.28 0-.478.11-.61.312a1.27 1.27 0 0 0-.171.508Zm-14.951-.45c.137.486.066.904.064.927-.006.056-.062.056-.062.056l-2.132-.001c.014.327.091.558.249.716.154.154.398.252.729.253.506.001.722-.102.875-.159 0 0 .059-.021.08.037l.139.395c.029.066.006.09-.017.103-.135.074-.459.213-1.074.215a2.098 2.098 0 0 1-.773-.126 1.411 1.411 0 0 1-.537-.36 1.425 1.425 0 0 1-.308-.546 2.317 2.317 0 0 1-.097-.688c0-.244.031-.475.093-.687.058-.204.156-.394.289-.56.134-.16.301-.29.49-.377.197-.093.439-.138.704-.138.21-.001.418.042.611.125.133.057.268.162.405.311.087.094.219.3.272.504Zm-2.12.45h1.521c-.016-.197-.054-.374-.141-.508-.133-.201-.318-.312-.598-.312-.28 0-.479.11-.609.312a1.27 1.27 0 0 0-.173.508Zm-3.759-.103s.169.015.352.042v-.09c0-.288-.059-.423-.175-.514-.119-.092-.297-.14-.527-.14 0 0-.519-.006-.929.22l-.035.017s-.051.019-.07-.035l-.151-.41c-.023-.058.019-.085.019-.085.192-.151.657-.242.657-.242a3.47 3.47 0 0 1 .571-.054c.426 0 .755.1.979.298.225.199.339.519.339.95l.001 1.97s.005.057-.049.07c0 0-.078.022-.149.038a12.2 12.2 0 0 1-.537.106 3.884 3.884 0 0 1-.647.054c-.208 0-.397-.02-.565-.058a1.172 1.172 0 0 1-.434-.19.892.892 0 0 1-.277-.337 1.117 1.117 0 0 1-.099-.492c0-.187.039-.354.115-.496.075-.141.179-.261.309-.355.135-.096.285-.166.445-.208.166-.045.342-.068.525-.068.134 0 .246.002.332.01Zm-.848 1.513c-.001 0 .191.153.625.126.305-.019.575-.077.575-.077v-.98s-.272-.045-.578-.049c-.434-.005-.619.156-.618.156-.128.091-.19.227-.19.416 0 .12.021.215.064.28a.42.42 0 0 0 .122.128Zm18.04-2.622c-.02.059-.124.354-.161.452-.014.037-.036.063-.078.058 0 0-.122-.028-.234-.028-.077 0-.186.01-.285.04-.1.031-.19.086-.263.16a.786.786 0 0 0-.187.317c-.047.135-.071.35-.071.564v1.604a.07.07 0 0 1-.005.025.06.06 0 0 1-.014.022.064.064 0 0 1-.046.02h-.559a.067.067 0 0 1-.025-.006.06.06 0 0 1-.021-.014.082.082 0 0 1-.015-.021.072.072 0 0 1-.005-.025V87.78c0-.036.026-.065.062-.065h.546c.036 0 .062.03.062.065v.263a.962.962 0 0 1 .36-.268c.133-.061.281-.106.549-.09.14.009.321.047.358.062a.054.054 0 0 1 .019.012.058.058 0 0 1 .017.042.058.058 0 0 1-.004.023Zm-5.257-1.488c.015.006.056.026.04.075l-.164.452c-.014.034-.022.054-.092.033a.953.953 0 0 0-.284-.045.72.72 0 0 0-.229.034.433.433 0 0 0-.178.111.625.625 0 0 0-.15.23c-.078.228-.109.47-.113.486h.682c.057 0 .075.027.07.07l-.08.447c-.013.065-.071.063-.071.063h-.702l-.48 2.744a4.196 4.196 0 0 1-.188.723 1.419 1.419 0 0 1-.277.483.976.976 0 0 1-.394.276 1.517 1.517 0 0 1-.523.083c-.093 0-.193-.002-.312-.03a1.675 1.675 0 0 1-.195-.058c-.026-.01-.048-.043-.032-.086.014-.043.14-.391.157-.437.022-.056.078-.034.078-.034a.488.488 0 0 0 .114.036c.051.01.12.02.172.02a.775.775 0 0 0 .25-.037.387.387 0 0 0 .195-.151 1.12 1.12 0 0 0 .149-.307 3.43 3.43 0 0 0 .127-.53l.478-2.695h-.47c-.057 0-.076-.027-.07-.07l.079-.448c.013-.065.073-.062.073-.062h.483l.026-.146c.072-.432.216-.76.428-.976.214-.218.517-.327.903-.327a1.652 1.652 0 0 1 .5.073Zm-9.522 4.655c0 .037-.024.066-.061.066h-.565c-.036 0-.06-.03-.06-.065v-4.596c0-.035.024-.065.06-.065h.565c.037 0 .061.03.061.065v4.595Z"/></g><g clip-path="url(#d)"><path fill="#FF7A59" d="M115.23 125.657v-3.289a2.535 2.535 0 0 0 1.461-2.282v-.075a2.533 2.533 0 0 0-2.533-2.533h-.075a2.532 2.532 0 0 0-2.532 2.533v.075a2.525 2.525 0 0 0 1.46 2.282v3.289a7.168 7.168 0 0 0-3.41 1.501l-9.018-7.025c.064-.232.098-.47.101-.71a2.851 2.851 0 0 0-4.867-2.026 2.85 2.85 0 0 0-.623 3.108 2.85 2.85 0 0 0 2.634 1.765 2.82 2.82 0 0 0 1.405-.382l8.88 6.91a7.194 7.194 0 0 0 .11 8.102l-2.701 2.702a2.309 2.309 0 0 0-.675-.11 2.343 2.343 0 1 0 2.345 2.345 2.309 2.309 0 0 0-.11-.675l2.672-2.673a7.206 7.206 0 1 0 5.476-12.832Zm-1.107 10.814a3.692 3.692 0 0 1-3.796-3.695 3.694 3.694 0 0 1 3.796-3.695 3.697 3.697 0 0 1 .004 7.389"/></g><g clip-path="url(#e)"><path fill="#03363D" d="M106.751 46.161v13.943H95.203l11.548-13.943Zm0-5.003a5.775 5.775 0 0 1-11.548 0h11.548Zm1.904 18.946a5.771 5.771 0 0 1 5.774-5.774 5.773 5.773 0 0 1 5.774 5.774h-11.548Zm0-5.006v-13.94h11.548l-11.548 13.94Z"/></g><g clip-path="url(#f)"><path fill="#FF4876" fill-rule="evenodd" d="M93.51 286.28h12.194v11.881l12.194-11.881v-11.882h-12.194L93.51 286.28Z" clip-rule="evenodd"/></g><path fill="url(#g)" d="M180.332 242.262c-.364-.401-.91-.364-1.165.109l-5.895 11.79c-.218.474.109 1.019.619 1.019h8.188a.672.672 0 0 0 .618-.4c1.783-3.639.728-9.207-2.365-12.518Z"/><path fill="#2684FF" d="M184.625 231.562c-3.275 5.204-3.056 10.99-.909 15.32 2.183 4.331 3.821 7.679 3.966 7.897.11.255.364.401.619.401h8.188c.509 0 .873-.546.619-1.019 0 0-11.027-22.053-11.318-22.599-.218-.51-.837-.51-1.165 0Z"/><path stroke="#000" d="m296.354 148.646 25 25M602.354 145.646l25 25M320.646 173.646l-25 25M626.646 170.646l-25 25" opacity=".2"/><path fill="#F28C6F" d="M783.703 165.165a10.454 10.454 0 0 0-4.664-6.508 10.566 10.566 0 0 0-3.74-1.42 10.532 10.532 0 0 0-.498-8.586c-2.645-5.132-8.944-7.125-14.035-4.459a10.522 10.522 0 0 0-3.285 2.71 10.402 10.402 0 0 0-7.835-3.899c-5.73-.129-10.508 4.444-10.65 10.235a10.568 10.568 0 0 0 .64 3.87 10.403 10.403 0 0 0-7.153 4.932c-2.958 4.96-1.351 11.41 3.569 14.392a10.32 10.32 0 0 0 3.626 1.348 10.528 10.528 0 0 0 .583 8.744 10.307 10.307 0 0 0 6.186 5.046c.981.287 1.976.43 2.972.43 1.706 0 3.413-.43 4.948-1.276a10.33 10.33 0 0 0 3.129-2.623 10.357 10.357 0 0 0 7.451 3.885c.213 0 .441.014.654.014 5.446 0 10.039-4.286 10.38-9.834a10.714 10.714 0 0 0-.625-4.272 10.369 10.369 0 0 0 7.095-4.831 10.533 10.533 0 0 0 1.266-7.927l-.014.029Zm-3.285 6.68a8.043 8.043 0 0 1-6.228 3.827c-1.195-1.763-2.901-3.168-4.92-3.942l5.218-1.405-.611-2.293-10.509 2.838 2.816 10.594 2.275-.617-1.948-7.354c4.209.488 7.366 4.244 7.096 8.558-.27 4.459-4.11 7.87-8.532 7.598-2.56-.158-4.863-1.534-6.257-3.684.213-.459.384-.932.54-1.434.456-1.548.541-3.125.299-4.673l3.839 3.871 1.664-1.678-7.693-7.755-7.693 7.755 1.664 1.678 5.318-5.362a8.096 8.096 0 0 1 .313 5.491 8.053 8.053 0 0 1-3.868 4.816 7.945 7.945 0 0 1-6.128.645c-2.062-.616-3.754-2.007-4.792-3.899a8.203 8.203 0 0 1-.128-7.497 10.21 10.21 0 0 0 1.72-.287 10.334 10.334 0 0 0 3.967-1.978l-1.379 5.175 2.275.616 2.816-10.593-10.509-2.839-.611 2.294 7.352 1.993c-2.432 3.297-7.011 4.257-10.58 2.107-3.797-2.294-5.034-7.297-2.759-11.124a8.07 8.07 0 0 1 6.271-3.914 10.455 10.455 0 0 0 4.679 3.842l-4.963 1.333.611 2.294 10.509-2.838-2.816-10.594-2.275.616 2.005 7.526c-4.109-.458-7.266-4.014-7.152-8.257.113-4.401 3.697-7.913 8.034-7.913h.199a8.045 8.045 0 0 1 6.555 3.699 10.674 10.674 0 0 0-.839 6.106l-3.839-3.87-1.664 1.677 7.693 7.756 7.693-7.756-1.664-1.677-5.332 5.376c-1.635-3.856-.071-8.415 3.669-10.379 3.938-2.064 8.802-.516 10.849 3.44a8.182 8.182 0 0 1 .057 7.383 10.414 10.414 0 0 0-5.73 2.308l1.436-5.39-2.275-.616-2.816 10.593 10.508 2.839.612-2.294-7.238-1.95c2.488-3.211 7.039-4.099 10.551-1.906a8.04 8.04 0 0 1 3.612 5.031 8.041 8.041 0 0 1-.981 6.122l.014-.029Z"/><path fill="#36C5F0" fill-rule="evenodd" d="M452.232 145a4.7 4.7 0 1 0 .002 9.398h4.701v-4.697a4.704 4.704 0 0 0-4.703-4.701c.002 0 .002 0 0 0Zm0 12.533h-12.531a4.7 4.7 0 0 0-.002 9.4h12.533a4.7 4.7 0 1 0 0-9.4Z" clip-rule="evenodd"/><path fill="#2EB67D" fill-rule="evenodd" d="M481.999 162.232a4.7 4.7 0 0 0-4.7-4.699 4.7 4.7 0 0 0-4.701 4.699v4.701h4.701a4.7 4.7 0 0 0 4.7-4.701Zm-12.533 0v-12.533a4.701 4.701 0 0 0-9.4 0v12.533a4.7 4.7 0 1 0 9.4 0Z" clip-rule="evenodd"/><path fill="#ECB22E" fill-rule="evenodd" d="M464.765 192a4.7 4.7 0 0 0 4.701-4.699 4.7 4.7 0 0 0-4.701-4.699h-4.701v4.699a4.704 4.704 0 0 0 4.701 4.699Zm0-12.536h12.534a4.7 4.7 0 0 0 .002-9.4h-12.534a4.7 4.7 0 0 0-.002 9.4Z" clip-rule="evenodd"/><path fill="#E01E5A" fill-rule="evenodd" d="M435 174.765a4.7 4.7 0 0 0 4.701 4.699 4.7 4.7 0 0 0 4.701-4.699v-4.699h-4.701a4.7 4.7 0 0 0-4.701 4.699Zm12.533 0v12.534a4.7 4.7 0 0 0 9.4.002v-12.532a4.7 4.7 0 0 0-9.4-.004Z" clip-rule="evenodd"/><defs><clipPath id="a"><path fill="#fff" d="M172.203 154.18h26v26h-26z"/></clipPath><clipPath id="b"><path fill="#fff" d="M94.203 192.186h28v30h-28z"/></clipPath><clipPath id="c"><path fill="#fff" d="M168.203 77.186h37v26h-37z"/></clipPath><clipPath id="d"><path fill="#fff" d="M94.203 116.18h28v28h-28z"/></clipPath><clipPath id="e"><path fill="#fff" d="M95.203 38.18h25v25h-25z"/></clipPath><clipPath id="f"><path fill="#fff" d="M94.203 274.18h25v24h-25z"/></clipPath><linearGradient id="g" x1="183.549" x2="177.336" y1="244.085" y2="254.847" gradientUnits="userSpaceOnUse"><stop stop-color="#0052CC"/><stop offset=".923" stop-color="#2684FF"/></linearGradient></defs></svg>