<svg width="31" height="32" viewBox="0 0 31 32" fill="none" xmlns="http://www.w3.org/2000/svg">
<path d="M9.21194 14.3193C8.74169 13.802 8.03638 13.849 7.70715 14.4604L0.0888411 29.6969C-0.193309 30.3083 0.229929 31.0137 0.888292 31.0137H11.4692C11.7985 31.0137 12.1276 30.8256 12.2688 30.4964C14.573 25.7938 13.2093 18.5987 9.21194 14.3193Z" fill="url(#paint0_linear_965_104)"/>
<path d="M14.7623 0.493782C10.5299 7.21858 10.8121 14.6959 13.5866 20.292C16.4082 25.8882 18.5244 30.2145 18.7126 30.4967C18.8537 30.8259 19.1828 31.014 19.512 31.014H30.093C30.7513 31.014 31.2216 30.3086 30.8924 29.6972C30.8924 29.6972 16.6434 1.19918 16.2671 0.493782C15.985 -0.164594 15.1855 -0.164594 14.7623 0.493782Z" fill="#2684FF"/>
<defs>
<linearGradient id="paint0_linear_965_104" x1="13.3691" y1="16.6762" x2="5.34021" y2="30.5827" gradientUnits="userSpaceOnUse">
<stop stop-color="#0052CC"/>
<stop offset="0.9228" stop-color="#2684FF"/>
</linearGradient>
</defs>
</svg>
