<svg width="37" height="38" viewBox="0 0 37 38" fill="none" xmlns="http://www.w3.org/2000/svg">
<path d="M30.5844 32.6208C30.9547 32.3246 31.2509 32.0284 31.5471 31.6581C38.8044 24.4008 38.8044 12.7003 31.5471 5.44297C24.2898 -1.81432 12.5893 -1.81432 5.33201 5.44297C5.03579 5.81324 4.73958 6.10946 4.44336 6.47973L30.5844 32.6208Z" fill="#5E6AD2"/>
<path d="M28.3626 34.2498L2.81393 8.70117C2.29555 9.51577 1.85123 10.3304 1.48096 11.219L25.8447 35.5828C26.7334 35.2125 27.548 34.7682 28.3626 34.2498Z" fill="#5E6AD2"/>
<path d="M23.0308 36.5456L0.518378 14.0332C0.222162 15.144 0.0740541 16.2548 0 17.3656L19.6984 37.064C20.8092 36.99 21.92 36.8419 23.0308 36.5456Z" fill="#5E6AD2"/>
<path d="M15.6257 36.916L0.148438 21.4387C0.74087 25.2155 2.44411 28.7701 5.33222 31.7322C8.29438 34.5463 11.923 36.3236 15.6257 36.916Z" fill="#5E6AD2"/>
</svg>
