<svg width="32" height="32" viewBox="0 0 32 32" fill="none" xmlns="http://www.w3.org/2000/svg">
<g clip-path="url(#clip0_971_2)">
<path d="M3.875 0H28.25C29.25 0.125 30.25 0.625 30.875 1.25C31.5 1.875 31.875 2.875 32 3.875V28.125C31.875 29.25 31.375 30.375 30.5 31.125C29.875 31.625 29 31.875 28.125 32H3.875C3 31.875 2.125 31.625 1.375 31.125C0.625 30.375 0.125 29.25 0 28.125V3.875C0.125 2.875 0.5 1.875 1.125 1.25C1.875 0.5 2.75 0 3.875 0ZM20.875 5.875C18.75 6.25 16.75 7.375 15.375 9L12.75 11.875C12.625 12.125 12.25 12.5 11.875 12.375C11 12.25 10.125 11.875 9.25 12C8.375 12 7.75 12.5 7.125 13L5.875 13.75C5.625 14.125 5.75 14.75 6.25 15L10.125 17.375L10.875 17.75C11.375 17.75 11.75 17.375 11.75 16.875C11.75 16.5 11.5 16.25 11.25 16.125L8.25 14.25C8.625 14 9.125 13.625 9.625 13.625C10.375 13.625 11 14 11.625 14C12.5 14.25 13.375 13.875 13.875 13.25L16.125 10.625C17.375 9.25 18.875 8 20.75 7.625C22 7.375 23.25 7.5 24.5 7.5V9.625C24.5 11 24.125 12.5 23.375 13.75C22.875 14.5 22.125 15.125 21.375 15.75L18.75 18.125C18.25 18.625 17.875 19.375 17.875 20.125C18 20.875 18.375 21.625 18.375 22.375C18.375 22.875 18 23.375 17.75 23.75L16 20.75C15.75 20.5 15.625 20.25 15.25 20.25C14.75 20.25 14.375 20.625 14.25 21L14.5 21.875L16.875 25.75C17.125 26.125 17.5 26.375 17.875 26.25C18.25 26.125 18.5 25.75 18.75 25.5C19.25 24.625 19.875 23.875 20 22.875C20.25 21.875 19.75 21 19.625 20.125C19.5 19.75 19.875 19.375 20.125 19.125L23 16.625C24.625 15.25 25.75 13.375 26.125 11.25C26.375 10 26.25 8.625 26.25 7.25C26.25 6.875 26.375 6.375 26 6C25.625 5.625 25.125 5.75 24.75 5.75C23.5 5.75 22.125 5.625 20.875 5.875ZM17.875 11.5C17.5 12.5 18 13.625 18.875 14.125C20 14.625 21.375 14.125 21.75 13C22 12.5 22.125 11.875 21.625 11.5C21.375 11.25 20.875 11.375 20.5 11.5C20.75 11 20.75 10.25 20.125 10.125C19.25 9.875 18.125 10.5 17.875 11.5ZM15.75 15.25L15.25 15.5C13.7972 17.0884 12.3388 18.6717 10.875 20.25C10.875 20.75 11.375 21.25 11.875 21.125C12.125 21.125 12.25 20.875 12.5 20.75L16.5 16.625C16.75 16.5 16.875 16.125 16.875 15.875C16.75 15.375 16.125 15 15.75 15.25ZM7.875 18.625L6.5 20C6.125 20.375 5.625 20.75 5.75 21.25C5.875 21.875 6.625 22.25 7.125 21.875L8.625 20.375C8.875 20.125 9.25 19.75 9.125 19.375C9.125 18.75 8.375 18.375 7.875 18.625ZM8.75 22.125L6.25 24.625C6 24.75 5.75 25 5.75 25.25C5.625 25.75 6.25 26.375 6.75 26.25C7 26.25 7.25 25.875 7.5 25.75L9.75 23.5C10 23.25 10.125 22.75 9.875 22.5C9.75 22 9.25 21.875 8.75 22.125ZM12.125 23L10.75 24.375C10.375 24.625 10 25 10 25.5C10.125 26.125 10.875 26.5 11.375 26.125L12.875 24.625C13.125 24.375 13.5 24 13.375 23.5C13.375 23 12.625 22.625 12.125 23Z" fill="#2200FF"/>
<path d="M19.5001 11.875L20.5001 11.5L20.1251 12.375C19.8751 12.875 19.1251 12.375 19.5001 11.875Z" fill="#2200FF"/>
<path d="M20.875 5.875C22.125 5.625 23.5 5.75 24.75 5.75C25.125 5.75 25.625 5.625 26 6C26.375 6.375 26.25 6.875 26.25 7.25C26.25 8.625 26.375 10 26.125 11.25C25.75 13.375 24.625 15.25 23 16.625L20.125 19.125C19.875 19.375 19.5 19.75 19.625 20.125C19.75 21 20.25 21.875 20 22.875C19.875 23.875 19.25 24.625 18.75 25.5C18.5 25.75 18.25 26.125 17.875 26.25C17.5 26.375 17.125 26.125 16.875 25.75L14.5 21.875L14.25 21C14.375 20.625 14.75 20.25 15.25 20.25C15.625 20.25 15.75 20.5 16 20.75L17.75 23.75C18 23.375 18.375 22.875 18.375 22.375C18.375 21.625 18 20.875 17.875 20.125C17.875 19.375 18.25 18.625 18.75 18.125L21.375 15.75C22.125 15.125 22.875 14.5 23.375 13.75C24.125 12.5 24.5 11 24.5 9.625V7.5C23.25 7.5 22 7.375 20.75 7.625C18.875 8 17.375 9.25 16.125 10.625L13.875 13.25C13.375 13.875 12.5 14.25 11.625 14C11 14 10.375 13.625 9.625 13.625C9.125 13.625 8.625 14 8.25 14.25L11.25 16.125C11.5 16.25 11.75 16.5 11.75 16.875C11.75 17.375 11.375 17.75 10.875 17.75L10.125 17.375L6.25 15C5.75 14.75 5.625 14.125 5.875 13.75L7.125 13C7.75 12.5 8.375 12 9.25 12C10.125 11.875 11 12.25 11.875 12.375C12.25 12.5 12.625 12.125 12.75 11.875L15.375 9C16.75 7.375 18.75 6.25 20.875 5.875Z" fill="white"/>
<path d="M17.875 11.5C18.125 10.5 19.25 9.87495 20.125 10.125C20.75 10.25 20.75 11 20.5 11.5C20.875 11.375 21.375 11.25 21.625 11.5C22.125 11.875 22 12.5 21.75 13C21.375 14.125 20 14.625 18.875 14.125C18 13.625 17.5 12.5 17.875 11.5ZM19.5 11.875C19.125 12.375 19.875 12.875 20.125 12.375L20.5 11.5L19.5 11.875ZM15.75 15.25C16.125 15 16.75 15.375 16.875 15.875C16.875 16.125 16.75 16.5 16.5 16.625L12.5 20.75C12.25 20.875 12.125 21.125 11.875 21.125C11.375 21.25 10.875 20.75 10.875 20.25L11.25 19.5L15.25 15.5L15.75 15.25ZM7.87505 18.625C8.37505 18.375 9.12505 18.75 9.12505 19.375C9.25005 19.75 8.87505 20.125 8.62505 20.375L7.12505 21.875C6.62505 22.25 5.87505 21.875 5.75005 21.25C5.62505 20.75 6.12505 20.375 6.50005 20L7.87505 18.625ZM8.75005 22.125C9.25005 21.875 9.75005 22 9.87505 22.5C10.125 22.75 10 23.25 9.75005 23.5L7.50005 25.75C7.25005 25.875 7.00005 26.25 6.75005 26.25C6.25005 26.375 5.62505 25.75 5.75005 25.25C6.63321 24.3411 7.50824 23.4244 8.37505 22.5L8.75005 22.125ZM12.125 23C12.625 22.625 13.375 23 13.375 23.5C13.5 24 13.125 24.375 12.875 24.625L11.375 26.125C10.875 26.5 10.125 26.125 10 25.5C10 25 10.375 24.625 10.75 24.375L12.125 23Z" fill="white"/>
</g>
<defs>
<clipPath id="clip0_971_2">
<rect width="32" height="32" fill="white"/>
</clipPath>
</defs>
</svg>
