<svg width="45" height="32" viewBox="0 0 45 32" fill="none" xmlns="http://www.w3.org/2000/svg">
<path fill-rule="evenodd" clip-rule="evenodd" d="M18.4872 3.42573C19.9196 1.91851 21.915 0.982569 24.1209 0.982569C27.0531 0.982569 29.6121 2.63457 30.9745 5.08705C32.1935 4.53704 33.5138 4.25354 34.8488 4.25516C40.1379 4.25516 44.4252 8.62418 44.4252 14.0145C44.4252 19.4049 40.1379 23.7739 34.8488 23.7739C34.2021 23.7739 33.5715 23.7086 32.9617 23.5845C31.7621 25.7454 29.4746 27.206 26.8505 27.206C25.7519 27.206 24.7127 26.9508 23.788 26.4939C22.5714 29.3846 19.7374 31.4106 16.4349 31.4106C12.996 31.4106 10.0643 29.2119 8.93948 26.1292C8.43832 26.236 7.92751 26.2898 7.41532 26.2897C3.31995 26.2902 2.05962e-05 22.9018 2.05962e-05 18.7217C-0.00305181 17.397 0.337666 16.0946 0.988209 14.9444C1.63875 13.7942 2.5764 12.8363 3.70767 12.1662C3.23834 11.0738 2.99687 9.89549 2.9983 8.70467C2.9983 3.89689 6.86143 5.92351e-06 11.6268 5.92351e-06C12.9543 -0.00155861 14.2642 0.30682 15.4543 0.901067C16.6444 1.49531 17.6823 2.35935 18.4872 3.42573Z" fill="#00A1E0"/>
<path fill-rule="evenodd" clip-rule="evenodd" d="M6.43469 16.2892L6.61446 15.7851C6.64312 15.6988 6.70774 15.7272 6.73398 15.7434C6.78402 15.7734 6.81998 15.8003 6.8846 15.8386C7.41419 16.1768 7.90492 16.1802 8.05797 16.1802C8.45443 16.1802 8.70028 15.9682 8.70028 15.6821V15.6673C8.70028 15.3562 8.32131 15.2384 7.88354 15.1029L7.78637 15.0715C7.18535 14.8988 6.54255 14.649 6.54255 13.8804V13.8647C6.54255 13.1354 7.1251 12.6264 7.95885 12.6264L8.05019 12.6254C8.53995 12.6254 9.01318 12.7692 9.3562 12.9793C9.3873 12.9989 9.41742 13.0352 9.39993 13.0833L9.2153 13.5874C9.18275 13.6733 9.09383 13.6163 9.09383 13.6163C8.73596 13.428 8.33995 13.3253 7.9365 13.3165C7.58279 13.3165 7.3554 13.5059 7.3554 13.7631V13.7793C7.3554 14.0791 7.74507 14.2072 8.19692 14.356L8.27466 14.3805C8.87374 14.5719 9.51314 14.8369 9.51314 15.5658V15.581C9.51314 16.3687 8.94662 16.858 8.03562 16.858C7.58813 16.858 7.16009 16.7883 6.70726 16.5454C6.62175 16.4953 6.5372 16.4521 6.45364 16.3908C6.44489 16.378 6.40651 16.3628 6.4342 16.2892H6.43469ZM19.7751 16.2892L19.9554 15.7851C19.9816 15.7027 20.0579 15.7331 20.0744 15.7434C20.124 15.7743 20.1609 15.8003 20.225 15.8386C20.7556 16.1768 21.2454 16.1802 21.3999 16.1802C21.7949 16.1802 22.0412 15.9682 22.0412 15.6821V15.6673C22.0412 15.3562 21.6627 15.2384 21.225 15.1029L21.1278 15.0715C20.5258 14.8988 19.883 14.649 19.883 13.8804V13.8647C19.883 13.1354 20.466 12.6264 21.2998 12.6264L21.3906 12.6254C21.8804 12.6254 22.3541 12.7692 22.6976 12.9793C22.7277 12.9989 22.7583 13.0352 22.7413 13.0833C22.7243 13.128 22.5727 13.5403 22.5567 13.5874C22.5232 13.6733 22.4352 13.6163 22.4352 13.6163C22.0772 13.4279 21.681 13.3253 21.2774 13.3165C20.9237 13.3165 20.6963 13.5059 20.6963 13.7631V13.7793C20.6963 14.0791 21.0855 14.2072 21.5378 14.356L21.6156 14.3805C22.2147 14.5719 22.8536 14.8369 22.8536 15.5658V15.581C22.8536 16.3687 22.2875 16.858 21.3765 16.858C20.9286 16.858 20.5005 16.7883 20.0482 16.5454C19.9627 16.4953 19.8781 16.4521 19.7941 16.3908C19.7853 16.378 19.7469 16.3628 19.7751 16.2892ZM29.6431 13.9191C29.7179 14.1724 29.7548 14.4507 29.7548 14.7447C29.7548 15.0391 29.7179 15.3164 29.6431 15.5697C29.5747 15.8139 29.4572 16.0412 29.2981 16.2376C29.1387 16.4284 28.9387 16.5804 28.7131 16.6823C28.4799 16.7903 28.2059 16.8443 27.8978 16.8443C27.5898 16.8443 27.3148 16.7903 27.0826 16.6823C26.857 16.5804 26.657 16.4284 26.4976 16.2376C26.3386 16.0413 26.221 15.8141 26.1521 15.5702C26.0757 15.3019 26.0381 15.0238 26.0404 14.7447C26.0404 14.4502 26.0778 14.1724 26.1521 13.9191C26.2269 13.6639 26.3431 13.4392 26.4971 13.2517C26.6569 13.0601 26.8569 12.9069 27.0826 12.8031C27.3153 12.6932 27.5888 12.6377 27.8978 12.6377C28.2069 12.6377 28.4804 12.6932 28.7131 12.8031C28.9454 12.9125 29.1426 13.0632 29.2981 13.2517C29.4526 13.4392 29.5692 13.6639 29.6431 13.9191ZM28.8832 14.7447C28.8832 14.2995 28.8016 13.9496 28.6393 13.7042C28.4789 13.4607 28.236 13.343 27.8978 13.343C27.5597 13.343 27.3187 13.4607 27.1603 13.7042C27.0014 13.9496 26.9203 14.2995 26.9203 14.7447C26.9203 15.1893 27.0014 15.5417 27.1613 15.7891C27.3187 16.0354 27.5597 16.1547 27.8978 16.1547C28.236 16.1547 28.4789 16.0349 28.6393 15.7891C28.8006 15.5417 28.8832 15.1893 28.8832 14.7447ZM35.8904 16.0354L36.0769 16.5567C36.1012 16.6205 36.0463 16.6484 36.0463 16.6484C35.7582 16.7613 35.3583 16.8418 34.9691 16.8418C34.3093 16.8418 33.804 16.6499 33.4668 16.271C33.1316 15.8931 32.9606 15.3793 32.9606 14.7417C32.9606 14.4467 33.0028 14.1675 33.0854 13.9147C33.168 13.6595 33.2919 13.4347 33.4552 13.2473C33.6247 13.0545 33.8338 12.9014 34.0679 12.7987C34.3108 12.6892 34.5965 12.6343 34.9152 12.6343C35.1305 12.6343 35.3219 12.6475 35.4861 12.672C35.6615 12.6995 35.8952 12.7633 35.9938 12.8021C36.0118 12.809 36.0619 12.8335 36.0415 12.8929C35.9695 13.0976 35.9205 13.2311 35.8539 13.4176C35.8248 13.4971 35.7655 13.4706 35.7655 13.4706C35.5153 13.3911 35.2752 13.3547 34.9619 13.3547C34.5853 13.3547 34.3025 13.4814 34.1179 13.7292C33.9313 13.979 33.8269 14.3064 33.8254 14.7417C33.824 15.2193 33.9425 15.5731 34.1524 15.792C34.3618 16.0104 34.6543 16.1208 35.0226 16.1208C35.1718 16.1208 35.3127 16.111 35.4395 16.0909C35.5648 16.0708 35.6824 16.0315 35.7932 15.9878C35.7932 15.9878 35.8646 15.9608 35.8904 16.0354ZM39.7821 13.7744C39.9478 14.3604 39.8613 14.8664 39.8584 14.8943C39.8521 14.9611 39.7841 14.9621 39.7841 14.9621L37.2095 14.9601C37.2255 15.3552 37.3193 15.635 37.5088 15.8249C37.6949 16.0109 37.9903 16.1302 38.3901 16.1307C39.0014 16.1321 39.2623 16.008 39.4474 15.9388C39.4474 15.9388 39.5178 15.9132 39.5446 15.9839L39.7122 16.4605C39.7462 16.5405 39.719 16.5684 39.6903 16.5846C39.529 16.6744 39.1379 16.8423 38.3935 16.8443C38.0325 16.8457 37.7182 16.7937 37.4592 16.6921C37.2131 16.6 36.9915 16.4517 36.8116 16.2587C36.6396 16.0694 36.5119 15.8435 36.4379 15.5977C36.3582 15.3283 36.3191 15.0484 36.3218 14.7672C36.3218 14.4728 36.3592 14.193 36.4345 13.9373C36.5098 13.6796 36.6269 13.4524 36.7829 13.2615C36.9445 13.0666 37.1472 12.9107 37.3761 12.8051C37.6123 12.6927 37.9048 12.6377 38.2264 12.6377C38.5019 12.6377 38.7536 12.6976 38.963 12.7889C39.1243 12.8585 39.2866 12.9847 39.4527 13.1653C39.5577 13.2792 39.7175 13.5285 39.7821 13.7744ZM37.2216 14.3177H39.0582C39.0392 14.0791 38.9931 13.8652 38.8872 13.7042C38.7259 13.4607 38.5033 13.3268 38.1657 13.3268C37.8275 13.3268 37.5875 13.4607 37.4286 13.7042C37.3246 13.8652 37.2581 14.0703 37.2216 14.3177ZM19.1595 13.7744C19.3247 14.3604 19.2397 14.8664 19.2368 14.8943C19.23 14.9611 19.162 14.9621 19.162 14.9621L16.5869 14.9601C16.6034 15.3552 16.6967 15.635 16.8866 15.8249C17.0727 16.0109 17.3677 16.1302 17.7675 16.1307C18.3787 16.1321 18.6406 16.008 18.8253 15.9388C18.8253 15.9388 18.8957 15.9132 18.9219 15.9839L19.0901 16.4605C19.1241 16.5405 19.0969 16.5684 19.0687 16.5846C18.9064 16.6744 18.5148 16.8423 17.7714 16.8443C17.4099 16.8457 17.0956 16.7937 16.8371 16.6921C16.5909 16.5999 16.3691 16.4516 16.1889 16.2587C16.0175 16.0692 15.8901 15.8433 15.8163 15.5977C15.736 15.3284 15.6965 15.0484 15.6992 14.7672C15.6992 14.4728 15.7371 14.193 15.8119 13.9373C15.8819 13.6906 16.0006 13.4607 16.1608 13.2615C16.3224 13.0668 16.5249 12.9109 16.7535 12.8051C16.9906 12.6927 17.2831 12.6377 17.6038 12.6377C17.8572 12.6371 18.1082 12.6885 18.3413 12.7889C18.5026 12.8585 18.6649 12.9847 18.8306 13.1653C18.9355 13.2792 19.0954 13.5285 19.1595 13.7744ZM16.5985 14.3177H18.4361C18.4166 14.0791 18.3705 13.8652 18.2651 13.7042C18.1047 13.4607 17.8812 13.3268 17.5435 13.3268C17.2054 13.3268 16.9649 13.4607 16.807 13.7042C16.702 13.8652 16.6359 14.0703 16.5985 14.3177ZM12.0576 14.1935C12.0576 14.1935 12.2607 14.2117 12.4823 14.2441V14.1341C12.4823 13.7871 12.4108 13.6237 12.2704 13.5142C12.1266 13.4033 11.9119 13.3459 11.6339 13.3459C11.6339 13.3459 11.0072 13.3381 10.5116 13.61C10.4888 13.6237 10.4698 13.6315 10.4698 13.6315C10.4698 13.6315 10.4076 13.6536 10.3853 13.5893L10.2031 13.0946C10.1749 13.0235 10.2259 12.9911 10.2259 12.9911C10.4577 12.8085 11.0193 12.6981 11.0193 12.6981C11.2473 12.6576 11.4782 12.6361 11.7097 12.6338C12.2238 12.6338 12.6217 12.7545 12.8923 12.9935C13.1635 13.2335 13.3014 13.6203 13.3014 14.1415L13.3029 16.5208C13.3029 16.5208 13.3082 16.5895 13.2436 16.6052C13.2436 16.6052 13.1489 16.6317 13.0639 16.6519C12.9779 16.672 12.6679 16.7358 12.4147 16.779C12.1562 16.8227 11.8946 16.8447 11.6325 16.8448C11.3823 16.8448 11.1529 16.8212 10.9508 16.7746C10.7625 16.7347 10.5841 16.6566 10.4266 16.5449C10.283 16.4396 10.1678 16.2997 10.0913 16.138C10.0121 15.9746 9.97228 15.7748 9.97228 15.5442C9.97228 15.3179 10.0194 15.1162 10.1103 14.9444C10.2016 14.7736 10.327 14.6288 10.4844 14.5155C10.647 14.3998 10.8288 14.3145 11.0213 14.2637C11.2219 14.2097 11.4352 14.1817 11.6558 14.1817C11.8176 14.1817 11.9527 14.1852 12.0576 14.1935ZM11.0329 16.0212C11.0315 16.0207 11.2637 16.2053 11.788 16.1729C12.1563 16.1503 12.4828 16.0796 12.4828 16.0796V14.8968C12.4828 14.8968 12.1533 14.8423 11.7836 14.8369C11.2593 14.8305 11.0358 15.0254 11.0373 15.0249C10.8828 15.1358 10.8075 15.3002 10.8075 15.528C10.8075 15.6737 10.8332 15.7876 10.8852 15.8671C10.9178 15.9196 10.9319 15.9392 11.0329 16.0212ZM32.8265 12.8531C32.8022 12.9243 32.6773 13.2806 32.6321 13.3989C32.6156 13.4441 32.5884 13.475 32.5384 13.4696C32.5384 13.4696 32.3907 13.4352 32.2556 13.4352C32.1628 13.4352 32.0301 13.447 31.9106 13.4843C31.7907 13.5215 31.6817 13.5877 31.5929 13.6772C31.4986 13.769 31.4223 13.898 31.3669 14.06C31.3106 14.2229 31.2814 14.4821 31.2814 14.7422V16.6798C31.2815 16.6902 31.2795 16.7005 31.2756 16.71C31.2718 16.7196 31.266 16.7283 31.2588 16.7357C31.2516 16.743 31.243 16.7489 31.2335 16.7528C31.2241 16.7568 31.2139 16.7589 31.2037 16.7589H30.5278C30.5175 16.759 30.5072 16.7571 30.4976 16.7532C30.488 16.7493 30.4793 16.7436 30.4719 16.7363C30.4645 16.729 30.4586 16.7203 30.4545 16.7107C30.4504 16.7011 30.4483 16.6908 30.4482 16.6803V12.8006C30.4482 12.757 30.4797 12.7221 30.523 12.7221H31.1823C31.226 12.7221 31.2571 12.757 31.2571 12.8006V13.1177C31.3558 12.9842 31.5326 12.8664 31.6925 12.7938C31.8528 12.7201 32.0321 12.6662 32.3562 12.6858C32.5248 12.6961 32.7439 12.7427 32.7881 12.7599C32.7967 12.7634 32.8046 12.7686 32.8112 12.7752C32.8179 12.7818 32.8231 12.7897 32.8267 12.7984C32.8303 12.8071 32.8321 12.8164 32.832 12.8258C32.832 12.8352 32.8301 12.8445 32.8265 12.8531ZM26.4762 11.0554C26.4942 11.0627 26.5432 11.0868 26.5238 11.1457L26.3261 11.6919C26.3095 11.7332 26.2989 11.7577 26.2148 11.7322C26.1036 11.6969 25.9878 11.6787 25.8713 11.6782C25.7693 11.6782 25.6769 11.6914 25.5953 11.7189C25.5136 11.7453 25.4396 11.7915 25.3796 11.8534C25.2998 11.9314 25.238 12.0262 25.1989 12.1312C25.1041 12.406 25.0677 12.699 25.0628 12.7177H25.8859C25.9553 12.7177 25.9772 12.7501 25.9704 12.8016L25.8742 13.3425C25.8587 13.421 25.7882 13.4181 25.7882 13.4181H24.9399L24.3602 16.7338C24.3104 17.0312 24.2346 17.3235 24.1338 17.6074C24.043 17.8474 23.9492 18.0227 23.7986 18.19C23.67 18.3398 23.5066 18.4548 23.3229 18.5247C23.1446 18.591 22.9279 18.6249 22.6913 18.6249C22.5786 18.6249 22.4571 18.6224 22.3138 18.588C22.2339 18.5696 22.1552 18.5463 22.0781 18.5183C22.0466 18.5071 22.0208 18.4663 22.0393 18.4143C22.0568 18.3628 22.2093 17.9412 22.2297 17.8857C22.256 17.819 22.323 17.8445 22.323 17.8445C22.3687 17.8641 22.4007 17.8769 22.4615 17.8892C22.5232 17.9014 22.6058 17.9122 22.6685 17.9122C22.7807 17.9122 22.8827 17.8985 22.9716 17.8681C23.0785 17.8332 23.1417 17.7699 23.2068 17.6855C23.2748 17.5966 23.3302 17.4764 23.3871 17.3149C23.4439 17.1515 23.4959 16.9355 23.5406 16.674L24.1178 13.4185H23.5493C23.4813 13.4185 23.458 13.3861 23.4658 13.3341L23.561 12.7933C23.5761 12.7147 23.6485 12.7177 23.6485 12.7177H24.232L24.2636 12.542C24.351 12.0198 24.5245 11.6227 24.781 11.3621C25.039 11.0996 25.4058 10.967 25.8713 10.967C26.0044 10.967 26.122 10.9759 26.2216 10.994C26.3193 11.0127 26.3936 11.0299 26.4762 11.0554ZM14.9728 16.6798C14.9728 16.724 14.9427 16.7589 14.899 16.7589H14.2163C14.1726 16.7589 14.143 16.7235 14.143 16.6803V11.128C14.143 11.0853 14.1731 11.05 14.2158 11.05H14.899C14.9427 11.05 14.9728 11.0853 14.9728 11.1285V16.6798Z" fill="white"/>
</svg>
