<svg width="48" height="33" viewBox="0 0 48 33" fill="none" xmlns="http://www.w3.org/2000/svg">
<path d="M41.5426 18.7057C41.1093 18.7057 40.6759 18.7779 40.2426 18.8501C38.5815 12.314 33.2731 7.40282 26.7008 6.24726C26.412 6.17504 26.1231 6.17504 25.8342 6.10281C25.9064 4.51392 25.9786 2.63613 28.362 0.975006L27.9286 0C27.9286 0 23.3064 1.44445 22.8008 5.4167C22.5841 4.33336 20.4175 2.96113 19.3341 2.74446L18.7925 3.61113C19.7314 4.18891 20.3814 5.20003 20.5258 6.28337C13.8452 7.43893 8.57296 12.3862 6.91183 18.8862C3.95071 18.164 0.881243 19.9696 0.159016 22.9307C-0.56321 25.8918 1.24236 28.9613 4.20348 29.6835C5.35905 29.9724 6.51461 29.9002 7.59795 29.4668C8.10351 30.6224 8.68129 31.778 9.40352 32.7891L14.098 29.7196L14.0258 29.6474C12.7258 27.8418 12.0035 25.6752 11.9313 23.4724C11.7869 20.9446 12.4369 18.4168 14.0258 16.9362C17.348 14.1195 20.9953 15.4195 23.3064 18.0918H23.848C26.0869 15.3473 29.7342 14.1195 33.1287 16.9362C34.7176 18.3807 35.3676 20.9085 35.2231 23.4724C35.1509 25.7113 34.4287 27.8057 33.1287 29.6474L33.0564 29.7196L37.6787 32.8252C38.4009 31.8141 38.9787 30.6585 39.4842 29.503C42.3009 30.5863 45.5871 29.2141 46.6704 26.3974C47.7537 23.5807 46.3815 20.2946 43.5648 19.2112C42.9148 18.8501 42.1926 18.7057 41.5426 18.7057ZM5.46738 25.9279C4.60071 25.8557 3.87848 25.1335 3.9507 24.1946C4.02293 23.3279 4.67293 22.6779 5.46738 22.6057C5.82849 22.6057 6.11738 22.6779 6.40628 22.8946C6.40628 23.7613 6.4785 24.6279 6.55072 25.4946C6.26183 25.7835 5.90072 25.964 5.46738 25.9279ZM41.6148 25.9279C41.1815 25.9279 40.8204 25.7835 40.5315 25.4946C40.6037 24.6279 40.6759 23.7613 40.6759 22.8946C41.3982 22.389 42.4093 22.6057 42.9148 23.3279C43.1315 23.6168 43.2037 23.9057 43.2037 24.2668C43.312 25.2057 42.5176 25.9279 41.6148 25.9279Z" fill="#00BF6F"/>
</svg>
