<svg width="34" height="34" viewBox="0 0 34 34" fill="none" xmlns="http://www.w3.org/2000/svg">
<path fill-rule="evenodd" clip-rule="evenodd" d="M30.0283 0H4.02614C1.7894 0 0 1.7894 0 4.02614V29.9724C0 32.2091 1.7894 33.9985 4.02614 33.9985H29.9724C32.2091 33.9985 33.9985 32.2091 33.9985 29.9724V4.08206C34.0545 1.7894 32.2651 0 30.0283 0ZM14.6507 24.5483C14.6507 25.2752 14.0356 25.8903 13.3086 25.8903H7.66085C6.93391 25.8903 6.31881 25.2752 6.31881 24.5483V7.66085C6.31881 6.93391 6.93391 6.31881 7.66085 6.31881H13.3646C14.0915 6.31881 14.7066 6.93391 14.7066 7.66085V24.5483H14.6507ZM27.7916 16.7756C27.7916 17.5025 27.2324 18.1176 26.4495 18.1736C26.4495 18.1736 26.4495 18.1736 26.3936 18.1736H20.7458C20.0189 18.1736 19.4038 17.5585 19.4038 16.8315V7.66085C19.4038 6.93391 20.0189 6.31881 20.7458 6.31881H26.4495C27.1765 6.31881 27.7916 6.93391 27.7916 7.66085V16.7756Z" fill="url(#paint0_linear_966_33)"/>
<defs>
<linearGradient id="paint0_linear_966_33" x1="17.0384" y1="34.0768" x2="17.0384" y2="0" gradientUnits="userSpaceOnUse">
<stop stop-color="#0052CC"/>
<stop offset="1" stop-color="#2684FF"/>
</linearGradient>
</defs>
</svg>
